<svg xmlns="http://www.w3.org/2000/svg" width="78" height="90" viewBox="0 0 78 90">
    <g fill="none" fill-rule="evenodd">
        <g fill="gray" fill-rule="nonzero">
            <g>
                <path d="M63.458 86.376c-4.888 4.737-10.28 3.999-15.421 1.765-5.465-2.279-10.461-2.423-16.233 0-7.188 3.098-11.002 2.198-15.331-1.765-24.44-25.13-20.832-63.409 6.944-64.85 6.737.36 11.453 3.72 15.421 4 5.898-1.198 11.544-4.63 17.856-4.18 7.585.613 13.257 3.603 17.045 8.98-15.602 9.367-11.904 29.903 2.426 35.667-2.868 7.52-6.548 14.952-12.716 20.446l.009-.063zm-25.16-65.12C37.566 10.088 46.63.901 57.054 0c1.434 12.88-11.724 22.517-18.758 21.256z" transform="translate(-681 -212) translate(681.835 212)"/>
            </g>
        </g>
    </g>
</svg>
