<svg width="18" height="18" xmlns="http://www.w3.org/2000/svg">
    <g fill="none" fill-rule="evenodd">
        <path d="M0 0h18v18H0z"/>
        <path d="M8.992 1.5C4.853 1.5 1.5 4.86 1.5 9c0 4.14 3.353 7.5 7.492 7.5 4.148 0 7.508-3.36 7.508-7.5 0-4.14-3.36-7.5-7.508-7.5zM9 15c-3.315 0-6-2.685-6-6s2.685-6 6-6 6 2.685 6 6-2.685 6-6 6zm2.625-6.75c.623 0 1.125-.503 1.125-1.125S12.248 6 11.625 6 10.5 6.503 10.5 7.125s.502 1.125 1.125 1.125zm-5.25 0c.622 0 1.125-.503 1.125-1.125S6.997 6 6.375 6 5.25 6.503 5.25 7.125 5.753 8.25 6.375 8.25zM9 13.125a4.122 4.122 0 0 0 3.832-2.625H5.167A4.122 4.122 0 0 0 9 13.125z" fill="gray" fill-rule="nonzero"/>
    </g>
</svg>
