<?xml version="1.0" encoding="utf-8"?>
<!-- Generator: Adobe Illustrator 23.0.3, SVG Export Plug-In . SVG Version: 6.00 Build 0)  -->
<svg version="1.1" id="Livello_1" xmlns="http://www.w3.org/2000/svg" xmlns:xlink="http://www.w3.org/1999/xlink" x="0px" y="0px"
	 viewBox="0 0 383 383" style="enable-background:new 0 0 383 383;" xml:space="preserve">
<style type="text/css">
	.st0{fill:url(#SVGID_1_);}
	.st1{fill:#00396A;}
	.st2{fill:url(#SVGID_2_);}
</style>
<g>
	<linearGradient id="SVGID_1_" gradientUnits="userSpaceOnUse" x1="191.5" y1="498.8657" x2="191.5" y2="49.8058">
		<stop  offset="0" style="stop-color:#C8C8C8"/>
		<stop  offset="1" style="stop-color:#FFFFFF"/>
	</linearGradient>
	<path class="st0" d="M319.4,343.5H63.6c-13.3,0-24-10.8-24-24V63.6c0-13.3,10.8-24,24-24h255.9c13.3,0,24,10.8,24,24v255.9
		C343.5,332.7,332.7,343.5,319.4,343.5z"/>
	<path class="st1" d="M269.5,111.4H109.9c-11.1,0-20,9-20,20v120c0,11,8.9,20,20,20h159.5c11,0,20-9,20-20v-120
		C289.5,120.4,280.5,111.4,269.5,111.4z M220.8,247.5H163c-14.8,0-26.7-11.9-26.7-26.7c0-13.8,10.4-25.1,23.8-26.5h1.4
		c5-10.6,15.6-18,28.1-18c15.6,0,28.5,11.6,30.7,26.7h0.4c12.3,0,22.2,10,22.2,22.2C243,237.6,233.1,247.5,220.8,247.5z
		 M269.5,158.2H109.9v-26.8h159.5V158.2z"/>
	<linearGradient id="SVGID_2_" gradientUnits="userSpaceOnUse" x1="192.4865" y1="191.5" x2="343.0216" y2="191.5">
		<stop  offset="0" style="stop-color:#0072BF"/>
		<stop  offset="1" style="stop-color:#00AA9D"/>
	</linearGradient>
	<path class="st2" d="M319.4,39.5h-2.3l-63.3,213.6l-6.3,28.5l0,0l-2.3-10.2h-52.6l23.8,72.2h31.1h0h0h5h26.1l64.8-196.3V63.6
		C343.5,50.3,332.7,39.5,319.4,39.5z"/>
</g>
</svg>
