<?xml version="1.0" encoding="utf-8"?>
<!-- Generator: Adobe Illustrator 23.0.3, SVG Export Plug-In . SVG Version: 6.00 Build 0)  -->
<svg version="1.1" id="Capa_1" xmlns="http://www.w3.org/2000/svg" xmlns:xlink="http://www.w3.org/1999/xlink" x="0px" y="0px"
	 viewBox="0 0 24 24" style="enable-background:new 0 0 24 24;" xml:space="preserve">
<path d="M13.8,10.5h0.5V9.2c3.2,0.8,5.7,3.3,6.5,6.5H19v4.7h4.7v-4.7h-1.4c-0.4-1.9-1.4-3.7-2.9-5.2l0,0c-0.7-0.7-1.4-1.2-2.2-1.7
	h1.8c0.3,1,1.2,1.7,2.3,1.7c1.3,0,2.4-1.1,2.4-2.4s-1.1-2.4-2.4-2.4c-1.1,0-2,0.7-2.3,1.7h-4.8V5.8H9.6v1.7H4.8
	c-0.3-1-1.2-1.7-2.3-1.7c-1.3,0-2.4,1.1-2.4,2.4s1.1,2.4,2.4,2.4c1.1,0,2-0.7,2.3-1.7h1.8c-0.8,0.5-1.5,1-2.2,1.7
	C3,12,2.1,13.8,1.6,15.7H0.2v4.7H5v-4.7H3.1C4,12.5,6.5,10,9.6,9.2v1.3h0.5L13.8,10.5z"/>
</svg>
