<?xml version="1.0" encoding="UTF-8"?>
<svg width="24px" height="24px" viewBox="0 0 24 24" version="1.1" xmlns="http://www.w3.org/2000/svg" xmlns:xlink="http://www.w3.org/1999/xlink">
    <title>File_compressi_icon</title>
    <g id="Page-1" stroke="none" stroke-width="1" fill="none" fill-rule="evenodd">
        <g id="File_compressi_icon">
            <rect id="Rectangle" x="0" y="0" width="24" height="24"></rect>
            <g id="Group-4" transform="translate(4.000000, 2.000000)">
                <path d="M0.00990234375,1.95 L0,17.55 C0,18.6225 0.881308594,19.5 1.97056641,19.5 L13.8632812,19.5 C14.9525391,19.5 15.84375,18.6225 15.84375,17.55 L15.84375,6.11341467 C15.84375,5.9448946 15.7761313,5.78342154 15.6560494,5.66518715 L10.0859736,0.180804743 C9.96829979,0.0649413301 9.80978255,0 9.64464186,0 L1.98046875,0 C0.891210938,0 0.00990234375,0.8775 0.00990234375,1.95 Z" id="Shape" fill="#F7C408"></path>
                <path d="M4.0625,4.875 C3.6131875,4.875 3.25,4.511 3.25,4.0625 C3.25,3.614 3.6131875,3.25 4.0625,3.25 C4.5118125,3.25 4.875,3.614 4.875,4.0625 C4.875,4.511 4.5118125,4.875 4.0625,4.875 M4.875,2.4375 L3.25,2.4375 C2.8006875,2.4375 2.4375,2.8015 2.4375,3.25 L2.4375,5.6875 C2.4375,6.136 2.8006875,6.5 3.25,6.5 L4.875,6.5 C5.3243125,6.5 5.6875,6.136 5.6875,5.6875 L5.6875,3.25 C5.6875,2.8015 5.3243125,2.4375 4.875,2.4375 M3.25,13.8125 C2.8006875,13.8125 2.4375,14.1765 2.4375,14.625 C2.4375,15.0735 2.8006875,15.4375 3.25,15.4375 C3.6993125,15.4375 4.0625,15.0735 4.0625,14.625 C4.0625,14.1765 3.6993125,13.8125 3.25,13.8125 M4.875,15.4375 C4.4256875,15.4375 4.0625,15.8015 4.0625,16.25 C4.0625,16.6985 4.4256875,17.0625 4.875,17.0625 C5.3243125,17.0625 5.6875,16.6985 5.6875,16.25 C5.6875,15.8015 5.3243125,15.4375 4.875,15.4375 M4.875,12.1875 C4.4256875,12.1875 4.0625,12.5515 4.0625,13 C4.0625,13.4485 4.4256875,13.8125 4.875,13.8125 C5.3243125,13.8125 5.6875,13.4485 5.6875,13 C5.6875,12.5515 5.3243125,12.1875 4.875,12.1875 M3.25,8.9375 C3.6993125,8.9375 4.0625,8.5735 4.0625,8.125 C4.0625,7.6765 3.6993125,7.3125 3.25,7.3125 C2.8006875,7.3125 2.4375,7.6765 2.4375,8.125 C2.4375,8.5735 2.8006875,8.9375 3.25,8.9375 M3.25,12.1875 C3.6993125,12.1875 4.0625,11.8235 4.0625,11.375 C4.0625,10.9265 3.6993125,10.5625 3.25,10.5625 C2.8006875,10.5625 2.4375,10.9265 2.4375,11.375 C2.4375,11.8235 2.8006875,12.1875 3.25,12.1875 M4.875,8.9375 C4.4256875,8.9375 4.0625,9.3015 4.0625,9.75 C4.0625,10.1985 4.4256875,10.5625 4.875,10.5625 C5.3243125,10.5625 5.6875,10.1985 5.6875,9.75 C5.6875,9.3015 5.3243125,8.9375 4.875,8.9375" id="Shape" fill="#FFFFFF" fill-rule="nonzero"></path>
            </g>
        </g>
    </g>
</svg>