<svg xmlns="http://www.w3.org/2000/svg" xmlns:xlink="http://www.w3.org/1999/xlink" width="110" height="51" version="1.1"><rect id="backgroundrect" width="100%" height="100%" x="0" y="0" fill="none" stroke="none"/>
    <title>vpec-principale-negativo</title>
    
<g class="currentLayer" style=""><title>Layer 1</title><g id="Page-1" stroke="none" stroke-width="1" fill="#00396a" fill-rule="evenodd" class="selected" fill-opacity="1">
        <g id="vpec-principale-negativo" fill="#00396a" fill-rule="nonzero">
            <g id="Group" fill="#00396a">
                <path d="M27.71506848335266,1.5 C30.115068483352662,2.4 31.71506848335266,4 32.81506848335266,6.2 C33.81506848335266,8.4 34.31506848335266,11.6 34.31506848335266,15.7 C34.31506848335266,19.8 33.81506848335266,23 32.81506848335266,25.2 C31.81506848335266,27.4 30.21506848335266,29 28.01506848335266,29.9 C25.81506848335266,30.8 22.71506848335266,31.3 18.81506848335266,31.3 C15.315068483352661,31.3 12.115068483352662,31.1 8.91506848335266,30.7 L8.91506848335266,49.1 L0.11506848335266118,49.1 L0.11506848335266118,0.8 C2.815068483352661,0.5 5.2150684833526615,0.30000000000000004 7.615068483352662,0.30000000000000004 C9.91506848335266,0.2 13.315068483352661,0.2 17.615068483352662,0.2 C22.01506848335266,0.1 25.31506848335266,0.6000000000000001 27.71506848335266,1.5 zM22.31506848335266,23.3 C23.415068483352663,22.8 24.21506848335266,22 24.71506848335266,20.8 C25.21506848335266,19.6 25.415068483352663,17.9 25.415068483352663,15.7 C25.415068483352663,13.5 25.21506848335266,11.7 24.71506848335266,10.6 C24.21506848335266,9.5 23.415068483352663,8.6 22.31506848335266,8.1 C21.21506848335266,7.6 19.615068483352662,7.4 17.51506848335266,7.4 C13.41506848335266,7.4 10.615068483352662,7.4 9.01506848335266,7.5 L9.01506848335266,24.2 L17.51506848335266,24.2 C19.615068483352662,24 21.21506848335266,23.8 22.31506848335266,23.3 z" id="Shape" fill="#00396a"/>
                <path d="M70.31506848335266,42 L70.71506848335267,48.7 C67.91506848335266,48.9 64.91506848335266,49.1 61.61506848335266,49.2 C58.31506848335266,49.3 54.31506848335266,49.3 49.41506848335266,49.3 C46.21506848335266,49.3 43.71506848335266,48.5 41.91506848335266,46.8 C40.11506848335266,45.2 39.11506848335266,42.9 39.11506848335266,40.1 L39.11506848335266,9.8 C39.11506848335266,7 40.11506848335266,4.7 41.91506848335266,3.1 C43.71506848335266,1.5 46.31506848335266,0.6000000000000001 49.41506848335266,0.6000000000000001 C54.31506848335266,0.6000000000000001 58.31506848335266,0.6000000000000001 61.61506848335266,0.7000000000000001 C64.91506848335266,0.8 67.91506848335266,0.9 70.71506848335267,1.2 L70.31506848335266,7.9 L51.41506848335266,7.9 C50.11506848335266,7.9 49.21506848335266,8.2 48.71506848335266,8.8 C48.21506848335266,9.4 47.91506848335266,10.5 47.91506848335266,12 L47.91506848335266,20.5 L67.71506848335267,20.5 L67.71506848335267,27.2 L47.91506848335266,27.2 L47.91506848335266,38 C47.91506848335266,39.5 48.21506848335266,40.5 48.71506848335266,41.2 C49.21506848335266,41.8 50.11506848335266,42.1 51.41506848335266,42.1 L70.31506848335266,42.1 L70.31506848335266,42 L70.31506848335266,42 z" id="Path" fill="#00396a"/>
                <path d="M101.71506848335267,0.30000000000000004 C103.71506848335267,0.5 105.71506848335267,0.9 107.91506848335266,1.5 L107.11506848335266,8.2 C103.01506848335266,7.9 98.71506848335267,7.7 94.11506848335266,7.7 C91.41506848335266,7.7 89.31506848335266,8.2 87.81506848335266,9.3 C86.31506848335266,10.4 85.21506848335267,12.1 84.61506848335266,14.6 C84.01506848335266,17.1 83.71506848335267,20.6 83.71506848335267,25 C83.71506848335267,29.4 84.01506848335266,33 84.61506848335266,35.4 C85.21506848335267,37.9 86.31506848335266,39.6 87.81506848335266,40.7 C89.31506848335266,41.8 91.41506848335266,42.3 94.11506848335266,42.3 C97.31506848335266,42.3 100.01506848335266,42.3 102.01506848335266,42.2 C104.11506848335266,42.1 106.11506848335266,41.9 108.11506848335266,41.6 L108.91506848335266,48.2 C106.81506848335266,48.9 104.61506848335266,49.3 102.41506848335266,49.6 C100.21506848335267,49.9 97.41506848335266,50 94.11506848335266,50 C89.21506848335267,50 85.31506848335266,49.2 82.51506848335266,47.6 C79.71506848335267,46 77.61506848335266,43.4 76.31506848335266,39.8 C75.01506848335266,36.2 74.41506848335266,31.3 74.41506848335266,25.1 C74.41506848335266,18.9 75.01506848335266,14 76.31506848335266,10.4 C77.61506848335266,6.8 79.61506848335266,4.2 82.51506848335266,2.6 C85.31506848335266,1 89.21506848335267,0.2 94.11506848335266,0.2 C97.11506848335266,-0.1 99.71506848335267,0 101.71506848335267,0.30000000000000004 z" id="Path" transform="" fill="#00396a"/>
            </g>
        </g>
    </g></g></svg>