<?xml version="1.0" encoding="iso-8859-1"?>
<!-- Generator: Adobe Illustrator 18.0.0, SVG Export Plug-In . SVG Version: 6.00 Build 0)  -->
<!DOCTYPE svg PUBLIC "-//W3C//DTD SVG 1.1//EN" "http://www.w3.org/Graphics/SVG/1.1/DTD/svg11.dtd">
<svg version="1.1" xmlns="http://www.w3.org/2000/svg" xmlns:xlink="http://www.w3.org/1999/xlink" x="0px" y="0px" viewBox="0 0 1000 1000" enable-background="new 0 0 1000 1000" xml:space="preserve">
<metadata> Svg Vector Icons : http://www.onlinewebfonts.com/icon </metadata>
<g><g transform="translate(0.000000,511.000000) scale(0.100000,-0.100000)">
<path style="fill:#ffffff" fill="#fff"   d="M655.3,4630.7c-211.3-43.5-422.7-223.8-507.6-428.9L100,4081.7V797.8v-3283.9l68.4-138.8c76.7-157.5,176.1-248.6,335.6-308.7c101.5-37.3,236.2-39.4,4496-39.4h4390.3l118.1,43.5c140.9,53.9,267.3,172,339.8,319.1l51.8,103.6V797.8v3304.6l-68.4,138.8c-78.7,159.5-190.6,269.3-354.3,346l-116,53.9l-4309.5,2.1C2681.6,4645.2,702.9,4639,655.3,4630.7z M9286.7,4017.5c43.5-55.9,43.5-55.9,43.5-2710c0-2370.2-4.2-2660.3-33.1-2701.7l-31.1-45.6h-984.2h-982.1v205.1c0,509.7-116,694.1-634,1000.7c-296.3,176.1-835,459.9-847.4,447.5c-4.2-4.1-103.6-308.7-219.6-675.4c-118.1-366.7-217.6-667.1-223.8-667.1c-8.3,0-68.4,155.4-134.7,346l-122.2,346l37.3,62.2c140.9,242.4,172,350.2,126.4,453.8c-39.4,97.4-134.7,145-283.8,145c-186.5-2.1-308.7-91.2-308.7-223.7c2.1-74.6,78.7-269.3,143-360.5l47.7-66.3l-118.1-335.6c-64.2-184.4-122.2-348.1-130.5-360.5c-10.4-14.5-111.9,273.5-230,652.6c-118.1,372.9-217.5,681.7-221.7,685.8c-10.4,10.4-580.1-290.1-857.8-453.7c-323.2-192.7-491-350.2-557.3-528.3c-47.7-126.4-85-372.9-85-565.6v-107.7l-977.9,4.1l-977.9,6.2l-26.9,51.8c-20.7,41.4-24.9,592.6-20.7,2705.9c4.1,2579.5,6.2,2658.2,43.5,2699.7l39.4,43.5h4243.2h4243.2L9286.7,4017.5z M5509.7-2067.6c41.4-37.3,58-72.5,66.3-155.4c8.3-97.4,4.2-111.9-53.9-169.9l-62.2-62.2h-464.1c-329.4,2.1-472.4,8.3-495.2,26.9c-53.9,41.4-80.8,109.8-80.8,201c0,68.4,12.4,99.4,60.1,147.1l60.1,60.1h457.9C5443.4-2020,5453.7-2020,5509.7-2067.6z"/><path style="fill:#ffffff" fill="#fff"  d="M4747.2,3377.3c-296.3-60.1-549-248.6-675.4-501.4c-95.3-184.4-128.5-339.8-143-652.6c-39.4-857.8,242.4-1408.9,791.5-1549.8c190.6-47.7,321.1-51.8,509.7-12.4c422.7,91.2,675.4,385.4,799.8,932.3c43.5,188.5,47.7,774.9,8.3,955.1c-93.2,420.6-319.1,685.8-681.6,797.7C5178.2,3402.1,4923.3,3414.5,4747.2,3377.3z"/><path style="fill:#ffffff" fill="#fff"  d="M3674-3515.9c-145-169.9-379.2-285.9-698.2-348.1c-246.6-47.6-314.9-95.3-346-242.4c-10.4-45.6-4.2-93.2,24.9-157.5c76.7-172-95.3-159.5,2351.6-159.5h2163l70.4,47.7c45.6,31.1,80.8,78.7,101.5,134.7c26.9,76.7,26.9,97.4,0,174c-41.4,116-122.2,167.8-312.9,201c-300.4,53.9-542.8,172-700.3,346l-84.9,91.2l-1249.3-2.1l-1247.3-2.1L3674-3515.9z"/></g></g>
</svg>
