<?xml version="1.0" encoding="utf-8"?>
<!-- Svg Vector Icons : http://www.onlinewebfonts.com/icon -->
<!DOCTYPE svg PUBLIC "-//W3C//DTD SVG 1.1//EN" "http://www.w3.org/Graphics/SVG/1.1/DTD/svg11.dtd">
<svg version="1.1" xmlns="http://www.w3.org/2000/svg" xmlns:xlink="http://www.w3.org/1999/xlink" x="0px" y="0px" viewBox="0 0 1000 1000" enable-background="new 0 0 1000 1000" xml:space="preserve">
<metadata> Svg Vector Icons : http://www.onlinewebfonts.com/icon </metadata>
<g><g><g><path d="M898.7,300.7H755.3V10H244.7v290.7H101.3c-27.3,0-49.4,22.1-49.4,49.4v349.3c0,27.3,22.1,49.4,49.4,49.4h112.8V668h30.6v322h510.6V668h30.6v80.8h112.8c27.3,0,49.4-22.1,49.4-49.4V350C948.1,322.8,926,300.7,898.7,300.7z M704.5,862L647,939.2H295.5V668h409V862z M704.5,300.7h-409V60.8h409V300.7z"/><rect x="356.6" y="716.8" width="296.6" height="50.8"/><rect x="356.6" y="820.6" width="296.6" height="50.8"/></g></g><g></g><g></g><g></g><g></g><g></g><g></g><g></g><g></g><g></g><g></g><g></g><g></g><g></g><g></g><g></g></g>
</svg>