<?xml version="1.0" encoding="UTF-8"?>
<svg width="356px" height="215px" viewBox="0 0 356 215" version="1.1" xmlns="http://www.w3.org/2000/svg" xmlns:xlink="http://www.w3.org/1999/xlink">
    <title>label_pec_blu</title>
    <g id="label_pec_blu" stroke="none" stroke-width="1" fill="none" fill-rule="evenodd">
        <g id="Mail" transform="translate(12.199950, 32.931034)" fill="#00396A" fill-rule="nonzero">
            <polygon id="Path" points="34.9811422 7.13900862 68.3560075 101.373922 101.552398 7.13900862 136.712015 7.13900862 136.712015 137.068966 109.851495 137.068966 109.851495 101.552398 112.528623 40.2461611 77.4582435 137.068966 59.0752963 137.068966 24.0941541 40.3353987 26.7712823 101.552398 26.7712823 137.068966 0 137.068966 0 7.13900862"></polygon>
            <path d="M214.348734,137.068966 C213.158899,134.748788 212.296269,131.863438 211.760843,128.412918 C205.514211,135.373451 197.393588,138.853718 187.398976,138.853718 C177.93979,138.853718 170.101753,136.117098 163.884867,130.643858 C157.66798,125.170618 154.559537,118.269576 154.559537,109.940733 C154.559537,99.7081537 158.352135,91.8552443 165.937332,86.3820043 C173.522528,80.9087644 184.483881,78.1423985 198.82139,78.0829068 L210.689992,78.0829068 L210.689992,72.5501751 C210.689992,68.0882947 209.544776,64.5187904 207.254344,61.8416622 C204.963912,59.1645339 201.349789,57.8259698 196.411975,57.8259698 C192.069078,57.8259698 188.663176,58.8670753 186.194269,60.9492861 C183.725361,63.0314969 182.490908,65.8871004 182.490908,69.5160964 L156.701239,69.5160964 C156.701239,63.923873 158.4265,58.7480918 161.87702,53.9887527 C165.327541,49.2294136 170.205864,45.496307 176.511988,42.7894329 C182.818112,40.0825588 189.897629,38.7291218 197.750539,38.7291218 C209.648886,38.7291218 219.0932,41.7185816 226.083479,47.6975013 C233.073759,53.6764211 236.568898,62.0796291 236.568898,72.9071255 L236.568898,114.759564 C236.62839,123.921291 237.907462,130.852079 240.406115,135.551926 L240.406115,137.068966 L214.348734,137.068966 Z M193.020946,119.132206 C196.828417,119.132206 200.338429,118.284449 203.550983,116.588935 C206.763537,114.89342 209.143207,112.617861 210.689992,109.762258 L210.689992,93.1640625 L201.05233,93.1640625 C188.142623,93.1640625 181.271327,97.6259429 180.438443,106.549704 L180.349205,108.066743 C180.349205,111.279297 181.479548,113.926679 183.740234,116.00889 C186.00092,118.091101 189.094491,119.132206 193.020946,119.132206 Z" id="Shape"></path>
            <path d="M283.597117,137.068966 L257.718211,137.068966 L257.718211,40.5138739 L283.597117,40.5138739 L283.597117,137.068966 Z M256.201172,15.5273438 C256.201172,11.6603807 257.495117,8.47757274 260.083008,5.97891972 C262.670898,3.4802667 266.195784,2.23094019 270.657664,2.23094019 C275.060053,2.23094019 278.570066,3.4802667 281.187702,5.97891972 C283.805339,8.47757274 285.114157,11.6603807 285.114157,15.5273438 C285.114157,19.4537985 283.790466,22.6663524 281.143083,25.1650054 C278.495701,27.6636584 275.000561,28.9129849 270.657664,28.9129849 C266.314767,28.9129849 262.819628,27.6636584 260.172245,25.1650054 C257.524863,22.6663524 256.201172,19.4537985 256.201172,15.5273438 Z" id="Shape"></path>
            <polygon id="Path" points="332.053138 137.068966 306.174232 137.068966 306.174232 0 332.053138 0"></polygon>
        </g>
    </g>
</svg>