<?xml version="1.0" encoding="UTF-8"?>
<svg width="286px" height="200px" viewBox="0 0 286 200" version="1.1" xmlns="http://www.w3.org/2000/svg" xmlns:xlink="http://www.w3.org/1999/xlink">
    <title>logo_share</title>
    <g id="logo_share" stroke="none" stroke-width="1" fill="none" fill-rule="evenodd">
        <path d="M259.803813,28.818033 L144.650864,28.818033 L121.694328,1.38422968 C120.953794,0.391150833 119.719572,-0.105388593 118.608772,0.0187462635 L25.6718257,0.0187462635 C11.4782682,0.14288112 1.42108547e-13,11.6874228 1.42108547e-13,25.9629313 L1.42108547e-13,111.740117 C12.8359129,88.6510338 37.3969385,72.885907 65.6606312,72.885907 L79.1136553,72.885907 L79.1136553,31.4248649 L142.058997,100.940385 L79.1136553,170.455904 L79.1136553,128.870727 L75.2875659,128.870727 C47.0238731,128.870727 19.9944027,140.166999 1.42108547e-13,160.152711 L1.42108547e-13,174.055815 C1.42108547e-13,188.331323 11.6016905,200 25.795248,200 L259.803813,200 C273.997371,200 285.599061,188.331323 285.599061,174.055815 L285.599061,54.762218 C285.599061,40.3625746 273.997371,28.818033 259.803813,28.818033 Z" id="Path" fill="#000000" fill-rule="nonzero"></path>
    </g>
</svg>