<?xml version="1.0" encoding="UTF-8"?>
<svg width="345px" height="91px" viewBox="0 0 345 91" version="1.1" xmlns="http://www.w3.org/2000/svg" xmlns:xlink="http://www.w3.org/1999/xlink">
    <title>notbox_label</title>
    <g id="notbox_label" stroke="none" stroke-width="1" fill="none" fill-rule="evenodd">
        <g id="notbox" transform="translate(0.042061, 0.892106)" fill="#010000" fill-rule="nonzero">
            <path d="M2.27373675e-13,24.70736 L4.6943984,24.70736 L4.6943984,38.296408 L4.941472,38.296408 C5.76505067,35.9080299 6.93865027,33.7873148 8.4622708,31.9342628 C9.98589133,30.0812108 11.7565855,28.4958219 13.7743532,27.178096 C15.7921209,25.8603701 17.9951939,24.8720757 20.383572,24.2132128 C22.7719501,23.5543499 25.2015072,23.2249184 27.6722432,23.2249184 C31.3783472,23.2249184 34.5285356,23.6778867 37.1228084,24.5838232 C39.7170812,25.4897597 41.8377963,26.6839488 43.4849536,28.1663904 C45.1321109,29.648832 46.4292473,31.3165788 47.3763628,33.1696308 C48.3234783,35.0226828 49.0029307,36.8963243 49.41472,38.7905552 C49.8265093,40.6847861 50.0735829,42.5172487 50.1559408,44.2879428 C50.2382987,46.0586369 50.2794776,47.6028469 50.2794776,48.9205728 L50.2794776,88.2052752 L45.5850792,88.2052752 L45.5850792,48.0558152 C45.5850792,46.4910157 45.4615424,44.5144269 45.2144688,42.1260488 C44.9673952,39.7376707 44.2467639,37.4522399 43.0525748,35.2697564 C41.8583857,33.0872729 40.0465127,31.2136315 37.6169556,29.648832 C35.1873985,28.0840325 31.8313155,27.3016328 27.5487064,27.3016328 C23.9249603,27.3016328 20.7130035,27.9604957 17.912836,29.2782216 C15.1126685,30.5959475 12.7242904,32.42841 10.7477016,34.7756092 C8.7711128,37.1228084 7.26808173,39.9229759 6.2386084,43.1761116 C5.20913507,46.4292473 4.6943984,49.9912251 4.6943984,53.8620448 L4.6943984,88.2052752 L2.27373675e-13,88.2052752 L2.27373675e-13,24.70736 Z" id="Path"></path>
            <path d="M61.150716,56.4563176 C61.150716,51.9266349 61.7889895,47.6646153 63.0655364,43.6702588 C64.3420833,39.6759023 66.2157248,36.1551035 68.6864608,33.1078624 C71.1571968,30.0606213 74.2044379,27.6516537 77.828184,25.8809596 C81.4519301,24.1102655 85.6110024,23.2249184 90.3054008,23.2249184 C94.9997992,23.2249184 99.1588715,24.1102655 102.782618,25.8809596 C106.406364,27.6516537 109.453605,30.0606213 111.924341,33.1078624 C114.395077,36.1551035 116.268718,39.6759023 117.545265,43.6702588 C118.821812,47.6646153 119.460086,51.9266349 119.460086,56.4563176 C119.460086,60.9860003 118.821812,65.2686093 117.545265,69.3041448 C116.268718,73.3396803 114.395077,76.8604791 111.924341,79.8665412 C109.453605,82.8726033 106.406364,85.2609815 102.782618,87.0316756 C99.1588715,88.8023697 94.9997992,89.6877168 90.3054008,89.6877168 C85.6110024,89.6877168 81.4519301,88.8023697 77.828184,87.0316756 C74.2044379,85.2609815 71.1571968,82.8726033 68.6864608,79.8665412 C66.2157248,76.8604791 64.3420833,73.3396803 63.0655364,69.3041448 C61.7889895,65.2686093 61.150716,60.9860003 61.150716,56.4563176 Z M65.8451144,56.4563176 C65.8451144,60.2447795 66.3804405,63.8891151 67.4510928,67.3893244 C68.5217451,70.8895337 70.0865445,73.9985432 72.1454912,76.7163528 C74.2044379,79.4341624 76.7575317,81.5960564 79.8047728,83.2020348 C82.8520139,84.8080132 86.3522232,85.6110024 90.3054008,85.6110024 C94.2585784,85.6110024 97.7587877,84.8080132 100.806029,83.2020348 C103.85327,81.5960564 106.406364,79.4341624 108.46531,76.7163528 C110.524257,73.9985432 112.089057,70.8895337 113.159709,67.3893244 C114.230361,63.8891151 114.765687,60.2447795 114.765687,56.4563176 C114.765687,52.6678557 114.230361,49.0235201 113.159709,45.5233108 C112.089057,42.0231015 110.524257,38.914092 108.46531,36.1962824 C106.406364,33.4784728 103.85327,31.3165788 100.806029,29.7106004 C97.7587877,28.104622 94.2585784,27.3016328 90.3054008,27.3016328 C86.3522232,27.3016328 82.8520139,28.104622 79.8047728,29.7106004 C76.7575317,31.3165788 74.2044379,33.4784728 72.1454912,36.1962824 C70.0865445,38.914092 68.5217451,42.0231015 67.4510928,45.5233108 C66.3804405,49.0235201 65.8451144,52.6678557 65.8451144,56.4563176 Z" id="Shape"></path>
            <path d="M153.803316,28.7840744 L139.967194,28.7840744 L139.967194,73.1337856 C139.967194,75.6868795 140.255447,77.7046472 140.831952,79.1870888 C141.408457,80.6695304 142.293804,81.8019511 143.487993,82.5843508 C144.682182,83.3667505 146.123445,83.8403083 147.811781,84.005024 C149.500117,84.1697397 151.456117,84.2109187 153.679779,84.1285608 L153.679779,88.2052752 C151.291401,88.3699909 148.964791,88.3494015 146.69995,88.1435068 C144.435109,87.9376121 142.43793,87.3199281 140.708415,86.2904548 C138.9789,85.2609815 137.599406,83.7167715 136.569932,81.6578248 C135.540459,79.5988781 135.10808,76.7575317 135.272796,73.1337856 L135.272796,28.7840744 L123.5368,28.7840744 L123.5368,24.70736 L135.272796,24.70736 L135.272796,4.941472 L139.967194,4.941472 L139.967194,24.70736 L153.803316,24.70736 L153.803316,28.7840744 Z" id="Path"></path>
            <path d="M163.562723,0 L168.257122,0 L168.257122,38.1728712 L168.504195,38.1728712 C169.410132,35.7021352 170.686679,33.5402412 172.333836,31.6871892 C173.980993,29.8341372 175.875224,28.2693377 178.016529,26.9927908 C180.157833,25.7162439 182.463854,24.7691284 184.93459,24.1514444 C187.405326,23.5337604 189.958419,23.2249184 192.593871,23.2249184 C197.28827,23.2249184 201.344395,24.0484971 204.762246,25.6956544 C208.180097,27.3428117 211.042033,29.6076531 213.348054,32.4901784 C215.654074,35.3727037 217.363,38.7287868 218.474831,42.5584276 C219.586662,46.3880684 220.142578,50.5265512 220.142578,54.973876 C220.142578,62.5507997 219.113104,68.6246924 217.054158,73.195554 C214.995211,77.7664156 212.524475,81.2666249 209.64195,83.696182 C206.759424,86.1257391 203.753362,87.7317175 200.623763,88.5141172 C197.494164,89.2965169 194.817534,89.6877168 192.593871,89.6877168 C188.39362,89.6877168 184.831642,89.0288539 181.907938,87.711128 C178.984234,86.3934021 176.575266,84.8491921 174.681035,83.078498 C172.786804,81.3078039 171.345542,79.5576992 170.357247,77.828184 C169.368953,76.0986688 168.751269,74.8221219 168.504195,73.9985432 L168.257122,73.9985432 L168.257122,88.2052752 L163.562723,88.2052752 L163.562723,0 Z M192.593871,85.6110024 C196.794122,85.6110024 200.335511,84.7050659 203.218036,82.8931928 C206.100561,81.0813197 208.447761,78.7135311 210.259634,75.7898268 C212.071507,72.8661225 213.389233,69.5718079 214.212811,65.9068828 C215.03639,62.2419577 215.448179,58.5976221 215.448179,54.973876 C215.448179,51.4324877 214.974621,48.0146363 214.027506,44.7203216 C213.080391,41.4260069 211.639128,38.4817132 209.703718,35.8874404 C207.768308,33.2931676 205.37993,31.2136315 202.538584,29.648832 C199.697237,28.0840325 196.382333,27.3016328 192.593871,27.3016328 C188.475978,27.3016328 184.893411,28.0016747 181.84617,29.4017584 C178.798929,30.8018421 176.287014,32.737252 174.310425,35.207988 C172.333836,37.678724 170.851394,40.6024283 169.8631,43.9791008 C168.874806,47.3557733 168.380658,51.0206984 168.380658,54.973876 C168.380658,58.8446957 168.833627,62.6331576 169.739563,66.3392616 C170.6455,70.0453656 172.066173,73.3190908 174.001583,76.1604372 C175.936993,79.0017836 178.428318,81.2872144 181.475559,83.0167296 C184.5228,84.7462448 188.228904,85.6110024 192.593871,85.6110024 Z" id="Shape"></path>
            <path d="M228.17247,56.4563176 C228.17247,51.9266349 228.810743,47.6646153 230.08729,43.6702588 C231.363837,39.6759023 233.237478,36.1551035 235.708214,33.1078624 C238.17895,30.0606213 241.226191,27.6516537 244.849938,25.8809596 C248.473684,24.1102655 252.632756,23.2249184 257.327154,23.2249184 C262.021553,23.2249184 266.180625,24.1102655 269.804371,25.8809596 C273.428117,27.6516537 276.475358,30.0606213 278.946094,33.1078624 C281.41683,36.1551035 283.290472,39.6759023 284.567019,43.6702588 C285.843566,47.6646153 286.481839,51.9266349 286.481839,56.4563176 C286.481839,60.9860003 285.843566,65.2686093 284.567019,69.3041448 C283.290472,73.3396803 281.41683,76.8604791 278.946094,79.8665412 C276.475358,82.8726033 273.428117,85.2609815 269.804371,87.0316756 C266.180625,88.8023697 262.021553,89.6877168 257.327154,89.6877168 C252.632756,89.6877168 248.473684,88.8023697 244.849938,87.0316756 C241.226191,85.2609815 238.17895,82.8726033 235.708214,79.8665412 C233.237478,76.8604791 231.363837,73.3396803 230.08729,69.3041448 C228.810743,65.2686093 228.17247,60.9860003 228.17247,56.4563176 Z M232.866868,56.4563176 C232.866868,60.2447795 233.402194,63.8891151 234.472846,67.3893244 C235.543499,70.8895337 237.108298,73.9985432 239.167245,76.7163528 C241.226191,79.4341624 243.779285,81.5960564 246.826526,83.2020348 C249.873767,84.8080132 253.373977,85.6110024 257.327154,85.6110024 C261.280332,85.6110024 264.780541,84.8080132 267.827782,83.2020348 C270.875023,81.5960564 273.428117,79.4341624 275.487064,76.7163528 C277.546011,73.9985432 279.11081,70.8895337 280.181462,67.3893244 C281.252115,63.8891151 281.787441,60.2447795 281.787441,56.4563176 C281.787441,52.6678557 281.252115,49.0235201 280.181462,45.5233108 C279.11081,42.0231015 277.546011,38.914092 275.487064,36.1962824 C273.428117,33.4784728 270.875023,31.3165788 267.827782,29.7106004 C264.780541,28.104622 261.280332,27.3016328 257.327154,27.3016328 C253.373977,27.3016328 249.873767,28.104622 246.826526,29.7106004 C243.779285,31.3165788 241.226191,33.4784728 239.167245,36.1962824 C237.108298,38.914092 235.543499,42.0231015 234.472846,45.5233108 C233.402194,49.0235201 232.866868,52.6678557 232.866868,56.4563176 Z" id="Shape"></path>
            <polygon id="Path" points="313.289325 54.8503392 290.064406 24.70736 296.611857 24.70736 316.501282 51.267772 336.514243 24.70736 342.567546 24.70736 319.589702 54.8503392 344.667672 88.2052752 338.243758 88.2052752 316.501282 58.4329064 294.264658 88.2052752 288.334891 88.2052752"></polygon>
        </g>
    </g>
</svg>