<?xml version="1.0" encoding="UTF-8"?>
<svg width="478px" height="215px" viewBox="0 0 478 215" version="1.1" xmlns="http://www.w3.org/2000/svg" xmlns:xlink="http://www.w3.org/1999/xlink">
    <title>share_label</title>
    <g id="share_label" stroke="none" stroke-width="1" fill="none" fill-rule="evenodd">
        <g id="Share-Copy" transform="translate(6.756456, 32.931034)" fill="#000000" fill-rule="nonzero">
            <path d="M72.8178879,102.980199 C72.8178879,97.9234016 71.0331358,94.0415656 67.4636315,91.3346915 C63.8941272,88.6278174 57.4690194,85.772214 48.1883082,82.7678812 C38.907597,79.7635484 31.5603673,76.8038344 26.1466191,73.8887392 C11.3926679,65.9168463 4.01569235,55.1785875 4.01569235,41.6739628 C4.01569235,34.6539377 5.99379265,28.3924322 9.94999327,22.8894464 C13.9061939,17.3864606 19.5876549,13.0881825 26.9943763,9.99461207 C34.4010978,6.90104167 42.7150682,5.35425647 51.9362877,5.35425647 C61.2169989,5.35425647 69.4863506,7.03489808 76.7443427,10.3961813 C84.0023348,13.7574645 89.639177,18.5019307 93.6548693,24.6295797 C97.6705617,30.7572288 99.6784079,37.7177622 99.6784079,45.51118 L72.9071255,45.51118 C72.9071255,39.5620061 71.0331358,34.9365234 67.2851562,31.634732 C63.5371767,28.3329405 58.2721579,26.6820447 51.4900997,26.6820447 C44.9460084,26.6820447 39.8594648,28.0652276 36.2304688,30.8315935 C32.6014727,33.5979593 30.7869747,37.2418283 30.7869747,41.7632004 C30.7869747,45.9871139 32.9138043,49.5268723 37.1674636,52.3824758 C41.4211229,55.2380792 47.6826284,57.9152074 55.9519801,60.4138605 C71.1818651,64.9947243 82.2770744,70.6761853 89.2376078,77.4582435 C96.1981412,84.2403017 99.6784079,92.6881286 99.6784079,102.801724 C99.6784079,114.045663 95.4247486,122.865313 86.91743,129.260675 C78.4101114,135.656037 66.9579517,138.853718 52.560951,138.853718 C42.5663389,138.853718 33.4641029,137.024347 25.254243,133.365605 C17.0443831,129.706863 10.7828776,124.694684 6.46972656,118.329068 C2.15657552,111.963452 0,104.586476 0,96.1981412 L26.8605199,96.1981412 C26.8605199,110.53565 35.4273303,117.704405 52.560951,117.704405 C58.926567,117.704405 63.8941272,116.410459 67.4636315,113.822569 C71.0331358,111.234678 72.8178879,107.620555 72.8178879,102.980199 Z" id="Path"></path>
            <path d="M141.263133,51.0439116 C148.104683,42.8340517 156.701239,38.7291218 167.052802,38.7291218 C187.993894,38.7291218 198.613169,50.8951823 198.910628,75.2273033 L198.910628,137.068966 L173.120959,137.068966 L173.120959,75.9412042 C173.120959,70.4084725 171.931124,66.3184155 169.551455,63.6710331 C167.171785,61.0236508 163.215585,59.6999596 157.682853,59.6999596 C150.127402,59.6999596 144.654162,62.6150548 141.263133,68.4452452 L141.263133,137.068966 L115.473464,137.068966 L115.473464,0 L141.263133,0 L141.263133,51.0439116 Z" id="Path"></path>
            <path d="M274.316406,137.068966 C273.126571,134.748788 272.263941,131.863438 271.728516,128.412918 C265.481883,135.373451 257.361261,138.853718 247.366649,138.853718 C237.907462,138.853718 230.069426,136.117098 223.852539,130.643858 C217.635652,125.170618 214.527209,118.269576 214.527209,109.940733 C214.527209,99.7081537 218.319807,91.8552443 225.905004,86.3820043 C233.490201,80.9087644 244.451554,78.1423985 258.789063,78.0829068 L270.657664,78.0829068 L270.657664,72.5501751 C270.657664,68.0882947 269.512448,64.5187904 267.222016,61.8416622 C264.931585,59.1645339 261.317461,57.8259698 256.379647,57.8259698 C252.03675,57.8259698 248.630848,58.8670753 246.161941,60.9492861 C243.693034,63.0314969 242.45858,65.8871004 242.45858,69.5160964 L216.668912,69.5160964 C216.668912,63.923873 218.394172,58.7480918 221.844693,53.9887527 C225.295214,49.2294136 230.173536,45.496307 236.479661,42.7894329 C242.785785,40.0825588 249.865302,38.7291218 257.718211,38.7291218 C269.616559,38.7291218 279.060872,41.7185816 286.051152,47.6975013 C293.041431,53.6764211 296.536571,62.0796291 296.536571,72.9071255 L296.536571,114.759564 C296.596062,123.921291 297.875135,130.852079 300.373788,135.551926 L300.373788,137.068966 L274.316406,137.068966 Z M252.988618,119.132206 C256.796089,119.132206 260.306102,118.284449 263.518656,116.588935 C266.73121,114.89342 269.110879,112.617861 270.657664,109.762258 L270.657664,93.1640625 L261.020003,93.1640625 C248.110295,93.1640625 241.239,97.6259429 240.406115,106.549704 L240.316878,108.066743 C240.316878,111.279297 241.447221,113.926679 243.707907,116.00889 C245.968593,118.091101 249.062163,119.132206 252.988618,119.132206 Z" id="Shape"></path>
            <path d="M370.603785,64.6972656 C367.093772,64.2213317 364.000202,63.9833648 361.323074,63.9833648 C351.566429,63.9833648 345.171067,67.2851562 342.136988,73.8887392 L342.136988,137.068966 L316.34732,137.068966 L316.34732,40.5138739 L340.709186,40.5138739 L341.423087,52.0255253 C346.598869,43.1612563 353.767623,38.7291218 362.929351,38.7291218 C365.784954,38.7291218 368.462082,39.1158181 370.960735,39.8892107 L370.603785,64.6972656 Z" id="Path"></path>
            <path d="M425.752627,138.853718 C411.593593,138.853718 400.067069,134.510821 391.173054,125.825027 C382.279039,117.139233 377.832031,105.56809 377.832031,91.1115975 L377.832031,88.6129445 C377.832031,78.9157911 379.706021,70.2448702 383.454001,62.6001818 C387.20198,54.9554934 392.511618,49.0658113 399.382914,44.9311355 C406.254209,40.7964597 414.092246,38.7291218 422.897023,38.7291218 C436.104189,38.7291218 446.50037,42.8935435 454.085567,51.2223869 C461.670764,59.5512302 465.463362,71.3603403 465.463362,86.6497171 L465.463362,97.1797548 L403.97865,97.1797548 C404.811535,103.485879 407.325061,108.542677 411.519228,112.350148 C415.713396,116.157619 421.023033,118.061355 427.448141,118.061355 C437.383261,118.061355 445.146933,114.462105 450.739157,107.263605 L463.410897,121.452384 C459.543934,126.925624 454.308661,131.194156 447.705078,134.257981 C441.101495,137.321805 433.784011,138.853718 425.752627,138.853718 Z M422.807786,59.610722 C417.691496,59.610722 413.541947,61.3359824 410.359139,64.7865032 C407.176331,68.2370241 405.138739,73.1748384 404.246363,79.5999461 L440.119881,79.5999461 L440.119881,77.5474811 C440.000898,71.8362742 438.454113,67.4190127 435.479526,64.2956964 C432.504939,61.1723801 428.281026,59.610722 422.807786,59.610722 Z" id="Shape"></path>
        </g>
    </g>
</svg>