<?xml version="1.0" encoding="UTF-8"?>
<svg width="92px" height="50px" viewBox="0 0 92 50" version="1.1" xmlns="http://www.w3.org/2000/svg" xmlns:xlink="http://www.w3.org/1999/xlink">
    <title>vcal-principale-negativo</title>
    <g id="Page-1" stroke="none" stroke-width="1" fill="none" fill-rule="evenodd">
        <g id="vcal-principale-negativo" fill="#00396A" fill-rule="nonzero">
            <g id="Group">
                <path d="M27.4,0.3 C29.4,0.5 31.4,0.9 33.6,1.5 L32.8,8.2 C28.7,7.9 24.4,7.7 19.8,7.7 C17.1,7.7 15,8.2 13.5,9.3 C12,10.4 10.9,12.1 10.3,14.6 C9.7,17.1 9.4,20.6 9.4,25 C9.4,29.5 9.7,33 10.3,35.4 C10.9,37.9 12,39.6 13.5,40.7 C15,41.8 17.1,42.3 19.8,42.3 C23,42.3 25.7,42.3 27.7,42.2 C29.8,42.1 31.8,41.9 33.8,41.6 L34.6,48.2 C32.5,48.9 30.3,49.3 28.1,49.6 C25.9,49.9 23.1,50 19.8,50 C14.9,50 11,49.2 8.2,47.6 C5.4,46 3.3,43.4 2,39.8 C0.7,36.2 0.1,31.3 0.1,25.1 C0.1,18.9 0.7,14 2,10.4 C3.3,6.8 5.3,4.2 8.2,2.6 C11,1 14.9,0.2 19.8,0.2 C22.8,-0.1 25.4,0.1 27.4,0.3 Z" id="Path"></path>
                <path d="M65.4,16.5 C67.5,18.3 68.5,21.4 68.5,25.8 L68.5,49.1 L61.8,49.1 L60.9,43.9 C59.4,45.5 57.5,46.9 55.3,48.1 C53.1,49.3 50.6,49.8 47.8,49.8 C44.6,49.8 42,48.9 40,47.2 C38,45.4 37,43 37,39.9 L37,36.4 C37,33.6 37.9,31.5 39.7,30 C41.5,28.5 44,27.8 47.2,27.8 L60,27.8 L60,25.7 C60,24.3 59.8,23.3 59.4,22.7 C59,22 58.4,21.5 57.5,21.3 C56.6,21 55.3,20.9 53.6,20.9 C50,20.9 45.2,21.1 39.2,21.6 L38.4,15.6 C40.9,15.1 43.8,14.7 47.2,14.4 C50.6,14.1 53.4,13.9 55.6,13.9 C60.1,13.8 63.4,14.7 65.4,16.5 Z M46.5,42 C47.2,42.7 48.4,43 49.9,43 C51.3,43 53,42.7 54.8,42 C56.6,41.3 58.3,40.3 60,39 L60,33.7 L49.1,33.7 C47.7,33.7 46.8,34.1 46.3,34.8 C45.8,35.5 45.5,36.4 45.5,37.6 L45.5,38.9 C45.5,40.3 45.8,41.3 46.5,42 Z" id="Shape"></path>
                <path d="M83.6,38.4 C83.6,41.1 85,42.4 87.7,42.4 L90.6,42.4 L91.6,48.7 C90.9,49.1 89.8,49.4 88.3,49.6 C86.8,49.8 85.5,49.9 84.3,49.9 C81.5,49.9 79.2,49.1 77.5,47.4 C75.8,45.8 75,43.5 75,40.5 L75,0.1 L83.5,0.1 L83.6,38.4 Z" id="Path"></path>
            </g>
        </g>
    </g>
</svg>