<?xml version="1.0" encoding="UTF-8"?>
<svg width="245px" height="51px" viewBox="0 0 245 51" version="1.1" xmlns="http://www.w3.org/2000/svg" xmlns:xlink="http://www.w3.org/1999/xlink">
    <title>vconnect-principale-negativo</title>
    <g id="Page-1" stroke="none" stroke-width="1" fill="none" fill-rule="evenodd">
        <g id="vconnect-principale-negativo" fill="#00396A" fill-rule="nonzero">
            <g id="Group">
                <path d="M28.2,0.3 C30.2,0.5 32.2,0.9 34.4,1.5 L33.6,8.1 C29.5,7.8 25.2,7.6 20.6,7.6 C17.9,7.6 15.8,8.1 14.3,9.2 C12.8,10.2 11.7,12 11.1,14.5 C10.5,17 10.2,20.4 10.2,24.9 C10.2,29.4 10.5,32.9 11.1,35.3 C11.7,37.8 12.8,39.5 14.3,40.6 C15.8,41.6 17.9,42.2 20.6,42.2 C23.8,42.2 26.5,42.2 28.5,42.1 C30.6,42 32.6,41.8 34.6,41.5 L35.4,48.1 C33.3,48.8 31.1,49.2 28.9,49.5 C26.7,49.8 23.9,49.9 20.6,49.9 C15.7,49.9 11.8,49.1 9,47.5 C6.2,45.9 4.1,43.3 2.8,39.7 C1.5,36.1 0.9,31.2 0.9,25 C0.9,18.8 1.5,13.9 2.8,10.3 C4.1,6.7 6.1,4.1 9,2.5 C11.8,0.9 15.7,0.1 20.6,0.1 C23.6,-0.1 26.2,0.1 28.2,0.3 Z" id="Path"></path>
                <path d="M64.9,15.6 C67.3,16.8 69.1,18.7 70.2,21.3 C71.3,23.9 71.8,27.5 71.8,31.9 C71.8,36.3 71.3,39.8 70.2,42.5 C69.1,45.1 67.3,47 64.9,48.2 C62.5,49.4 59.2,50 55,50 C50.8,50 47.5,49.4 45,48.2 C42.6,47 40.8,45.1 39.6,42.5 C38.5,39.9 37.9,36.4 37.9,31.9 C37.9,27.5 38.5,23.9 39.6,21.3 C40.7,18.7 42.5,16.8 45,15.6 C47.5,14.4 50.8,13.8 54.9,13.8 C59.1,13.8 62.4,14.4 64.9,15.6 Z M50.1,21.5 C49,22.2 48.1,23.3 47.7,24.9 C47.2,26.5 47,28.8 47,31.9 C47,34.9 47.2,37.2 47.7,38.8 C48.2,40.4 49,41.5 50.1,42.2 C51.2,42.9 52.9,43.2 55,43.2 C57.1,43.2 58.7,42.9 59.9,42.2 C61,41.5 61.9,40.4 62.3,38.8 C62.8,37.2 63,34.9 63,31.9 C63,28.9 62.8,26.5 62.3,24.9 C61.8,23.3 61,22.2 59.9,21.5 C58.8,20.8 57.1,20.5 55,20.5 C52.9,20.6 51.2,20.9 50.1,21.5 Z" id="Shape"></path>
                <path d="M106.5,16.2 C108.1,17.8 108.9,20.2 108.9,23.3 L108.9,49 L100.4,49 L100.4,25.9 C100.4,24 100.1,22.7 99.6,22 C99.1,21.3 98.1,21 96.7,21 C95.1,21 93.5,21.3 91.9,21.9 C90.3,22.5 88.1,23.6 85.4,25.2 L85.5,49 L77,49 L77,14.8 L84.1,14.8 L84.7,19.9 C90,15.8 94.9,13.8 99.5,13.8 C102.6,13.8 104.9,14.6 106.5,16.2 Z" id="Path"></path>
                <path d="M145,16.2 C146.6,17.8 147.4,20.2 147.4,23.3 L147.4,49 L138.9,49 L138.9,25.9 C138.9,24 138.6,22.7 138.1,22 C137.6,21.3 136.6,21 135.2,21 C133.6,21 132,21.3 130.4,21.9 C128.8,22.5 126.6,23.6 123.9,25.2 L124,49 L115.5,49 L115.5,14.8 L122.6,14.8 L123.2,19.9 C128.5,15.8 133.4,13.8 138,13.8 C141,13.8 143.4,14.6 145,16.2 Z" id="Path"></path>
                <path d="M182.9,42.1 L183.7,47.6 C182,48.4 179.9,49 177.3,49.3 C174.7,49.7 172.1,49.9 169.6,49.9 C165.4,49.9 162.1,49.3 159.6,48.1 C157.1,46.9 155.3,45 154.2,42.4 C153.1,39.8 152.5,36.3 152.5,31.9 C152.5,27.4 153.1,23.8 154.2,21.2 C155.3,18.6 157.1,16.7 159.5,15.6 C161.9,14.5 165.1,13.9 169,13.9 C174.5,13.9 178.4,14.9 180.9,16.9 C183.4,18.9 184.6,21.9 184.6,25.8 C184.6,32.3 181.5,35.6 175.4,35.6 L161.4,35.6 C161.6,37.7 162.1,39.2 162.8,40.3 C163.5,41.4 164.4,42.1 165.6,42.5 C166.8,42.9 168.5,43.1 170.6,43.1 C174.1,42.9 178.2,42.7 182.9,42.1 Z M164.6,21.3 C163.5,21.8 162.7,22.7 162.2,24 C161.7,25.3 161.4,27.1 161.3,29.6 L173.1,29.6 C174.3,29.6 175.1,29.2 175.5,28.5 C175.9,27.8 176.1,26.8 176.1,25.6 C176.1,23.7 175.6,22.4 174.6,21.7 C173.6,21 171.8,20.6 169.3,20.6 C167.3,20.5 165.7,20.8 164.6,21.3 Z" id="Shape"></path>
                <path d="M210.9,14.3 C213.1,14.6 215,15.1 216.6,15.8 L215.6,21.1 C213.3,21 210.1,21 206.1,21 C203.7,21 201.9,21.3 200.5,22 C199.1,22.7 198.2,23.7 197.6,25.3 C197,26.8 196.7,29.1 196.7,31.9 C196.7,34.8 197,37 197.6,38.6 C198.2,40.2 199.1,41.3 200.5,42 C201.9,42.7 203.7,43 206.1,43 C209.8,43 213.3,42.8 216.4,42.3 L217.2,47.9 C213.8,49.3 209.6,50 204.6,50 C200.5,50 197.2,49.4 194.8,48.3 C192.4,47.1 190.7,45.2 189.6,42.6 C188.5,40 188,36.4 188,32 C188,27.5 188.5,24 189.6,21.4 C190.7,18.8 192.5,16.9 194.9,15.7 C197.3,14.5 200.6,14 204.8,14 C206.7,13.8 208.8,13.9 210.9,14.3 Z" id="Path"></path>
                <path d="M234.3,20.9 L234.3,38.3 C234.3,39.8 234.6,40.8 235.2,41.4 C235.8,42 236.9,42.3 238.4,42.3 L243.1,42.3 L244,48.6 C242.9,49 241.4,49.3 239.7,49.5 C237.9,49.7 236.4,49.8 235.2,49.8 C232.2,49.8 229.9,48.9 228.3,47.2 C226.7,45.5 225.9,43 225.9,39.8 L225.8,20.9 L219.6,20.9 L219.6,15.1 L225.8,14.8 L225.8,4.9 L234.3,4.9 L234.3,14.8 L244.4,14.8 L244.4,21 L234.3,21 L234.3,20.9 L234.3,20.9 Z" id="Path"></path>
            </g>
        </g>
    </g>
</svg>