<?xml version="1.0" encoding="UTF-8"?>
<svg width="110px" height="51px" viewBox="0 0 110 51" version="1.1" xmlns="http://www.w3.org/2000/svg" xmlns:xlink="http://www.w3.org/1999/xlink">
    <title>vpec-principale-negativo</title>
    <g id="Page-1" stroke="none" stroke-width="1" fill="none" fill-rule="evenodd">
        <g id="vpec-principale-negativo" fill="#00396A" fill-rule="nonzero">
            <g id="Group">
                <path d="M28.4,1.5 C30.8,2.4 32.4,4 33.5,6.2 C34.5,8.4 35,11.6 35,15.7 C35,19.8 34.5,23 33.5,25.2 C32.5,27.4 30.9,29 28.7,29.9 C26.5,30.8 23.4,31.3 19.5,31.3 C16,31.3 12.8,31.1 9.6,30.7 L9.6,49.1 L0.8,49.1 L0.8,0.8 C3.5,0.5 5.9,0.3 8.3,0.3 C10.6,0.2 14,0.2 18.3,0.2 C22.7,0.1 26,0.6 28.4,1.5 Z M23,23.3 C24.1,22.8 24.9,22 25.4,20.8 C25.9,19.6 26.1,17.9 26.1,15.7 C26.1,13.5 25.9,11.7 25.4,10.6 C24.9,9.5 24.1,8.6 23,8.1 C21.9,7.6 20.3,7.4 18.2,7.4 C14.1,7.4 11.3,7.4 9.7,7.5 L9.7,24.2 L18.2,24.2 C20.3,24 21.9,23.8 23,23.3 Z" id="Shape"></path>
                <path d="M71,42 L71.4,48.7 C68.6,48.9 65.6,49.1 62.3,49.2 C59,49.3 55,49.3 50.1,49.3 C46.9,49.3 44.4,48.5 42.6,46.8 C40.8,45.2 39.8,42.9 39.8,40.1 L39.8,9.8 C39.8,7 40.8,4.7 42.6,3.1 C44.4,1.5 47,0.6 50.1,0.6 C55,0.6 59,0.6 62.3,0.7 C65.6,0.8 68.6,0.9 71.4,1.2 L71,7.9 L52.1,7.9 C50.8,7.9 49.9,8.2 49.4,8.8 C48.9,9.4 48.6,10.5 48.6,12 L48.6,20.5 L68.4,20.5 L68.4,27.2 L48.6,27.2 L48.6,38 C48.6,39.5 48.9,40.5 49.4,41.2 C49.9,41.8 50.8,42.1 52.1,42.1 L71,42.1 L71,42 L71,42 Z" id="Path"></path>
                <path d="M102.4,0.3 C104.4,0.5 106.4,0.9 108.6,1.5 L107.8,8.2 C103.7,7.9 99.4,7.7 94.8,7.7 C92.1,7.7 90,8.2 88.5,9.3 C87,10.4 85.9,12.1 85.3,14.6 C84.7,17.1 84.4,20.6 84.4,25 C84.4,29.4 84.7,33 85.3,35.4 C85.9,37.9 87,39.6 88.5,40.7 C90,41.8 92.1,42.3 94.8,42.3 C98,42.3 100.7,42.3 102.7,42.2 C104.8,42.1 106.8,41.9 108.8,41.6 L109.6,48.2 C107.5,48.9 105.3,49.3 103.1,49.6 C100.9,49.9 98.1,50 94.8,50 C89.9,50 86,49.2 83.2,47.6 C80.4,46 78.3,43.4 77,39.8 C75.7,36.2 75.1,31.3 75.1,25.1 C75.1,18.9 75.7,14 77,10.4 C78.3,6.8 80.3,4.2 83.2,2.6 C86,1 89.9,0.2 94.8,0.2 C97.8,-0.1 100.4,0 102.4,0.3 Z" id="Path"></path>
            </g>
        </g>
    </g>
</svg>