<svg width="19" height="14" xmlns="http://www.w3.org/2000/svg">
    <g fill="#00B9B3" fill-rule="nonzero">
        <path d="M18.374 2.165a.743.743 0 0 0-1.046.113l-6.913 8.573-2.389-2.389a.743.743 0 1 0-1.051 1.051l2.973 2.974a.751.751 0 0 0 1.104-.06l7.434-9.217a.743.743 0 0 0-.112-1.045z"/>
        <path d="M13.007 1.413a1.337 1.337 0 0 1 1.184 2.17l-7.437 9.222a1.346 1.346 0 0 1-1.983.102L1.797 9.934A1.338 1.338 0 1 1 3.69 8.042l1.92 1.92 6.498-8.057c.222-.277.545-.454.899-.492z" stroke="#D9D9D9" stroke-width="1.189"/>
    </g>
</svg>
