<?xml version="1.0" encoding="utf-8"?>
<!-- Generator: Adobe Illustrator 23.0.3, SVG Export Plug-In . SVG Version: 6.00 Build 0)  -->
<svg version="1.1" id="Livello_1" xmlns="http://www.w3.org/2000/svg" xmlns:xlink="http://www.w3.org/1999/xlink" x="0px" y="0px"
	 viewBox="0 0 18 18" style="enable-background:new 0 0 18 18;" xml:space="preserve">
<style type="text/css">
	.st0{fill:none;}
	.st1{fill:#00396A;}
</style>
<path class="st0" d="M0,0h18v18H0V0z"/>
<path class="st1" d="M15.3,0.1H2.6C1.2,0.1,0,1.3,0,2.7v12.6c0,1.4,1.2,2.6,2.6,2.6h12.7c1.5,0,2.6-1.1,2.6-2.5V2.7
	C17.9,1.3,16.7,0.1,15.3,0.1z M7.5,10.5H6V5.2H3.7l3-3l3,3H7.5V10.5z M11.2,15.8l-3-3h2.2V7.5H12v5.3h2.2L11.2,15.8z"/>
</svg>
