<?xml version="1.0" encoding="UTF-8"?>
<svg width="213px" height="161px" viewBox="0 0 213 161" version="1.1" xmlns="http://www.w3.org/2000/svg" xmlns:xlink="http://www.w3.org/1999/xlink">
    <title>Shape</title>
    <g id="Page-1" stroke="none" stroke-width="1" fill="none" fill-rule="evenodd">
        <path d="M189,0.5 L36.1,0.5 C23.2,0.5 12.7,11 12.7,23.9 L12.7,36.5 L6.4,36.5 C3.1,36.5 0.4,39.2 0.4,42.5 C0.4,45.8 3.1,48.5 6.4,48.5 L12.7,48.5 L18.4,48.5 C21.7,48.5 24.4,51.2 24.4,54.5 C24.4,57.8 21.7,60.5 18.4,60.5 L12.7,60.5 L12.7,112.4 L6.4,112.4 C3.1,112.4 0.4,115.1 0.4,118.4 C0.4,121.7 3.1,124.4 6.4,124.4 L12.7,124.4 L18.4,124.4 C21.7,124.4 24.4,127.1 24.4,130.4 C24.4,133.7 21.7,136.4 18.4,136.4 L12.7,136.4 L12.7,137 C12.7,149.9 23.2,160.4 36.1,160.4 L189,160.4 C201.9,160.4 212.4,149.9 212.4,137 L212.4,23.9 C212.4,11 201.9,0.5 189,0.5 Z M114.3,35.4 C126.6,35.4 136.5,45.4 136.5,57.6 C136.5,69.9 126.5,79.8 114.3,79.8 C102,79.8 92.1,69.8 92.1,57.6 C92.1,45.3 102.1,35.4 114.3,35.4 Z M158.8,124.3 L69.8,124.3 L69.8,107.6 C69.8,92.8 99.4,85.4 114.3,85.4 C129.1,85.4 158.8,92.9 158.8,107.6 L158.8,124.3 Z" id="Shape" fill="#ffffff" fill-rule="nonzero"></path>
    </g>
</svg>