<?xml version="1.0" encoding="UTF-8"?>
<svg width="196px" height="161px" viewBox="0 0 196 161" version="1.1" xmlns="http://www.w3.org/2000/svg" xmlns:xlink="http://www.w3.org/1999/xlink">
    <title>Shape</title>
    <g id="Page-1" stroke="none" stroke-width="1" fill="none" fill-rule="evenodd">
        <path d="M189.5,147.5 L133.7,147.5 L133.7,134.6 L178.1,134.6 C187.9,134.6 195.8,126.6 195.8,116.8 L195.9,18.1 C195.9,8.2 187.9,0.3 178.1,0.3 L18.1,0.3 C8.2,0.3 0.3,8.2 0.3,18.1 L0.3,116.8 C0.3,126.6 8.2,134.6 18.1,134.6 L62.5,134.6 L62.5,147.5 L6.7,147.5 C3.1,147.5 0.3,150.4 0.3,153.9 C0.3,157.5 3.2,160.3 6.7,160.3 L62.5,160.3 L133.6,160.3 L189.4,160.3 C193,160.3 195.8,157.4 195.8,153.9 C196,150.3 193.1,147.5 189.5,147.5 Z M178.2,106.6 L178.2,116.8 L134.6,116.8 L134.6,106.6 C134.6,95.8 128.7,87.6 120.3,81.5 C122.8,81.3 125.2,81.1 127.4,81.1 C144.2,81.1 178.2,89.7 178.2,106.6 Z M127.3,24 C139.4,24 149,33.7 149,45.8 C149,57.9 139.3,67.6 127.3,67.6 C115.2,67.6 105.5,57.9 105.5,45.8 C105.4,33.7 115.2,24 127.3,24 Z M69.1,24 C81.2,24 90.8,33.7 90.8,45.8 C90.8,57.9 81.1,67.6 69.1,67.6 C57,67.6 47.3,57.9 47.3,45.8 C47.3,33.7 57,24 69.1,24 Z M18.2,116.8 L18.2,106.6 C18.2,89.7 52.2,81.1 69.1,81.1 C86,81.1 120,89.6 120,106.6 L120,116.8 L18.2,116.8 Z" id="Shape" fill="#ffffff" fill-rule="nonzero"></path>
    </g>
</svg>