<?xml version="1.0" encoding="UTF-8"?>
<svg width="232px" height="162px" viewBox="0 0 232 162" version="1.1" xmlns="http://www.w3.org/2000/svg" xmlns:xlink="http://www.w3.org/1999/xlink">
    <title>Path</title>
    <g id="Page-1" stroke="none" stroke-width="1" fill="none" fill-rule="evenodd">
        <path d="M210.9,23.4 L117.6,23.4 L99,1.3 C98.4,0.5 97.4,0.1 96.5,0.2 L21.2,0.2 C9.7,0.3 0.4,9.6 0.4,21.1 L0.4,90.2 C10.8,71.6 30.7,58.9 53.6,58.9 L64.5,58.9 L64.5,25.5 L115.5,81.5 L64.5,137.5 L64.5,104 L61.4,104 C38.5,104 16.6,113.1 0.4,129.2 L0.4,140.4 C0.4,151.9 9.8,161.3 21.3,161.3 L210.9,161.3 C222.4,161.3 231.8,151.9 231.8,140.4 L231.8,44.3 C231.8,32.7 222.4,23.4 210.9,23.4 Z" id="Path" fill="#ffffff" fill-rule="nonzero"></path>
    </g>
</svg>