<?xml version="1.0" encoding="UTF-8"?>
<svg width="201px" height="161px" viewBox="0 0 201 161" version="1.1" xmlns="http://www.w3.org/2000/svg" xmlns:xlink="http://www.w3.org/1999/xlink">
    <title>Shape</title>
    <g id="Page-1" stroke="none" stroke-width="1" fill="none" fill-rule="evenodd">
        <path d="M0.6,103.2 L46.3,103.2 L46.3,57.5 L0.6,57.5 L0.6,103.2 Z M0.6,46.2 L46.3,46.2 L46.3,0.5 L20.8,0.5 C9.7,0.5 0.7,9.5 0.7,20.6 L0.7,46.2 L0.6,46.2 Z M57.7,103.2 L200.2,103.2 L200.2,57.5 L57.7,57.5 L57.7,103.2 Z M0.6,140.2 C0.6,151.3 9.6,160.3 20.7,160.3 L46.2,160.3 L46.2,114.6 L0.6,114.6 L0.6,140.2 Z M57.7,0.5 L57.7,46.2 L200.2,46.2 L200.2,20 C200.2,9.2 191.4,0.5 180.7,0.5 L57.7,0.5 Z M180.6,160.5 C191.4,160.5 200.1,151.7 200.1,141 L200.1,114.9 L57.7,114.9 L57.7,160.6 L180.6,160.6 L180.6,160.5 Z" id="Shape" fill="#ffffff" fill-rule="nonzero"></path>
    </g>
</svg>