<?xml version="1.0" encoding="UTF-8"?>
<svg width="201px" height="161px" viewBox="0 0 201 161" version="1.1" xmlns="http://www.w3.org/2000/svg" xmlns:xlink="http://www.w3.org/1999/xlink">
    <title>Path</title>
    <g id="Page-1" stroke="none" stroke-width="1" fill="none" fill-rule="evenodd">
        <path d="M81.1,119.6 L81.1,149.6 L41.1,109.6 L81.1,69.6 L81.1,99.6 L200.2,99.6 L200.2,20.5 C200.2,9.5 191.2,0.5 180.2,0.5 L20.3,0.5 C9.3,0.5 0.4,9.5 0.4,20.5 L0.4,41.3 L119.4,41.3 L119.4,11.3 L159.4,51.3 L119.4,91.3 L119.4,61.3 L0.4,61.3 L0.3,140.4 C0.3,151.4 9.3,160.4 20.3,160.4 L180.1,160.4 C191.1,160.4 200.1,151.4 200.1,140.4 L200.1,119.6 L81.1,119.6 Z" id="Path" fill="#ffffff" fill-rule="nonzero"></path>
    </g>
</svg>