<?xml version="1.0" encoding="utf-8"?>
<!-- Generator: Adobe Illustrator 23.0.3, SVG Export Plug-In . SVG Version: 6.00 Build 0)  -->
<svg version="1.1" id="Livello_1" xmlns="http://www.w3.org/2000/svg" xmlns:xlink="http://www.w3.org/1999/xlink" x="0px" y="0px"
	 viewBox="0 0 300 55" style="enable-background:new 0 0 300 55;" xml:space="preserve">
<style type="text/css">
	.st0{fill:#FFFFFF;}
	.st1{fill:url(#SVGID_1_);}
</style>
<g>
	<g>
		<path class="st0" d="M70.2,3.3c2,0.2,4,0.6,6.2,1.2l-0.8,6.6c-4.1-0.3-8.4-0.5-13-0.5c-2.7,0-4.8,0.5-6.3,1.6
			c-1.5,1-2.6,2.8-3.2,5.3c-0.6,2.5-0.9,5.9-0.9,10.4s0.3,8,0.9,10.4c0.6,2.5,1.7,4.2,3.2,5.3c1.5,1,3.6,1.6,6.3,1.6
			c3.2,0,5.9,0,7.9-0.1c2.1-0.1,4.1-0.3,6.1-0.6l0.8,6.6c-2.1,0.7-4.3,1.1-6.5,1.4c-2.2,0.3-5,0.4-8.3,0.4c-4.9,0-8.8-0.8-11.6-2.4
			c-2.8-1.6-4.9-4.2-6.2-7.8s-1.9-8.5-1.9-14.7s0.6-11.1,1.9-14.7c1.3-3.6,3.3-6.2,6.2-7.8c2.8-1.6,6.7-2.4,11.6-2.4
			C65.6,2.9,68.2,3.1,70.2,3.3z"/>
		<path class="st0" d="M106.9,18.6c2.4,1.2,4.2,3.1,5.3,5.7c1.1,2.6,1.6,6.2,1.6,10.6s-0.5,7.9-1.6,10.6c-1.1,2.6-2.9,4.5-5.3,5.7
			S101.2,53,97,53c-4.2,0-7.5-0.6-10-1.8c-2.4-1.2-4.2-3.1-5.4-5.7c-1.1-2.6-1.7-6.1-1.7-10.6c0-4.4,0.6-8,1.7-10.6s2.9-4.5,5.4-5.7
			c2.5-1.2,5.8-1.8,9.9-1.8C101.1,16.8,104.4,17.4,106.9,18.6z M92.1,24.5c-1.1,0.7-2,1.8-2.4,3.4c-0.5,1.6-0.7,3.9-0.7,7
			c0,3,0.2,5.3,0.7,6.9c0.5,1.6,1.3,2.7,2.4,3.4s2.8,1,4.9,1s3.7-0.3,4.9-1c1.1-0.7,2-1.8,2.4-3.4c0.5-1.6,0.7-3.9,0.7-6.9
			s-0.2-5.4-0.7-7s-1.3-2.7-2.4-3.4c-1.1-0.7-2.8-1-4.9-1C94.9,23.6,93.2,23.9,92.1,24.5z"/>
		<path class="st0" d="M148.5,19.2c1.6,1.6,2.4,4,2.4,7.1V52h-8.5V28.9c0-1.9-0.3-3.2-0.8-3.9c-0.5-0.7-1.5-1-2.9-1
			c-1.6,0-3.2,0.3-4.8,0.9s-3.8,1.7-6.5,3.3l0.1,23.8H119V17.8h7.1l0.6,5.1c5.3-4.1,10.2-6.1,14.8-6.1
			C144.6,16.8,146.9,17.6,148.5,19.2z"/>
		<path class="st0" d="M187,19.2c1.6,1.6,2.4,4,2.4,7.1V52h-8.5V28.9c0-1.9-0.3-3.2-0.8-3.9c-0.5-0.7-1.5-1-2.9-1
			c-1.6,0-3.2,0.3-4.8,0.9s-3.8,1.7-6.5,3.3L166,52h-8.5V17.8h7.1l0.6,5.1c5.3-4.1,10.2-6.1,14.8-6.1C183,16.8,185.4,17.6,187,19.2z
			"/>
		<path class="st0" d="M224.9,45.1l0.8,5.5c-1.7,0.8-3.8,1.4-6.4,1.7c-2.6,0.4-5.2,0.6-7.7,0.6c-4.2,0-7.5-0.6-10-1.8
			s-4.3-3.1-5.4-5.7c-1.1-2.6-1.7-6.1-1.7-10.5c0-4.5,0.6-8.1,1.7-10.7c1.1-2.6,2.9-4.5,5.3-5.6c2.4-1.1,5.6-1.7,9.5-1.7
			c5.5,0,9.4,1,11.9,3s3.7,5,3.7,8.9c0,6.5-3.1,9.8-9.2,9.8h-14c0.2,2.1,0.7,3.6,1.4,4.7c0.7,1.1,1.6,1.8,2.8,2.2s2.9,0.6,5,0.6
			C216.1,45.9,220.2,45.7,224.9,45.1z M206.6,24.3c-1.1,0.5-1.9,1.4-2.4,2.7c-0.5,1.3-0.8,3.1-0.9,5.6h11.8c1.2,0,2-0.4,2.4-1.1
			c0.4-0.7,0.6-1.7,0.6-2.9c0-1.9-0.5-3.2-1.5-3.9c-1-0.7-2.8-1.1-5.3-1.1C209.3,23.5,207.7,23.8,206.6,24.3z"/>
		<path class="st0" d="M252.9,17.3c2.2,0.3,4.1,0.8,5.7,1.5l-1,5.3c-2.3-0.1-5.5-0.1-9.5-0.1c-2.4,0-4.2,0.3-5.6,1
			c-1.4,0.7-2.3,1.7-2.9,3.3c-0.6,1.5-0.9,3.8-0.9,6.6c0,2.9,0.3,5.1,0.9,6.7c0.6,1.6,1.5,2.7,2.9,3.4s3.2,1,5.6,1
			c3.7,0,7.2-0.2,10.3-0.7l0.8,5.6c-3.4,1.4-7.6,2.1-12.6,2.1c-4.1,0-7.4-0.6-9.8-1.7c-2.4-1.2-4.1-3.1-5.2-5.7
			C230.5,43,230,39.4,230,35c0-4.5,0.5-8,1.6-10.6s2.9-4.5,5.3-5.7c2.4-1.2,5.7-1.7,9.9-1.7C248.7,16.8,250.8,16.9,252.9,17.3z"/>
		<path class="st0" d="M276.3,23.9v17.4c0,1.5,0.3,2.5,0.9,3.1s1.7,0.9,3.2,0.9h4.7l0.9,6.3c-1.1,0.4-2.6,0.7-4.3,0.9
			c-1.8,0.2-3.3,0.3-4.5,0.3c-3,0-5.3-0.9-6.9-2.6c-1.6-1.7-2.4-4.2-2.4-7.4l-0.1-18.9h-6.2v-5.8l6.2-0.3V7.9h8.5v9.9h10.1V24h-10.1
			V23.9z"/>
	</g>
	<g>
		<polygon class="st0" points="5,18.5 14.4,18.5 12.6,12.4 3,12.4 		"/>
		<polygon class="st0" points="8,27.6 17.1,27.6 15.3,21.5 6,21.5 		"/>
		<polygon class="st0" points="11.7,9.3 9.9,3.2 0,3.2 2,9.3 		"/>
		
			<linearGradient id="SVGID_1_" gradientUnits="userSpaceOnUse" x1="9" y1="-4.4" x2="42.1436" y2="-4.4" gradientTransform="matrix(1 0 0 1 0 32)">
			<stop  offset="0" style="stop-color:#0072BF"/>
			<stop  offset="1" style="stop-color:#00AA9D"/>
		</linearGradient>
		<polygon class="st1" points="32.2,3.2 22.1,37.5 21.1,42.1 20,37.5 18,30.7 9,30.7 16.1,52 21.1,52 21.1,52 26.1,52 42.2,3.2 		
			"/>
	</g>
</g>
</svg>
