<?xml version="1.0" encoding="utf-8"?>
<!-- Generator: Adobe Illustrator 23.0.3, SVG Export Plug-In . SVG Version: 6.00 Build 0)  -->
<svg version="1.1" id="Livello_1" xmlns="http://www.w3.org/2000/svg" xmlns:xlink="http://www.w3.org/1999/xlink" x="0px" y="0px"
	 viewBox="0 0 300 55" style="enable-background:new 0 0 300 55;" xml:space="preserve">
<style type="text/css">
	.st0{fill:#FFFFFF;}
	.st1{fill:url(#SVGID_1_);}
</style>
<g>
	<g>
		<path class="st0" d="M73.4,4.5c2.4,0.9,4,2.5,5.1,4.7c1,2.2,1.5,5.4,1.5,9.5s-0.5,7.3-1.5,9.5s-2.6,3.8-4.8,4.7s-5.3,1.4-9.2,1.4
			c-3.5,0-6.7-0.2-9.9-0.6v18.4h-8.8V3.8c2.7-0.3,5.1-0.5,7.5-0.5c2.3-0.1,5.7-0.1,10-0.1C67.7,3.1,71,3.6,73.4,4.5z M68,26.3
			c1.1-0.5,1.9-1.3,2.4-2.5s0.7-2.9,0.7-5.1s-0.2-4-0.7-5.1s-1.3-2-2.4-2.5c-1.1-0.5-2.7-0.7-4.8-0.7c-4.1,0-6.9,0-8.5,0.1v16.7h8.5
			C65.3,27,66.9,26.8,68,26.3z"/>
		<path class="st0" d="M116,45l0.4,6.7c-2.8,0.2-5.8,0.4-9.1,0.5s-7.3,0.1-12.2,0.1c-3.2,0-5.7-0.8-7.5-2.5
			c-1.8-1.6-2.8-3.9-2.8-6.7V12.8c0-2.8,1-5.1,2.8-6.7s4.4-2.5,7.5-2.5c4.9,0,8.9,0,12.2,0.1s6.3,0.2,9.1,0.5l-0.4,6.7H97.1
			c-1.3,0-2.2,0.3-2.7,0.9c-0.5,0.6-0.8,1.7-0.8,3.2v8.5h19.8v6.7H93.6V41c0,1.5,0.3,2.5,0.8,3.2c0.5,0.6,1.4,0.9,2.7,0.9H116
			L116,45L116,45z"/>
		<path class="st0" d="M147.4,3.3c2,0.2,4,0.6,6.2,1.2l-0.8,6.7c-4.1-0.3-8.4-0.5-13-0.5c-2.7,0-4.8,0.5-6.3,1.6s-2.6,2.8-3.2,5.3
			s-0.9,6-0.9,10.4s0.3,8,0.9,10.4c0.6,2.5,1.7,4.2,3.2,5.3s3.6,1.6,6.3,1.6c3.2,0,5.9,0,7.9-0.1c2.1-0.1,4.1-0.3,6.1-0.6l0.8,6.6
			c-2.1,0.7-4.3,1.1-6.5,1.4c-2.2,0.3-5,0.4-8.3,0.4c-4.9,0-8.8-0.8-11.6-2.4c-2.8-1.6-4.9-4.2-6.2-7.8s-1.9-8.5-1.9-14.7
			s0.6-11.1,1.9-14.7c1.3-3.6,3.3-6.2,6.2-7.8c2.8-1.6,6.7-2.4,11.6-2.4C142.8,2.9,145.4,3,147.4,3.3z"/>
	</g>
	<g>
		<polygon class="st0" points="5.1,18.5 14.5,18.5 12.7,12.4 3.1,12.4 		"/>
		<polygon class="st0" points="8.1,27.7 17.2,27.7 15.4,21.5 6.1,21.5 		"/>
		<polygon class="st0" points="11.8,9.3 10,3.2 0,3.2 2.1,9.3 		"/>
		
			<linearGradient id="SVGID_1_" gradientUnits="userSpaceOnUse" x1="9.1" y1="-4.35" x2="42.3" y2="-4.35" gradientTransform="matrix(1 0 0 1 0 32)">
			<stop  offset="0" style="stop-color:#0072BF"/>
			<stop  offset="1" style="stop-color:#00AA9D"/>
		</linearGradient>
		<polygon class="st1" points="32.4,3.2 22.2,37.5 21.2,42.1 20.2,37.5 18.1,30.7 9.1,30.7 16.2,52.1 21.2,52.1 21.2,52.1 
			26.2,52.1 42.3,3.2 		"/>
	</g>
</g>
</svg>
