<?xml version="1.0" encoding="utf-8"?>
<!-- Generator: Adobe Illustrator 23.0.3, SVG Export Plug-In . SVG Version: 6.00 Build 0)  -->
<svg version="1.1" id="Livello_1" xmlns="http://www.w3.org/2000/svg" xmlns:xlink="http://www.w3.org/1999/xlink" x="0px" y="0px"
	 viewBox="0 0 300 55" style="enable-background:new 0 0 300 55;" xml:space="preserve">
<style type="text/css">
	.st0{fill:#FFFFFF;}
	.st1{fill:url(#SVGID_1_);}
</style>
<g>
	<g>
		<path class="st0" d="M84.2,10.9h-15v41h-8.9v-41H45.5V3.4h38.7V10.9z"/>
		<path class="st0" d="M109.7,19.1c2.1,1.8,3.1,4.9,3.1,9.4v23.4H106l-0.9-5.2c-1.5,1.6-3.4,3-5.6,4.2c-2.2,1.2-4.7,1.8-7.6,1.8
			c-3.2,0-5.9-0.9-7.9-2.6c-2-1.8-3-4.2-3-7.3v-3.5c0-2.8,0.9-4.9,2.7-6.4s4.3-2.3,7.5-2.3h12.9v-2.1c0-1.4-0.2-2.4-0.6-3.1
			c-0.4-0.7-1-1.2-1.9-1.4c-0.9-0.3-2.2-0.4-3.9-0.4c-3.6,0-8.4,0.2-14.4,0.7l-0.8-6c2.5-0.5,5.4-0.9,8.8-1.2
			c3.4-0.3,6.2-0.5,8.4-0.5C104.4,16.4,107.6,17.3,109.7,19.1z M90.7,44.7c0.7,0.7,1.9,1,3.4,1s3.1-0.3,4.9-1
			c1.8-0.7,3.6-1.7,5.2-3.1v-5.3h-11c-1.4,0-2.3,0.4-2.8,1.1c-0.5,0.7-0.8,1.6-0.8,2.8v1.3C89.7,43,90,44.1,90.7,44.7z"/>
		<path class="st0" d="M140.9,16.9c2.9,0.2,5.3,0.5,7.4,0.8l-0.6,5.9c-5.8-0.2-10.2-0.3-13.2-0.3c-2.2,0-3.8,0-4.7,0.1
			s-1.6,0.4-2,0.8s-0.6,1.1-0.6,2c0,1.1,0.3,1.9,0.8,2.3s1.2,0.7,2.1,0.9c0.9,0.2,1.5,0.4,1.8,0.5l9.3,2.5c3,0.8,5.1,2,6.3,3.4
			c1.3,1.4,1.9,3.6,1.9,6.5c0,2.8-0.5,4.9-1.6,6.4s-2.7,2.5-4.9,3s-5.2,0.8-9,0.8c-5.2,0-10-0.4-14.4-1.1l0.6-6
			c2.4,0.2,6.4,0.3,11.7,0.3c2.5,0,4.4-0.1,5.7-0.2c1.3-0.2,2.2-0.5,2.7-0.9c0.5-0.5,0.8-1.2,0.8-2.1c0-0.8-0.2-1.5-0.6-1.9
			c-0.4-0.4-0.8-0.7-1.3-0.9s-1.5-0.5-3.2-0.9l-9.1-2.5c-3-0.8-5.1-2-6.3-3.6c-1.2-1.5-1.8-3.7-1.8-6.5c0-2.5,0.5-4.5,1.4-5.9
			s2.4-2.4,4.4-3s4.8-0.9,8.2-0.9C135.4,16.5,138.1,16.6,140.9,16.9z"/>
		<path class="st0" d="M167.6,35.4h-3.8c0.3,1.8,0.4,3.6,0.4,5.3v11.2h-8.6V2.6h8.6l0.1,21c0,2.2-0.2,4.2-0.5,6h3.7l9.4-12.2h9.7
			L177,29.6c-0.4,0.6-0.8,1.1-1.4,1.7c-0.6,0.5-1.1,0.9-1.5,1.2v0.1c0.4,0.2,0.9,0.7,1.4,1.3c0.6,0.7,1.1,1.3,1.4,2l10.8,15.9H178
			L167.6,35.4z"/>
	</g>
	<g>
		<polygon class="st0" points="5,18.1 14.5,18.1 12.7,12 3,12 		"/>
		<polygon class="st0" points="8.1,27.3 17.2,27.3 15.4,21.2 6.1,21.2 		"/>
		<polygon class="st0" points="11.8,8.9 10,2.8 0,2.8 2,8.9 		"/>
		
			<linearGradient id="SVGID_1_" gradientUnits="userSpaceOnUse" x1="9.1" y1="-4.65" x2="42.4" y2="-4.65" gradientTransform="matrix(1 0 0 1 0 32)">
			<stop  offset="0" style="stop-color:#0072BF"/>
			<stop  offset="1" style="stop-color:#00AA9D"/>
		</linearGradient>
		<polygon class="st1" points="32.5,2.8 22.2,37.3 21.2,41.9 20.2,37.3 18.2,30.4 9.1,30.4 16.2,51.9 21.2,51.9 21.2,51.9 
			26.2,51.9 42.4,2.8 		"/>
	</g>
</g>
</svg>
