<svg width="70" height="104" viewBox="0 0 70 104" xmlns="http://www.w3.org/2000/svg">
    <g fill="#FFF" fill-rule="evenodd">
        <text font-family="Roboto-Regular, Roboto" font-size="14" letter-spacing="-.255">
                    <tspan x=".046" y="13">Powered by</tspan>
                </text>
        <g transform="translate(1 26)" fill-rule="nonzero">
            <path d="m42.902 35.292-8.838-4.8-8.84 4.8 8.84 4.8zM42.902 24.462l-8.838-4.8-8.84 4.8 8.84 4.8z"/>
            <path d="m18.747 20.29 15.251-8.81L49.2 20.26l9.892-5.765L33.998 0 8.855 14.524zM49.395 22.618v15.538l-14.33 8.278V57.91L59.33 43.89V16.826zM32.933 46.434l-14.329-8.278V22.677L8.67 16.885v27.006l24.263 14.017zM0 74V63.386h2.833v8.339h4.495V74zM8.92 74V63.386h2.833V74zM25.113 74V63.386h7.385v2.137h-4.803v2.037h4.23v2.138h-4.23v2.165h5.006V74zM34.365 74V63.386h4.146c1.21 0 2.13.233 2.758.699.629.466.943 1.145.943 2.037.007.465-.11.923-.342 1.326a2.24 2.24 0 0 1-.972.895c.55.138 1.034.463 1.369.92.34.474.517 1.047.503 1.63 0 1.015-.33 1.786-.992 2.313-.661.527-1.633.79-2.916.788L34.365 74zm3.925-8.687h-1.398v2.388h1.383c.93 0 1.395-.407 1.395-1.222 0-.776-.46-1.164-1.38-1.166zm.334 4.246h-1.732v2.514h1.786c.941 0 1.412-.419 1.412-1.257 0-.838-.489-1.257-1.466-1.257zM62.635 63.386H59.8l-1.646 2.852-1.645-2.852h-2.835l3.063 5.307L53.674 74h2.835l1.645-2.852L59.8 74h2.835l-3.063-5.307z"/>
            <path d="M67.818 63.386h-2.835l-1.644 2.852-1.417 2.455 1.417 2.455L64.983 74h2.835l-3.065-5.307zM21.066 63.386l-2.47 6.79-2.47-6.79H13.29l3.863 10.616H20.037l3.864-10.616zM48.617 66.136a2.556 2.556 0 1 1 0 5.113 2.556 2.556 0 0 1 0-5.113m0-2.75a5.308 5.308 0 0 0-3.765 9.056 5.304 5.304 0 0 0 9.06-3.749 5.298 5.298 0 0 0-5.295-5.307z"/>
            <circle cx="45.701" cy="76.781" r="1"/>
            <path d="M0 77.946V75.47h1.723v.497H.603v.477h.986v.5H.603v.504h1.165v.5zM3.971 77.946V75.47h.564l1.127 1.512v-1.512h.61v2.477h-.574L4.57 76.431v1.515zM9.808 77.981a1.68 1.68 0 0 1-.735-.15 1.13 1.13 0 0 1-.48-.428 1.235 1.235 0 0 1-.172-.66 1.294 1.294 0 0 1 .181-.691c.123-.197.3-.355.508-.457.239-.113.5-.168.765-.163.152 0 .303.018.45.051.141.03.278.076.408.139l-.104.524a1.871 1.871 0 0 0-.76-.165.904.904 0 0 0-.42.091.664.664 0 0 0-.278.255.77.77 0 0 0-.096.389c-.012.2.062.396.204.538a.814.814 0 0 0 .578.19c.054-.001.107-.004.16-.01.056-.01.112-.021.166-.036v-.407h-.418v-.479h1.019v1.272a2.21 2.21 0 0 1-.46.14 2.49 2.49 0 0 1-.516.057zM12.991 77.946V75.47h.662v2.477zM15.93 77.946V75.47h.564l1.126 1.512v-1.512h.611v2.477h-.564l-1.128-1.515v1.515zM20.494 77.946V75.47h1.725v.497h-1.126v.477h.987v.5h-.987v.504h1.167v.5zM24.467 77.946V75.47h1.717v.497h-1.12v.477h.988v.5h-.988v.504h1.167v.5zM28.439 77.946V75.47h.904c.256-.015.509.064.71.222a.78.78 0 0 1 .257.622.725.725 0 0 1-.104.383.884.884 0 0 1-.26.28l.61.97h-.726l-.432-.796h-.334v.796h-.625zm.814-1.998h-.19v.723h.184c.285 0 .428-.122.428-.365 0-.242-.14-.358-.422-.358zM32.64 77.946V75.47h.66v2.477zM35.579 77.946V75.47h.564l1.126 1.512v-1.512h.601v2.477h-.564l-1.128-1.515v1.515zM41.414 77.981a1.67 1.67 0 0 1-.734-.15 1.13 1.13 0 0 1-.48-.428 1.235 1.235 0 0 1-.171-.66 1.294 1.294 0 0 1 .181-.691c.122-.197.298-.356.507-.457.24-.113.501-.168.766-.163.151 0 .302.018.45.051.14.03.278.076.407.139l-.104.524a1.871 1.871 0 0 0-.76-.165.918.918 0 0 0-.42.091.67.67 0 0 0-.278.255.77.77 0 0 0-.096.389c-.012.2.062.396.204.538.16.135.367.203.576.19.055-.001.11-.004.163-.01.055-.01.11-.02.163-.036v-.407h-.407v-.479h1.018v1.272a2.21 2.21 0 0 1-.46.14 2.496 2.496 0 0 1-.525.057zM49.578 77.981a1.67 1.67 0 0 1-.733-.15 1.149 1.149 0 0 1-.483-.428 1.253 1.253 0 0 1-.169-.66 1.294 1.294 0 0 1 .182-.691c.122-.197.298-.356.507-.457.239-.113.501-.168.765-.163a2.036 2.036 0 0 1 .858.19l-.106.524a1.855 1.855 0 0 0-.758-.165.918.918 0 0 0-.421.091.67.67 0 0 0-.277.255.752.752 0 0 0-.098.389c-.012.2.062.396.204.538.16.135.367.203.576.19.055-.001.109-.004.163-.01.055-.01.11-.02.163-.036v-.407h-.407v-.479h1.018v1.272c-.147.063-.3.11-.458.14a2.496 2.496 0 0 1-.526.057zM52.761 77.946V75.47h.905c.256-.015.509.064.71.222a.78.78 0 0 1 .257.622.725.725 0 0 1-.104.383.884.884 0 0 1-.26.28l.61.97h-.719l-.433-.796h-.332v.796h-.634zm.815-1.998h-.187v.723h.18c.286 0 .429-.122.429-.365 0-.242-.141-.358-.422-.358zM58.07 77.997a1.494 1.494 0 0 1-.539-.093 1.222 1.222 0 0 1-.705-.677 1.35 1.35 0 0 1-.097-.52 1.25 1.25 0 0 1 .383-.919c.123-.116.268-.21.427-.272a1.54 1.54 0 0 1 1.071-.004c.158.058.302.147.424.263.12.114.216.253.279.407.068.165.102.342.1.52 0 .175-.034.348-.102.509a1.222 1.222 0 0 1-.283.407 1.322 1.322 0 0 1-.426.271c-.168.07-.349.107-.531.108zm0-.576a.631.631 0 0 0 .577-.344.834.834 0 0 0 0-.736.627.627 0 0 0-.576-.348.641.641 0 0 0-.577.342.776.776 0 0 0-.085.369.785.785 0 0 0 .085.37.636.636 0 0 0 .577.347zM62.726 77.997a1.146 1.146 0 0 1-.843-.29 1.117 1.117 0 0 1-.297-.834v-1.404h.662v1.359c0 .395.159.593.478.593.32 0 .479-.204.479-.593v-1.359h.656v1.404c.02.306-.087.608-.296.833-.229.206-.531.311-.839.291zM66.13 77.946V75.47h.902c.177-.005.353.03.515.102a.768.768 0 0 1 .452.742.789.789 0 0 1-.257.623c-.2.162-.453.243-.71.228h-.277v.782h-.626zm.804-1.998h-.18v.733h.18c.287 0 .43-.122.43-.368 0-.247-.143-.365-.43-.365z"/>
        </g>
    </g>
</svg>
