<?xml version="1.0" encoding="UTF-8"?>
<svg width="275px" height="110px" viewBox="0 0 275 110" version="1.1" xmlns="http://www.w3.org/2000/svg" xmlns:xlink="http://www.w3.org/1999/xlink">
    <title>Group 3 Copy</title>
    <defs>
        <linearGradient x1="0.0722054381%" y1="49.9366255%" x2="99.8492447%" y2="49.9366255%" id="linearGradient-1">
            <stop stop-color="#0072BF" offset="0%"></stop>
            <stop stop-color="#00AA9D" offset="100%"></stop>
        </linearGradient>
    </defs>
    <g id="Cobranding" stroke="none" stroke-width="1" fill="none" fill-rule="evenodd">
        <g id="splashpage_eni" transform="translate(-583.000000, -295.000000)">
            <g id="Group-3-Copy" transform="translate(583.000000, 295.000000)">
                <g id="vdesk-principale-negativo" fill-rule="nonzero">
                    <g id="Group" transform="translate(63.504000, 0.000000)" fill="#00396A">
                        <path d="M0,2.4192 L31.1472,2.4192 C40.5216,2.4192 47.1744,5.5944 51.1056,11.9448 C54.8856,18.2952 56.8512,27.3672 56.8512,39.1608 C56.8512,51.5592 54.7344,60.7824 50.5008,66.8304 C46.2672,72.8784 39.7656,75.9024 31.1472,75.9024 L0,75.9024 C0,75.9024 0,2.4192 0,2.4192 Z M29.7864,62.8992 C34.1712,62.8992 37.3464,60.9336 39.312,57.0024 C41.2776,53.0712 42.1848,47.1744 42.1848,39.1608 C42.1848,32.9616 41.7312,28.1232 40.824,24.6456 C39.9168,21.168 38.556,18.9 36.7416,17.5392 C34.9272,16.1784 32.6592,15.5736 29.6352,15.5736 L14.6664,15.5736 L14.6664,62.748 L29.7864,62.8992 L29.7864,62.8992 Z" id="Shape"></path>
                        <path d="M71.3664,74.2392 C67.8888,72.576 65.4696,69.8544 63.8064,65.9232 C62.2944,61.992 61.5384,56.5488 61.5384,49.4424 C61.5384,42.1848 62.2944,36.4392 63.6552,32.508 C65.1672,28.5768 67.5864,25.8552 70.9128,24.192 C74.2392,22.5288 78.9264,21.7728 85.1256,21.7728 C90.5688,21.7728 94.8024,22.3776 97.9776,23.436 C101.1528,24.4944 103.4208,26.3088 104.7816,29.0304 C106.1424,31.752 106.8984,35.3808 106.8984,40.2192 C106.8984,45.36 105.3864,49.14 102.5136,51.2568 C99.4896,53.3736 95.256,54.5832 89.6616,54.5832 L76.2048,54.5832 C76.356,57.456 76.8096,59.5728 77.5656,61.236 C78.3216,62.748 79.5312,63.9576 81.4968,64.5624 C83.3112,65.3184 86.0328,65.6208 89.6616,65.6208 L105.084,65.6208 L105.084,74.2392 C101.6064,74.9952 98.4312,75.6 95.5584,75.9024 C92.6856,76.356 89.3592,76.5072 85.5792,76.5072 C79.5312,76.6584 74.844,75.7512 71.3664,74.2392 Z M88.1496,45.8136 C90.2664,45.8136 91.6272,45.36 92.5344,44.604 C93.4416,43.848 93.8952,42.336 93.8952,40.3704 C93.8952,37.4976 93.2904,35.3808 91.9296,34.1712 C90.5688,32.9616 88.3008,32.3568 85.1256,32.3568 C82.8576,32.3568 81.0432,32.8104 79.6824,33.5664 C78.3216,34.3224 77.4144,35.6832 76.8096,37.6488 C76.2048,39.6144 75.9024,42.336 75.9024,45.8136 L88.1496,45.8136 L88.1496,45.8136 Z" id="Shape"></path>
                        <path d="M122.472,76.0536 C118.3896,75.6 115.3656,74.9952 113.2488,74.2392 L113.2488,65.6208 L136.9872,65.6208 C139.104,65.6208 140.7672,65.3184 141.6744,64.7136 C142.5816,64.1088 143.0352,62.8992 143.0352,61.236 L143.0352,59.5728 C143.0352,58.212 142.5816,57.1536 141.6744,56.3976 C140.7672,55.6416 139.2552,55.3392 136.9872,55.3392 L128.6712,55.3392 C123.6816,55.3392 119.7504,54.1296 116.8776,51.8616 C114.0048,49.5936 112.4928,45.8136 112.4928,40.824 L112.4928,37.8 C112.4928,32.508 114.156,28.5768 117.3312,26.0064 C120.5064,23.436 126.1008,22.2264 133.9632,22.2264 C137.2896,22.2264 140.7672,22.5288 144.5472,22.9824 C148.3272,23.436 151.3512,24.0408 153.3168,24.7968 L153.3168,33.264 L130.9392,33.264 C128.8224,33.264 127.4616,33.5664 126.4032,34.3224 C125.496,34.9272 125.0424,36.1368 125.0424,37.8 L125.0424,39.312 C125.0424,40.9752 125.496,42.0336 126.5544,42.6384 C127.6128,43.2432 129.276,43.5456 131.544,43.5456 L140.1624,43.5456 C145.4544,43.5456 149.3856,44.7552 151.956,47.1744 C154.5264,49.5936 155.736,53.0712 155.736,57.6072 L155.736,62.4456 C155.736,67.7376 153.9216,71.3664 150.2928,73.4832 C146.664,75.6 141.2208,76.6584 133.9632,76.6584 C130.3344,76.6584 126.5544,76.5072 122.472,76.0536 Z" id="Path"></path>
                        <polygon id="Path" points="160.8768 0.1512 175.5432 0.1512 175.5432 41.1264 181.8936 41.1264 193.6872 22.5288 208.656 22.5288 192.9312 47.7792 210.3192 76.0536 195.3504 76.0536 181.7424 54.2808 175.6944 54.2808 175.6944 76.0536 161.028 76.0536 161.028 0.1512"></polygon>
                    </g>
                    <g id="Group" transform="translate(0.000000, 2.412000)">
                        <polygon id="Path" fill="#00396A" points="7.56 22.9896 21.7728 22.9896 19.0512 13.7664 4.536 13.7664"></polygon>
                        <polygon id="Path" fill="#00396A" points="12.096 36.7488 25.8552 36.7488 23.1336 27.5256 9.072 27.5256"></polygon>
                        <polygon id="Path" fill="#00396A" points="17.6904 9.0792 14.9688 0.0072 0 0.0072 3.024 9.0792"></polygon>
                        <polygon id="Path" fill="url(#linearGradient-1)" points="48.6864 0.0072 33.264 51.5664 31.752 58.5216 30.24 51.5664 27.216 41.2848 13.608 41.2848 24.192 73.4904 31.752 73.4904 31.752 73.4904 39.312 73.4904 63.504 0.0072"></polygon>
                    </g>
                </g>
                <text id="La-tua-scrivania-dig" font-family="Roboto-Bold, Roboto" font-size="18" font-weight="bold" fill="#00396A">
                    <tspan x="23" y="106">La tua scrivania digitale sicura</tspan>
                </text>
            </g>
        </g>
    </g>
</svg>