<?xml version="1.0" encoding="utf-8"?>
<!-- Generator: Adobe Illustrator 23.0.3, SVG Export Plug-In . SVG Version: 6.00 Build 0)  -->
<svg version="1.1" id="Livello_1" xmlns="http://www.w3.org/2000/svg" xmlns:xlink="http://www.w3.org/1999/xlink" x="0px" y="0px"
	 viewBox="0 0 300 55" style="enable-background:new 0 0 300 55;" xml:space="preserve">
<style type="text/css">
	.st0{fill:#00396A;}
	.st1{fill:url(#SVGID_1_);}
</style>
<g>
	<g>
		<path class="st0" d="M71.5,2.6c2,0.2,4,0.6,6.2,1.2l-0.8,6.7c-4.1-0.3-8.4-0.5-13-0.5c-2.7,0-4.8,0.5-6.3,1.6s-2.6,2.8-3.2,5.3
			s-0.9,6-0.9,10.4c0,4.5,0.3,8,0.9,10.4c0.6,2.5,1.7,4.2,3.2,5.3s3.6,1.6,6.3,1.6c3.2,0,5.9,0,7.9-0.1c2.1-0.1,4.1-0.3,6.1-0.6
			l0.8,6.6c-2.1,0.7-4.3,1.1-6.5,1.4c-2.2,0.3-5,0.4-8.3,0.4c-4.9,0-8.8-0.8-11.6-2.4c-2.8-1.6-4.9-4.2-6.2-7.8
			c-1.3-3.6-1.9-8.5-1.9-14.7s0.6-11.1,1.9-14.7s3.3-6.2,6.2-7.8c2.8-1.6,6.7-2.4,11.6-2.4C66.9,2.3,69.5,2.4,71.5,2.6z"/>
		<path class="st0" d="M109.6,18.8c2.1,1.8,3.1,4.9,3.1,9.3v23.3H106l-0.9-5.2c-1.5,1.6-3.4,3-5.6,4.2s-4.7,1.7-7.5,1.7
			c-3.2,0-5.8-0.9-7.8-2.6c-2-1.8-3-4.2-3-7.3v-3.5c0-2.8,0.9-4.9,2.7-6.4c1.8-1.5,4.3-2.2,7.5-2.2h12.9V28c0-1.4-0.2-2.4-0.6-3
			c-0.4-0.7-1-1.2-1.9-1.4c-0.9-0.3-2.2-0.4-3.9-0.4c-3.6,0-8.4,0.2-14.4,0.7l-0.8-6c2.5-0.5,5.4-0.9,8.8-1.2
			c3.4-0.3,6.2-0.5,8.4-0.5C104.2,16.1,107.5,17,109.6,18.8z M90.7,44.3c0.7,0.7,1.9,1,3.4,1c1.4,0,3.1-0.3,4.9-1s3.5-1.7,5.2-3V36
			H93.3c-1.4,0-2.3,0.4-2.8,1.1c-0.5,0.7-0.8,1.6-0.8,2.8v1.3C89.6,42.6,89.9,43.6,90.7,44.3z"/>
		<path class="st0" d="M148.7,18.6c1.6,1.6,2.5,4,2.5,7.1v25.8h-8.5V28.2c0-1.9-0.3-3.2-0.8-3.9c-0.5-0.7-1.5-1-2.9-1
			c-1.6,0-3.2,0.3-4.8,0.9s-3.8,1.7-6.5,3.3l0.1,23.9h-8.5V17.1h7.1l0.6,5.1c5.3-4.1,10.2-6.1,14.8-6.1
			C144.7,16.1,147.1,16.9,148.7,18.6z"/>
		<path class="st0" d="M177.2,49.4c-0.5,1.4-1.5,2-2.9,2h-7.4c-0.7,0-1.2-0.2-1.7-0.6c-0.5-0.4-0.9-0.9-1.1-1.5L152.3,17h9l7.1,22.6
			c0,0.2,0.1,0.5,0.2,0.8c0.1,0.3,0.2,0.6,0.3,0.9c0.6,1.9,1,3.3,1.2,4.2h0.9l1.8-6l7.1-22.6h9L177.2,49.4z"/>
		<path class="st0" d="M219.3,18.8c2.1,1.8,3.1,4.9,3.1,9.3v23.3h-6.7l-0.9-5.2c-1.5,1.6-3.4,3-5.6,4.2c-2.2,1.2-4.7,1.7-7.5,1.7
			c-3.2,0-5.8-0.9-7.8-2.6c-2-1.8-3-4.2-3-7.3v-3.5c0-2.8,0.9-4.9,2.7-6.4s4.3-2.2,7.5-2.2H214V28c0-1.4-0.2-2.4-0.6-3
			c-0.4-0.7-1-1.2-1.9-1.4c-0.9-0.3-2.2-0.4-3.9-0.4c-3.6,0-8.4,0.2-14.4,0.7l-0.8-6c2.5-0.5,5.4-0.9,8.8-1.2
			c3.4-0.3,6.2-0.5,8.4-0.5C214,16.1,217.2,17,219.3,18.8z M200.4,44.3c0.7,0.7,1.9,1,3.4,1c1.4,0,3.1-0.3,4.9-1
			c1.8-0.7,3.5-1.7,5.2-3V36H203c-1.4,0-2.3,0.4-2.8,1.1c-0.5,0.7-0.8,1.6-0.8,2.8v1.3C199.3,42.6,199.7,43.6,200.4,44.3z"/>
		<path class="st0" d="M249,16.5c2.8,0.2,5.3,0.5,7.4,0.8l-0.6,5.9c-5.8-0.2-10.2-0.3-13.1-0.3c-2.2,0-3.8,0-4.7,0.1
			c-0.9,0.1-1.6,0.4-2,0.8s-0.6,1.1-0.6,2c0,1.1,0.3,1.9,0.8,2.3s1.2,0.7,2.1,0.9c0.9,0.2,1.5,0.4,1.8,0.5l9.2,2.5
			c2.9,0.8,5,2,6.3,3.4c1.3,1.4,1.9,3.6,1.9,6.5c0,2.8-0.5,4.9-1.6,6.3c-1.1,1.5-2.7,2.5-4.8,3c-2.2,0.5-5.1,0.8-8.9,0.8
			c-5.1,0-9.9-0.4-14.4-1.1l0.6-6c2.4,0.2,6.3,0.3,11.7,0.3c2.5,0,4.4-0.1,5.7-0.2c1.3-0.2,2.2-0.5,2.7-0.9c0.5-0.5,0.8-1.2,0.8-2.1
			c0-0.8-0.2-1.5-0.6-1.9s-0.8-0.7-1.3-0.9s-1.5-0.5-3.2-0.9l-9-2.5c-3-0.8-5.1-2-6.3-3.6c-1.2-1.5-1.8-3.7-1.8-6.5
			c0-2.5,0.5-4.5,1.4-5.9s2.4-2.4,4.4-3s4.7-0.9,8.2-0.9C243.5,16.2,246.1,16.3,249,16.5z"/>
	</g>
	<g>
		<polygon class="st0" points="5,17.8 14.5,17.8 12.6,11.7 3,11.7 		"/>
		<polygon class="st0" points="8.1,27 17.2,27 15.4,20.9 6,20.9 		"/>
		<polygon class="st0" points="11.7,8.7 9.9,2.6 0,2.6 2,8.7 		"/>
		
			<linearGradient id="SVGID_1_" gradientUnits="userSpaceOnUse" x1="9.0634" y1="-5" x2="42.2634" y2="-5" gradientTransform="matrix(1 0 0 1 0 32)">
			<stop  offset="0" style="stop-color:#0072BF"/>
			<stop  offset="1" style="stop-color:#00AA9D"/>
		</linearGradient>
		<polygon class="st1" points="32.3,2.6 22.1,36.9 21.1,41.5 20.1,36.9 18.1,30 9.1,30 16.1,51.4 21.1,51.4 21.1,51.4 26.1,51.4 
			42.3,2.6 		"/>
	</g>
</g>
</svg>
