<?xml version="1.0" encoding="utf-8"?>
<!-- Generator: Adobe Illustrator 23.0.3, SVG Export Plug-In . SVG Version: 6.00 Build 0)  -->
<svg version="1.1" id="Livello_1" xmlns="http://www.w3.org/2000/svg" xmlns:xlink="http://www.w3.org/1999/xlink" x="0px" y="0px"
	 viewBox="0 0 300 55" style="enable-background:new 0 0 300 55;" xml:space="preserve">
<style type="text/css">
	.st0{fill:#00396A;}
	.st1{fill:url(#SVGID_1_);}
</style>
<g>
	<g>
		<path class="st0" d="M42,2.6h20.6c6.2,0,10.6,2.1,13.2,6.3c2.5,4.2,3.8,10.2,3.8,18c0,8.2-1.4,14.3-4.2,18.3s-7.1,6-12.8,6H42
			C42,51.2,42,2.6,42,2.6z M61.7,42.6c2.9,0,5-1.3,6.3-3.9c1.3-2.6,1.9-6.5,1.9-11.8c0-4.1-0.3-7.3-0.9-9.6
			c-0.6-2.3-1.5-3.8-2.7-4.7s-2.7-1.3-4.7-1.3h-9.9v31.2L61.7,42.6L61.7,42.6z"/>
		<path class="st0" d="M89.2,50.1c-2.3-1.1-3.9-2.9-5-5.5c-1-2.6-1.5-6.2-1.5-10.9c0-4.8,0.5-8.6,1.4-11.2c1-2.6,2.6-4.4,4.8-5.5
			s5.3-1.6,9.4-1.6c3.6,0,6.4,0.4,8.5,1.1s3.6,1.9,4.5,3.7c0.9,1.8,1.4,4.2,1.4,7.4c0,3.4-1,5.9-2.9,7.3c-2,1.4-4.8,2.2-8.5,2.2
			h-8.9c0.1,1.9,0.4,3.3,0.9,4.4c0.5,1,1.3,1.8,2.6,2.2c1.2,0.5,3,0.7,5.4,0.7h10.2v5.7c-2.3,0.5-4.4,0.9-6.3,1.1
			c-1.9,0.3-4.1,0.4-6.6,0.4C94.6,51.7,91.5,51.1,89.2,50.1z M100.3,31.3c1.4,0,2.3-0.3,2.9-0.8c0.6-0.5,0.9-1.5,0.9-2.8
			c0-1.9-0.4-3.3-1.3-4.1c-0.9-0.8-2.4-1.2-4.5-1.2c-1.5,0-2.7,0.3-3.6,0.8c-0.9,0.5-1.5,1.4-1.9,2.7c-0.4,1.3-0.6,3.1-0.6,5.4
			H100.3z"/>
		<path class="st0" d="M123,51.3c-2.7-0.3-4.7-0.7-6.1-1.2v-5.7h15.7c1.4,0,2.5-0.2,3.1-0.6c0.6-0.4,0.9-1.2,0.9-2.3v-1.1
			c0-0.9-0.3-1.6-0.9-2.1c-0.6-0.5-1.6-0.7-3.1-0.7h-5.5c-3.3,0-5.9-0.8-7.8-2.3c-1.9-1.5-2.9-4-2.9-7.3v-2c0-3.5,1.1-6.1,3.2-7.8
			c2.1-1.7,5.8-2.5,11-2.5c2.2,0,4.5,0.2,7,0.5c2.5,0.3,4.5,0.7,5.8,1.2V23h-14.8c-1.4,0-2.3,0.2-3,0.7c-0.6,0.4-0.9,1.2-0.9,2.3v1
			c0,1.1,0.3,1.8,1,2.2c0.7,0.4,1.8,0.6,3.3,0.6h5.7c3.5,0,6.1,0.8,7.8,2.4c1.7,1.6,2.5,3.9,2.5,6.9v3.2c0,3.5-1.2,5.9-3.6,7.3
			c-2.4,1.4-6,2.1-10.8,2.1C128.2,51.7,125.7,51.6,123,51.3z"/>
		<path class="st0" d="M148.4,1.1h9.7v27.1h4.2l7.8-12.3h9.9l-10.4,16.7l11.5,18.7h-9.9l-9-14.4h-4v14.4h-9.7V1.1H148.4z"/>
	</g>
	<g>
		<polygon class="st0" points="5,17.8 14.4,17.8 12.6,11.7 3,11.7 		"/>
		<polygon class="st0" points="8,26.9 17.1,26.9 15.3,20.8 6,20.8 		"/>
		<polygon class="st0" points="11.7,8.6 9.9,2.6 0,2.6 2,8.6 		"/>
		
			<linearGradient id="SVGID_1_" gradientUnits="userSpaceOnUse" x1="9" y1="-5.1" x2="42" y2="-5.1" gradientTransform="matrix(1 0 0 1 0 32)">
			<stop  offset="0" style="stop-color:#0072BF"/>
			<stop  offset="1" style="stop-color:#00AA9D"/>
		</linearGradient>
		<polygon class="st1" points="32.2,2.6 22,36.7 21,41.3 20,36.7 18,29.9 9,29.9 16,51.2 21,51.2 21,51.2 26,51.2 42,2.6 		"/>
	</g>
</g>
</svg>
