<?xml version="1.0" encoding="utf-8"?>
<!-- Generator: Adobe Illustrator 23.0.3, SVG Export Plug-In . SVG Version: 6.00 Build 0)  -->
<svg version="1.1" id="Livello_1" xmlns="http://www.w3.org/2000/svg" xmlns:xlink="http://www.w3.org/1999/xlink" x="0px" y="0px"
	 viewBox="0 0 300 55" style="enable-background:new 0 0 300 55;" xml:space="preserve">
<style type="text/css">
	.st0{fill:#00396A;}
	.st1{fill:url(#SVGID_1_);}
</style>
<g>
	<g>
		<path class="st0" d="M73.4,1.4c2.4,0.9,4.1,2.5,5.1,4.7s1.5,5.4,1.5,9.5s-0.5,7.3-1.5,9.5s-2.6,3.8-4.8,4.7
			c-2.2,0.9-5.3,1.4-9.2,1.4c-3.5,0-6.7-0.2-9.9-0.6V49h-8.8V0.7c2.7-0.3,5.1-0.5,7.5-0.5c2.3-0.1,5.7-0.1,10.1-0.1
			C67.7,0.1,71,0.5,73.4,1.4z M68,23.3c1.1-0.5,1.9-1.3,2.4-2.5s0.7-2.9,0.7-5.1s-0.2-4-0.7-5.1s-1.3-2-2.4-2.5s-2.7-0.7-4.8-0.7
			c-4.1,0-6.9,0-8.5,0.1V24h8.5C65.3,24,66.9,23.7,68,23.3z"/>
		<path class="st0" d="M111.8,42.1l0.8,5.5c-1.7,0.8-3.8,1.4-6.4,1.8c-2.6,0.4-5.2,0.6-7.7,0.6c-4.2,0-7.5-0.6-10-1.8
			s-4.3-3.1-5.4-5.7c-1.1-2.6-1.7-6.1-1.7-10.5c0-4.5,0.6-8.1,1.7-10.7s2.9-4.5,5.3-5.6S94,14,98,14c5.5,0,9.4,1,11.9,3
			s3.7,5,3.7,8.9c0,6.5-3.1,9.8-9.2,9.8h-14c0.2,2.1,0.7,3.6,1.4,4.7c0.7,1.1,1.6,1.8,2.8,2.2s2.9,0.6,5,0.6
			C103,42.9,107.1,42.7,111.8,42.1z M93.5,21.2c-1.1,0.5-1.9,1.4-2.5,2.7c-0.5,1.3-0.8,3.1-0.9,5.6h11.8c1.2,0,2-0.4,2.5-1.1
			c0.4-0.7,0.6-1.7,0.6-2.9c0-1.9-0.5-3.2-1.5-3.9c-1-0.7-2.8-1.1-5.3-1.1C96.2,20.5,94.6,20.7,93.5,21.2z"/>
		<path class="st0" d="M145.2,15.5c2.5,1.2,4.2,3.1,5.3,5.7s1.6,6.2,1.6,10.6s-0.5,8-1.6,10.6s-2.9,4.5-5.3,5.7
			c-2.5,1.2-5.8,1.8-9.9,1.8c-4.2,0-7.5-0.6-10-1.8s-4.2-3.1-5.4-5.7c-1.1-2.6-1.7-6.1-1.7-10.6c0-4.4,0.6-8,1.7-10.6
			c1.1-2.6,2.9-4.6,5.4-5.7c2.5-1.2,5.8-1.8,9.9-1.8C139.4,13.7,142.7,14.3,145.2,15.5z M130.3,21.5c-1.1,0.7-2,1.8-2.5,3.4
			c-0.5,1.6-0.7,3.9-0.7,7c0,3,0.2,5.3,0.7,6.9c0.5,1.6,1.3,2.7,2.5,3.4c1.1,0.7,2.8,1,4.9,1c2.1,0,3.7-0.3,4.9-1
			c1.1-0.7,2-1.8,2.5-3.4c0.5-1.6,0.7-3.9,0.7-6.9s-0.2-5.4-0.7-7s-1.3-2.7-2.5-3.4c-1.1-0.7-2.8-1-4.9-1
			C133.1,20.5,131.5,20.9,130.3,21.5z"/>
		<path class="st0" d="M187.9,18.5c1.9,3.1,2.8,7.7,2.8,13.7c0,4.4-0.5,7.9-1.5,10.5s-2.4,4.4-4.3,5.5c-1.9,1.1-4.4,1.7-7.4,1.7
			c-4.7,0-8.6-1.1-11.8-3.4c0.1,2.6,0.2,5,0.1,7.1V55h-8.5V14.7h7l0.6,5c1.6-1.7,3.7-3.2,6.3-4.3s5.2-1.7,7.7-1.7
			C183.1,13.8,186,15.4,187.9,18.5z M179.1,42.1c1-0.6,1.7-1.6,2.1-3.2c0.4-1.5,0.7-3.8,0.7-6.9c0-2.9-0.2-5.2-0.6-6.8
			c-0.4-1.6-1-2.8-1.9-3.5s-2.1-1-3.6-1c-1.6,0-3.1,0.3-4.6,1s-3.3,1.8-5.4,3.3v16.4c0.4,0.1,1.2,0.3,2.5,0.6
			c1.3,0.3,2.5,0.5,3.6,0.7c1.1,0.1,2.1,0.2,3.1,0.2C176.8,42.9,178.2,42.7,179.1,42.1z"/>
		<path class="st0" d="M204.5,38.3c0,2.7,1.4,4,4.1,4h2.9l1,6.3c-0.7,0.4-1.8,0.7-3.3,0.9s-2.8,0.3-4,0.3c-2.8,0-5.1-0.8-6.8-2.5
			c-1.7-1.6-2.5-3.9-2.5-6.9V0h8.5L204.5,38.3z"/>
		<path class="st0" d="M244.1,42.1l0.8,5.5c-1.7,0.8-3.8,1.4-6.4,1.8c-2.6,0.4-5.2,0.6-7.7,0.6c-4.2,0-7.5-0.6-10-1.8
			s-4.3-3.1-5.4-5.7c-1.1-2.6-1.7-6.1-1.7-10.5c0-4.5,0.6-8.1,1.7-10.7c1.1-2.6,2.9-4.5,5.3-5.6c2.4-1.1,5.6-1.7,9.6-1.7
			c5.5,0,9.4,1,11.9,3s3.7,5,3.7,8.9c0,6.5-3.1,9.8-9.2,9.8h-14c0.2,2.1,0.7,3.6,1.4,4.7c0.7,1.1,1.6,1.8,2.8,2.2
			c1.2,0.4,2.9,0.6,5,0.6C235.3,42.9,239.4,42.7,244.1,42.1z M225.8,21.2c-1.1,0.5-1.9,1.4-2.5,2.7c-0.5,1.3-0.8,3.1-0.9,5.6h11.8
			c1.2,0,2-0.4,2.5-1.1c0.4-0.7,0.6-1.7,0.6-2.9c0-1.9-0.5-3.2-1.5-3.9c-1-0.7-2.8-1.1-5.3-1.1C228.5,20.5,226.9,20.7,225.8,21.2z"
			/>
	</g>
	<g>
		<polygon class="st0" points="5.1,15.4 14.5,15.4 12.7,9.3 3.1,9.3 		"/>
		<polygon class="st0" points="8.1,24.6 17.2,24.6 15.4,18.5 6.1,18.5 		"/>
		<polygon class="st0" points="11.8,6.3 10,0.2 0,0.2 2.1,6.3 		"/>
		
			<linearGradient id="SVGID_1_" gradientUnits="userSpaceOnUse" x1="9.1" y1="-7.4" x2="42.3" y2="-7.4" gradientTransform="matrix(1 0 0 1 0 32)">
			<stop  offset="0" style="stop-color:#0072BF"/>
			<stop  offset="1" style="stop-color:#00AA9D"/>
		</linearGradient>
		<polygon class="st1" points="32.4,0.2 22.2,34.5 21.2,39.1 20.2,34.5 18.1,27.7 9.1,27.7 16.2,49 21.2,49 21.2,49 26.2,49 
			42.3,0.2 		"/>
	</g>
</g>
</svg>
