<?xml version="1.0" encoding="utf-8"?>
<!-- Generator: Adobe Illustrator 23.0.3, SVG Export Plug-In . SVG Version: 6.00 Build 0)  -->
<svg version="1.1" id="Livello_1" xmlns="http://www.w3.org/2000/svg" xmlns:xlink="http://www.w3.org/1999/xlink" x="0px" y="0px"
	 viewBox="0 0 300 55" style="enable-background:new 0 0 300 55;" xml:space="preserve">
<style type="text/css">
	.st0{fill:#00396A;}
	.st1{fill:url(#SVGID_1_);}
</style>
<g>
	<g>
		<path class="st0" d="M75.5,4.5l-0.6,6.2c-5.3-0.2-10.1-0.3-14.4-0.3c-2.2,0-3.8,0.1-4.9,0.3s-1.9,0.7-2.4,1.5s-0.8,2-0.8,3.7
			c0,1.4,0.2,2.5,0.6,3.3s0.9,1.4,1.6,1.9c0.7,0.4,1.8,0.9,3.2,1.3l9.3,2.9c3.7,1.2,6.3,2.9,7.7,5.1c1.5,2.3,2.2,5.2,2.2,8.9
			c0,3.6-0.6,6.4-1.7,8.4c-1.1,1.9-2.9,3.3-5.3,4s-5.8,1.1-10.2,1.1c-5.3,0-10.6-0.5-15.7-1.5l0.6-6.4c0.8,0,1.4,0,1.8,0.1
			c7.8,0.1,12.3,0.2,13.5,0.2c2.2,0,3.9-0.2,5-0.5s1.9-0.9,2.4-1.7s0.7-2.1,0.7-3.7c0-1.4-0.2-2.6-0.5-3.3c-0.4-0.8-0.9-1.4-1.6-1.8
			c-0.7-0.4-1.7-0.8-3-1.3l-9.7-3.1c-3.5-1.1-6-2.8-7.5-5.1s-2.2-5.2-2.2-8.9c0-3.6,0.6-6.4,1.7-8.2s2.9-3.1,5.2-3.7
			c2.3-0.7,5.5-1,9.7-1C66.3,2.9,71.3,3.4,75.5,4.5z"/>
		<path class="st0" d="M111.8,19.2c1.6,1.6,2.5,4,2.5,7.1v25.8h-8.5V28.9c0-1.9-0.3-3.2-0.8-3.9c-0.5-0.7-1.5-1-2.9-1
			c-1.6,0-3.2,0.3-4.8,0.9s-3.8,1.7-6.4,3.2V52h-8.5V3h8.5L91,15.6c0,2.5-0.2,4.8-0.6,6.9c5.2-3.8,10-5.7,14.5-5.7
			C107.8,16.8,110.2,17.6,111.8,19.2z"/>
		<path class="st0" d="M147.5,19.4c2.1,1.8,3.1,4.9,3.1,9.3V52h-6.7l-0.9-5.2c-1.5,1.6-3.4,3-5.6,4.2s-4.7,1.7-7.5,1.7
			c-3.2,0-5.8-0.9-7.8-2.6c-2-1.8-3-4.2-3-7.3v-3.5c0-2.8,0.9-4.9,2.7-6.4s4.3-2.2,7.5-2.2h12.9v-2.1c0-1.4-0.2-2.4-0.6-3
			c-0.4-0.7-1-1.2-1.9-1.4c-0.9-0.3-2.2-0.4-3.9-0.4c-3.6,0-8.4,0.2-14.4,0.7l-0.8-6c2.5-0.5,5.4-0.9,8.8-1.2
			c3.4-0.3,6.2-0.5,8.4-0.5C142.2,16.8,145.4,17.6,147.5,19.4z M128.6,44.9c0.7,0.7,1.9,1,3.4,1c1.4,0,3.1-0.3,4.9-1s3.5-1.7,5.2-3
			v-5.3h-10.9c-1.4,0-2.3,0.4-2.8,1.1c-0.5,0.7-0.8,1.6-0.8,2.8v1.3C127.5,43.2,127.9,44.3,128.6,44.9z"/>
		<path class="st0" d="M180.3,16.8l-0.9,8h-2.5c-1.5,0-3.1,0.2-4.7,0.7c-1.6,0.5-3.9,1.2-6.7,2.3v24.3H157V17.7h6.7l0.8,5
			c2.4-2,4.8-3.5,7.2-4.5s4.7-1.5,7-1.5L180.3,16.8L180.3,16.8z"/>
		<path class="st0" d="M211.7,45.1l0.8,5.5c-1.7,0.8-3.8,1.4-6.4,1.8c-2.6,0.4-5.2,0.6-7.7,0.6c-4.2,0-7.5-0.6-10-1.8
			s-4.3-3.1-5.4-5.7c-1.1-2.6-1.7-6.1-1.7-10.5c0-4.5,0.6-8.1,1.7-10.7s2.9-4.5,5.3-5.6s5.6-1.7,9.6-1.7c5.5,0,9.4,1,11.9,3
			s3.7,5,3.7,8.9c0,6.5-3.1,9.8-9.2,9.8h-14c0.2,2.1,0.7,3.6,1.4,4.7c0.7,1.1,1.6,1.8,2.8,2.2c1.2,0.4,2.9,0.6,5,0.6
			C202.8,46,207,45.7,211.7,45.1z M193.3,24.3c-1.1,0.5-1.9,1.4-2.5,2.7c-0.5,1.3-0.8,3.1-0.9,5.6h11.8c1.2,0,2-0.4,2.5-1.1
			c0.4-0.7,0.6-1.7,0.6-2.9c0-1.9-0.5-3.2-1.5-3.9c-1-0.7-2.8-1.1-5.3-1.1C196,23.5,194.4,23.7,193.3,24.3z"/>
	</g>
	<g>
		<polygon class="st0" points="5,18.5 14.4,18.5 12.6,12.3 3,12.3 		"/>
		<polygon class="st0" points="8,27.6 17.1,27.6 15.3,21.5 6,21.5 		"/>
		<polygon class="st0" points="11.7,9.3 9.9,3.2 0,3.2 2,9.3 		"/>
		
			<linearGradient id="SVGID_1_" gradientUnits="userSpaceOnUse" x1="9" y1="-4.35" x2="42.2" y2="-4.35" gradientTransform="matrix(1 0 0 1 0 32)">
			<stop  offset="0" style="stop-color:#0072BF"/>
			<stop  offset="1" style="stop-color:#00AA9D"/>
		</linearGradient>
		<polygon class="st1" points="32.3,3.2 22.1,37.5 21.1,42.1 20.1,37.5 18,30.7 9,30.7 16.1,52.1 21.1,52.1 21.1,52.1 26.1,52.1 
			42.2,3.2 		"/>
	</g>
</g>
</svg>
