<?xml version="1.0" encoding="utf-8"?>
<!-- Generator: Adobe Illustrator 22.0.1, SVG Export Plug-In . SVG Version: 6.00 Build 0)  -->
<svg version="1.1" id="Livello_1" xmlns="http://www.w3.org/2000/svg" xmlns:xlink="http://www.w3.org/1999/xlink" x="0px" y="0px"
	 height="40" viewBox="0 0 111 40" width="111" style="enable-background:new 0 0 111 40;" xml:space="preserve">
<style type="text/css">
	.st0{fill:#FFFFFF;}
</style>
<path d="M106,40H5c-2.8,0-5-2.2-5-5V5c0-2.8,2.2-5,5-5h101c2.8,0,5,2.2,5,5v30C111,37.8,108.8,40,106,40z"/>
<path class="st0" d="M28.2,6.2c-1.3,0.1-2.8,0.9-3.8,1.9c-0.8,0.9-1.5,2.5-1.3,3.9c1.4,0.1,2.9-0.7,3.8-1.8
	C27.8,9.2,28.4,7.7,28.2,6.2z M70,6.6v6.9h1V6.6H70L70,6.6z M87.2,6.6v2.7h0c-0.3-0.4-0.7-0.6-1.3-0.6c-0.6,0-1.1,0.2-1.5,0.7
	c-0.4,0.5-0.6,1.1-0.6,1.9c0,0.7,0.2,1.3,0.6,1.7s0.8,0.7,1.4,0.7c0.7,0,1.2-0.3,1.5-0.9h0l0,0.8h0.9c0-0.4,0-0.8,0-1.3V6.6H87.2
	L87.2,6.6z M45.5,6.8c-0.6,0-1.2,0-1.8,0.1v6.4c0.4,0.1,0.9,0.1,1.5,0.1c1.2,0,2.1-0.3,2.8-0.8c0.7-0.6,1.1-1.5,1.1-2.7
	c0-1-0.3-1.9-1-2.4C47.5,7.1,46.6,6.8,45.5,6.8L45.5,6.8z M45.6,7.7c0.8,0,1.4,0.2,1.8,0.6c0.4,0.4,0.6,1,0.6,1.8
	c0,0.9-0.2,1.5-0.7,1.9s-1.1,0.7-1.9,0.7c-0.2,0-0.5,0-0.7,0V7.7C45,7.7,45.2,7.7,45.6,7.7L45.6,7.7z M66.6,8.6
	c-0.3,0-0.7,0.1-1,0.3c-0.2,0.1-0.4,0.3-0.5,0.6h0l0-0.7h-0.9c0,0.5,0,0.9,0,1.4v3.4h1v-2.8c0-0.3,0.1-0.6,0.3-0.8
	c0.2-0.2,0.5-0.4,0.8-0.3c0.6,0,0.9,0.4,0.9,1.2v2.7h1v-2.8c0-0.7-0.2-1.2-0.5-1.6C67.4,8.8,67,8.6,66.6,8.6L66.6,8.6z M52.6,8.6
	c-0.7,0-1.3,0.2-1.7,0.7s-0.6,1.1-0.6,1.8c0,0.7,0.2,1.3,0.6,1.7c0.4,0.5,1,0.7,1.7,0.7c0.7,0,1.3-0.2,1.7-0.7
	c0.4-0.5,0.6-1.1,0.6-1.8c0-0.7-0.2-1.3-0.6-1.7C53.9,8.9,53.3,8.6,52.6,8.6z M75,8.6c-0.7,0-1.3,0.2-1.7,0.7s-0.6,1.1-0.6,1.8
	c0,0.7,0.2,1.3,0.6,1.7c0.4,0.5,1,0.7,1.7,0.7c0.7,0,1.3-0.2,1.7-0.7c0.4-0.5,0.6-1.1,0.6-1.8c0-0.7-0.2-1.3-0.6-1.7
	C76.2,8.9,75.7,8.6,75,8.6L75,8.6z M80.4,8.6c-0.6,0-1.2,0.1-1.6,0.4L79,9.7c0.4-0.2,0.8-0.4,1.2-0.4c0.7,0,1,0.3,1,0.9v0.1
	c-0.9,0-1.6,0.1-2,0.4c-0.5,0.3-0.7,0.7-0.7,1.3c0,0.4,0.1,0.7,0.4,1c0.3,0.3,0.6,0.4,1.1,0.4c0.6,0,1.1-0.2,1.4-0.6h0l0.1,0.5h0.9
	c-0.1-0.4-0.1-0.7-0.1-1.1v-1.7C82.3,9.3,81.6,8.6,80.4,8.6L80.4,8.6z M55.9,8.7l1.4,4.7h1l0.7-2c0.2-0.5,0.3-1,0.4-1.5h0
	c0.1,0.5,0.2,1,0.4,1.5l0.6,2h1l1.5-4.7h-1l-0.6,2.2c-0.1,0.6-0.2,1.1-0.3,1.6h0c-0.1-0.5-0.2-1-0.4-1.6l-0.6-2.2h-0.9L58.3,11
	c-0.2,0.6-0.3,1.1-0.4,1.5h0c-0.1-0.5-0.2-1-0.3-1.5L57,8.7H55.9L55.9,8.7z M52.6,9.4c0.4,0,0.7,0.2,0.9,0.6
	c0.2,0.3,0.3,0.7,0.3,1.1s-0.1,0.8-0.3,1.1c-0.2,0.4-0.5,0.6-0.9,0.6c-0.4,0-0.7-0.2-1-0.6c-0.2-0.3-0.3-0.7-0.3-1.1
	c0-0.4,0.1-0.8,0.3-1.1C51.9,9.6,52.2,9.4,52.6,9.4L52.6,9.4z M74.9,9.4c0.4,0,0.7,0.2,0.9,0.6c0.2,0.3,0.3,0.7,0.3,1.1
	s-0.1,0.8-0.3,1.1c-0.2,0.4-0.5,0.6-0.9,0.6c-0.4,0-0.7-0.2-1-0.6c-0.2-0.3-0.3-0.7-0.3-1.1c0-0.4,0.1-0.8,0.3-1.1
	C74.2,9.6,74.5,9.4,74.9,9.4L74.9,9.4z M86.1,9.4c0.3,0,0.5,0.1,0.7,0.3c0.3,0.2,0.4,0.6,0.4,1v0.8c0,0.3-0.1,0.6-0.3,0.9
	c-0.2,0.3-0.5,0.4-0.8,0.4c-0.4,0-0.7-0.2-0.9-0.5c-0.2-0.3-0.3-0.7-0.3-1.1c0-0.5,0.1-0.9,0.3-1.2C85.4,9.6,85.7,9.4,86.1,9.4
	L86.1,9.4z M81.2,11.1v0.7c0,0.3-0.1,0.6-0.4,0.7c-0.2,0.1-0.4,0.2-0.6,0.2c-0.2,0-0.4-0.1-0.5-0.2s-0.2-0.3-0.2-0.6
	C79.5,11.4,80.1,11.1,81.2,11.1L81.2,11.1z M27.5,12.4c-1.7,0.1-3.3,1.2-4.1,1.2c-1,0-2.6-1.2-4.2-1.1c-2.1,0-4.1,1.3-5.2,3.2
	c-2.3,3.9-0.6,9.7,1.6,12.9c1.1,1.6,2.4,3.3,4,3.2c1.6-0.1,2.2-1,4.2-1c1.9,0,2.5,1,4.2,1c1.7,0,2.8-1.6,3.9-3.1
	c1.3-1.8,1.8-3.5,1.8-3.6c0,0-3.4-1.3-3.4-5.2c0-3.2,2.6-4.8,2.8-4.9c-1.5-2.2-3.9-2.5-4.7-2.5C28,12.4,27.7,12.4,27.5,12.4
	L27.5,12.4z"/>
<g>
	<path class="st0" d="M43.3,31.2v-7.5H42V22h1.3v-0.4c0-1.2,0.3-2.4,1.1-3.2c0.7-0.6,1.6-0.9,2.4-0.9c0.6,0,1.1,0.1,1.5,0.2
		l-0.2,1.8c-0.2-0.1-0.6-0.2-1-0.2c-1.2,0-1.6,1-1.6,2.1V22h2v1.7h-2v7.5H43.3z"/>
	<path class="st0" d="M57.7,26.5c0,3.4-2.4,4.9-4.7,4.9c-2.6,0-4.6-1.8-4.6-4.8c0-3,2-4.9,4.8-4.9C55.8,21.8,57.7,23.7,57.7,26.5z
		 M50.7,26.6c0,1.8,0.9,3.1,2.3,3.1c1.3,0,2.3-1.3,2.3-3.2c0-1.4-0.6-3.1-2.2-3.1C51.3,23.5,50.7,25.1,50.7,26.6z"/>
	<path class="st0" d="M59.6,25c0-1.3,0-2.1-0.1-3h2l0.1,1.8h0.1c0.5-1.3,1.5-2,2.5-2c0.2,0,0.4,0,0.6,0.1v2.2
		c-0.2,0-0.4-0.1-0.7-0.1c-1.1,0-1.9,0.7-2.1,1.8c0,0.2-0.1,0.5-0.1,0.7v4.8h-2.3V25z"/>
	<path class="st0" d="M72.8,19.4c0,0.7-0.5,1.3-1.3,1.3c-0.8,0-1.3-0.6-1.3-1.3c0-0.7,0.5-1.3,1.3-1.3
		C72.2,18.1,72.7,18.7,72.8,19.4z M70.3,31.2V22h2.4v9.3H70.3z"/>
	<path class="st0" d="M86.6,24.7c0,4.3-2.6,6.7-6.1,6.7c-3.6,0-5.9-2.8-5.9-6.5c0-3.9,2.5-6.7,6.1-6.7
		C84.4,18.2,86.6,21.1,86.6,24.7z M77,24.9c0,2.6,1.3,4.7,3.6,4.7c2.3,0,3.5-2.1,3.5-4.8c0-2.4-1.2-4.7-3.5-4.7
		C78.3,20.1,77,22.3,77,24.9z"/>
	<path class="st0" d="M88.5,28.7c0.8,0.4,1.9,0.8,3.1,0.8c1.5,0,2.3-0.7,2.3-1.7c0-1-0.6-1.5-2.3-2.1c-2.1-0.8-3.5-1.9-3.5-3.7
		c0-2.1,1.7-3.7,4.5-3.7c1.4,0,2.4,0.3,3.1,0.6l-0.6,1.9c-0.5-0.2-1.3-0.6-2.5-0.6c-1.5,0-2.1,0.8-2.1,1.5c0,1,0.7,1.4,2.5,2.1
		c2.2,0.8,3.3,2,3.3,3.8c0,2.1-1.6,3.8-4.9,3.8c-1.3,0-2.8-0.4-3.5-0.8L88.5,28.7z"/>
</g>
</svg>
