<?xml version="1.0" encoding="utf-8"?>
<!-- Generator: Adobe Illustrator 22.0.1, SVG Export Plug-In . SVG Version: 6.00 Build 0)  -->
<svg version="1.1" id="Livello_1" xmlns="http://www.w3.org/2000/svg" xmlns:xlink="http://www.w3.org/1999/xlink" x="0px" y="0px"
	 viewBox="0 0 32 32" style="enable-background:new 0 0 32 32;" xml:space="preserve">
<style type="text/css">
	.st0{fill:#FFFFFF;}
	.st1{fill:none;stroke:#BDCCD4;stroke-width:1;stroke-miterlimit:10;}
	.st2{fill:none;stroke:#FFFFFF;stroke-width:3;stroke-miterlimit:10;}
	.st3{fill:none;stroke:#2E609E;stroke-width:1;stroke-miterlimit:10;}
	.st4{fill:none;stroke:#2E609E;stroke-width:1.25;stroke-miterlimit:10;}
</style>
<path class="st0" d="M5,0h22c2.8,0,5,2.2,5,5v22c0,2.8-2.2,5-5,5H5c-2.8,0-5-2.2-5-5V5C0,2.2,2.2,0,5,0z"/>
<g>
	<polyline class="st1" points="24.4,21.4 7.7,21.4 16,6.9 	"/>
	<circle class="st2" cx="16" cy="6.9" r="2.6"/>
	<circle class="st2" cx="7.7" cy="21.4" r="2.6"/>
	<circle class="st2" cx="24.3" cy="21.4" r="2.6"/>
	<circle class="st3" cx="16" cy="16.5" r="9.7"/>
	<circle class="st4" cx="16" cy="6.9" r="2.6"/>
	<circle class="st4" cx="7.7" cy="21.4" r="2.6"/>
	<circle class="st4" cx="24.3" cy="21.4" r="2.6"/>
	<circle class="st0" cx="16" cy="6.9" r="2.2"/>
	<circle class="st0" cx="7.7" cy="21.4" r="2.2"/>
	<circle class="st0" cx="24.3" cy="21.4" r="2.2"/>
</g>
</svg>
