<?xml version="1.0" encoding="utf-8"?>
<!-- Generator: Adobe Illustrator 22.0.1, SVG Export Plug-In . SVG Version: 6.00 Build 0)  -->
<svg version="1.1" id="Livello_1" xmlns="http://www.w3.org/2000/svg" xmlns:xlink="http://www.w3.org/1999/xlink" x="0px" y="0px"
	 viewBox="0 0 128 128" style="enable-background:new 0 0 128 128;" xml:space="preserve">
<style type="text/css">
	.st0{fill:#004488;}
	.st1{fill:#FFFFFF;}
	.st2{opacity:0.5;}
</style>
<path class="st0" d="M20,0h88c11,0,20,9,20,20v88c0,11-9,20-20,20H20c-11,0-20-9-20-20V20C0,9,9,0,20,0z"/>
<g>
	<path class="st1" d="M108.6,81.5c-1.1-2-2.7-3.5-4.5-4.6c0.6-2.8,0.9-5.7,0.9-8.7c0-18-11.7-33.3-27.9-38.8c-0.1-2-0.6-4.1-1.7-5.9
		c-3.6-6.2-11.6-8.3-17.8-4.8c-3,1.7-5.2,4.5-6.1,7.9c-0.2,0.9-0.4,1.9-0.4,2.8c-16.2,5.4-27.9,20.8-27.9,38.8
		c0,2.9,0.3,5.8,0.9,8.6c0,0,0,0,0,0c-6.2,3.6-8.3,11.6-4.8,17.8c2.4,4.2,6.8,6.5,11.3,6.5c2.2,0,4.4-0.6,6.5-1.7
		c0.1-0.1,0.2-0.1,0.3-0.2c7.2,6.2,16.5,10,26.7,10c10.2,0,19.5-3.7,26.6-9.9c2,1.2,4.3,1.8,6.6,1.8c2.2,0,4.4-0.6,6.5-1.7
		c3-1.7,5.2-4.5,6.1-7.9C110.8,88,110.4,84.5,108.6,81.5z M59.8,22.5c4.1-2.4,9.4-1,11.8,3.2c2.4,4.1,1,9.4-3.2,11.8
		c-4.1,2.4-9.4,1-11.8-3.2C54.3,30.1,55.7,24.9,59.8,22.5z M34.9,95.4c-4.1,2.4-9.4,1-11.8-3.2c-2.4-4.1-1-9.4,3.2-11.8
		c4.1-2.4,9.4-1,11.8,3.2C40.5,87.8,39.1,93.1,34.9,95.4z M86.1,94.5c0.4,0.8,1,1.5,1.5,2.1c-6.4,5.3-14.6,8.5-23.5,8.5
		c-9,0-17.2-3.2-23.7-8.6c1.3-1.5,2.2-3.2,2.7-5.1c0.9-3.4,0.4-6.9-1.3-9.9c-2.9-5-8.6-7.3-14-6.2c-0.5-2.3-0.7-4.7-0.7-7.1
		c0-16,10.2-29.6,24.4-34.7c0.3,1,0.7,2.1,1.3,3c1.7,3,4.5,5.2,7.9,6.1c1.1,0.3,2.3,0.4,3.4,0.4c2.3,0,4.5-0.6,6.5-1.7
		c3.1-1.8,5.1-4.6,6-7.8C90.8,38.6,101,52.2,101,68.2c0,2.5-0.2,4.9-0.7,7.2c-3.1-0.7-6.5-0.3-9.5,1.4
		C84.7,80.3,82.5,88.3,86.1,94.5z M101.7,95.4c-4.1,2.4-9.4,1-11.8-3.2c-2.4-4.1-1-9.4,3.2-11.8c4.1-2.4,9.4-1,11.8,3.2
		C107.2,87.8,105.8,93.1,101.7,95.4z"/>
	<g class="st2">
		<path class="st1" d="M54.2,43.1L37.1,72.8c1.2,0.5,2.4,1.2,3.5,2l17.1-29.7C56.4,44.6,55.3,43.9,54.2,43.1z"/>
		<path class="st1" d="M81,90.2c-0.2-1.3-0.2-2.7-0.1-4H47c0.1,1.3,0.1,2.7-0.1,4H81z"/>
	</g>
</g>
</svg>
