<?xml version="1.0" encoding="utf-8"?>
<!-- Generator: Adobe Illustrator 22.0.1, SVG Export Plug-In . SVG Version: 6.00 Build 0)  -->
<svg version="1.1" id="Livello_1" xmlns="http://www.w3.org/2000/svg" xmlns:xlink="http://www.w3.org/1999/xlink" x="0px" y="0px"
	 viewBox="0 0 256 128" style="enable-background:new 0 0 256 128;" xml:space="preserve">
<style type="text/css">
	.st0{fill:#FFFFFF;}
	.st1{opacity:0.5;}
</style>
<path class="st0" d="M177.9,81c0.7-3.5,1.1-7.1,1.1-10.7c0-22.5-14.6-41.6-34.9-48.4c-0.2-8.7-7.3-15.7-16.1-15.7
	c-8.8,0-15.9,7-16.1,15.7C91.6,28.6,77,47.8,77,70.2c0,3.7,0.4,7.3,1.1,10.7c-4.6,2.8-7.8,7.9-7.8,13.8c0,8.9,7.2,16.1,16.1,16.1
	c2.9,0,5.7-0.8,8.1-2.2c9,7.8,20.7,12.6,33.4,12.6c12.8,0,24.5-4.7,33.4-12.6c2.4,1.4,5.1,2.2,8.1,2.2c8.9,0,16.1-7.2,16.1-16.1
	C185.6,88.9,182.5,83.8,177.9,81z M128,11.2c6.1,0,11,4.9,11,11s-4.9,11-11,11s-11-4.9-11-11S121.9,11.2,128,11.2z M86.5,105.8
	c-6.1,0-11-4.9-11-11s4.9-11,11-11s11,4.9,11,11S92.6,105.8,86.5,105.8z M157.5,105.5c-8,6.7-18.3,10.8-29.5,10.8s-21.5-4-29.5-10.8
	c2.6-2.9,4.1-6.6,4.1-10.7c0-8.9-7.2-16.1-16.1-16.1c-1.3,0-2.5,0.2-3.6,0.4c-0.6-2.9-0.9-5.8-0.9-8.8c0-20,12.8-37,30.6-43.3
	c2,6.6,8.2,11.5,15.4,11.5c7.3,0,13.4-4.8,15.4-11.5c17.8,6.4,30.6,23.4,30.6,43.3c0,3-0.3,6-0.9,8.8c-1.2-0.3-2.4-0.4-3.6-0.4
	c-8.9,0-16.1,7.2-16.1,16.1C153.4,98.9,154.9,102.6,157.5,105.5z M169.5,105.8c-6.1,0-11-4.9-11-11s4.9-11,11-11s11,4.9,11,11
	S175.6,105.8,169.5,105.8z"/>
<g class="st1">
	<path class="st0" d="M115.7,38.6L94.4,75.9c1.6,0.7,3,1.5,4.3,2.5l21.3-37.2C118.5,40.5,117.1,39.6,115.7,38.6z"/>
	<path class="st0" d="M106.8,92.2c0.1,0.8,0.2,1.7,0.2,2.5s-0.1,1.7-0.2,2.5h42.3c-0.1-0.8-0.2-1.7-0.2-2.5s0.1-1.7,0.2-2.5H106.8z"
		/>
</g>
</svg>
