<?xml version="1.0" encoding="UTF-8"?>
<svg width="214px" height="51px" viewBox="0 0 214 51" version="1.1" xmlns="http://www.w3.org/2000/svg" xmlns:xlink="http://www.w3.org/1999/xlink">
    <title>vcanvas-principale-negativo</title>
    <g id="Page-1" stroke="none" stroke-width="1" fill="none" fill-rule="evenodd">
        <g id="vcanvas-principale-negativo" fill="#FFFFFF" fill-rule="nonzero">
            <g id="Group">
                <path d="M27.5,0.6 C29.5,0.8 31.5,1.2 33.7,1.8 L32.9,8.5 C28.8,8.2 24.5,8 19.9,8 C17.2,8 15.1,8.5 13.6,9.6 C12.1,10.7 11,12.4 10.4,14.9 C9.8,17.4 9.5,20.9 9.5,25.3 C9.5,29.8 9.8,33.3 10.4,35.7 C11,38.2 12.1,39.9 13.6,41 C15.1,42.1 17.2,42.6 19.9,42.6 C23.1,42.6 25.8,42.6 27.8,42.5 C29.9,42.4 31.9,42.2 33.9,41.9 L34.7,48.5 C32.6,49.2 30.4,49.6 28.2,49.9 C26,50.2 23.2,50.3 19.9,50.3 C15,50.3 11.1,49.5 8.3,47.9 C5.5,46.3 3.4,43.7 2.1,40.1 C0.8,36.5 0.2,31.6 0.2,25.4 C0.2,19.2 0.8,14.3 2.1,10.7 C3.4,7.1 5.4,4.5 8.3,2.9 C11.1,1.3 15,0.5 19.9,0.5 C22.9,0.3 25.5,0.4 27.5,0.6 Z" id="Path"></path>
                <path d="M65.6,16.8 C67.7,18.6 68.7,21.7 68.7,26.1 L68.7,49.4 L62,49.4 L61.1,44.2 C59.6,45.8 57.7,47.2 55.5,48.4 C53.3,49.6 50.8,50.1 48,50.1 C44.8,50.1 42.2,49.2 40.2,47.5 C38.2,45.7 37.2,43.3 37.2,40.2 L37.2,36.7 C37.2,33.9 38.1,31.8 39.9,30.3 C41.7,28.8 44.2,28.1 47.4,28.1 L60.3,28.1 L60.3,26 C60.3,24.6 60.1,23.6 59.7,23 C59.3,22.3 58.7,21.8 57.8,21.6 C56.9,21.3 55.6,21.2 53.9,21.2 C50.3,21.2 45.5,21.4 39.5,21.9 L38.7,15.9 C41.2,15.4 44.1,15 47.5,14.7 C50.9,14.4 53.7,14.2 55.9,14.2 C60.2,14.1 63.5,15 65.6,16.8 Z M46.7,42.3 C47.4,43 48.6,43.3 50.1,43.3 C51.5,43.3 53.2,43 55,42.3 C56.8,41.6 58.5,40.6 60.2,39.3 L60.2,34 L49.3,34 C47.9,34 47,34.4 46.5,35.1 C46,35.8 45.7,36.7 45.7,37.9 L45.7,39.2 C45.6,40.6 45.9,41.6 46.7,42.3 Z" id="Shape"></path>
                <path d="M104.7,16.6 C106.3,18.2 107.2,20.6 107.2,23.7 L107.2,49.5 L98.7,49.5 L98.7,26.2 C98.7,24.3 98.4,23 97.9,22.3 C97.4,21.6 96.4,21.3 95,21.3 C93.4,21.3 91.8,21.6 90.2,22.2 C88.6,22.8 86.4,23.9 83.7,25.5 L83.8,49.4 L75.3,49.4 L75.3,15.1 L82.4,15.1 L83,20.2 C88.3,16.1 93.2,14.1 97.8,14.1 C100.7,14.1 103.1,14.9 104.7,16.6 Z" id="Path"></path>
                <path d="M133.2,47.4 C132.7,48.8 131.7,49.4 130.3,49.4 L122.9,49.4 C122.2,49.4 121.7,49.2 121.2,48.8 C120.7,48.4 120.3,47.9 120.1,47.3 L108.3,15 L117.3,15 L124.4,37.6 C124.4,37.8 124.5,38.1 124.6,38.4 C124.7,38.7 124.8,39 124.9,39.3 C125.5,41.2 125.9,42.6 126.1,43.5 L127,43.5 L128.8,37.5 L135.9,14.9 L144.9,14.9 L133.2,47.4 Z" id="Path"></path>
                <path d="M175.3,16.8 C177.4,18.6 178.4,21.7 178.4,26.1 L178.4,49.4 L171.7,49.4 L170.8,44.2 C169.3,45.8 167.4,47.2 165.2,48.4 C163,49.6 160.5,50.1 157.7,50.1 C154.5,50.1 151.9,49.2 149.9,47.5 C147.9,45.7 146.9,43.3 146.9,40.2 L146.9,36.7 C146.9,33.9 147.8,31.8 149.6,30.3 C151.4,28.8 153.9,28.1 157.1,28.1 L170,28.1 L170,26 C170,24.6 169.8,23.6 169.4,23 C169,22.3 168.4,21.8 167.5,21.6 C166.6,21.3 165.3,21.2 163.6,21.2 C160,21.2 155.2,21.4 149.2,21.9 L148.4,15.9 C150.9,15.4 153.8,15 157.2,14.7 C160.6,14.4 163.4,14.2 165.6,14.2 C170,14.1 173.2,15 175.3,16.8 Z M156.4,42.3 C157.1,43 158.3,43.3 159.8,43.3 C161.2,43.3 162.9,43 164.7,42.3 C166.5,41.6 168.2,40.6 169.9,39.3 L169.9,34 L159,34 C157.6,34 156.7,34.4 156.2,35.1 C155.7,35.8 155.4,36.7 155.4,37.9 L155.4,39.2 C155.3,40.6 155.7,41.6 156.4,42.3 Z" id="Shape"></path>
                <path d="M205,14.5 C207.8,14.7 210.3,15 212.4,15.3 L211.8,21.2 C206,21 201.6,20.9 198.7,20.9 C196.5,20.9 194.9,20.9 194,21 C193.1,21.1 192.4,21.4 192,21.8 C191.6,22.2 191.4,22.9 191.4,23.8 C191.4,24.9 191.7,25.7 192.2,26.1 C192.7,26.5 193.4,26.8 194.3,27 C195.2,27.2 195.8,27.4 196.1,27.5 L205.3,30 C208.2,30.8 210.3,32 211.6,33.4 C212.9,34.8 213.5,37 213.5,39.9 C213.5,42.7 213,44.8 211.9,46.2 C210.8,47.7 209.2,48.7 207.1,49.2 C204.9,49.7 202,50 198.2,50 C193.1,50 188.3,49.6 183.8,48.9 L184.4,42.9 C186.8,43.1 190.7,43.2 196.1,43.2 C198.6,43.2 200.5,43.1 201.8,43 C203.1,42.8 204,42.5 204.5,42.1 C205,41.6 205.3,40.9 205.3,40 C205.3,39.2 205.1,38.5 204.7,38.1 C204.3,37.7 203.9,37.4 203.4,37.2 C202.9,37 201.9,36.7 200.2,36.3 L191.2,33.8 C188.2,33 186.1,31.8 184.9,30.2 C183.7,28.7 183.1,26.5 183.1,23.7 C183.1,21.2 183.6,19.2 184.5,17.8 C185.4,16.4 186.9,15.4 188.9,14.8 C190.9,14.2 193.6,13.9 197.1,13.9 C199.5,14.2 202.1,14.3 205,14.5 Z" id="Path"></path>
            </g>
        </g>
    </g>
</svg>