<?xml version="1.0" encoding="UTF-8"?>
<svg width="140px" height="51px" viewBox="0 0 140 51" version="1.1" xmlns="http://www.w3.org/2000/svg" xmlns:xlink="http://www.w3.org/1999/xlink">
    <title>vdesk-principale-negativo</title>
    <g id="Page-1" stroke="none" stroke-width="1" fill="none" fill-rule="evenodd">
        <g id="vdesk-principale-negativo" fill="#FFFFFF" fill-rule="nonzero">
            <g id="Group">
                <path d="M0,1.6 L20.6,1.6 C26.8,1.6 31.2,3.7 33.8,7.9 C36.3,12.1 37.6,18.1 37.6,25.9 C37.6,34.1 36.2,40.2 33.4,44.2 C30.6,48.2 26.3,50.2 20.6,50.2 L0,50.2 C0,50.2 0,1.6 0,1.6 Z M19.7,41.6 C22.6,41.6 24.7,40.3 26,37.7 C27.3,35.1 27.9,31.2 27.9,25.9 C27.9,21.8 27.6,18.6 27,16.3 C26.4,14 25.5,12.5 24.3,11.6 C23.1,10.7 21.6,10.3 19.6,10.3 L9.7,10.3 L9.7,41.5 L19.7,41.6 L19.7,41.6 Z" id="Shape"></path>
                <path d="M47.2,49.1 C44.9,48 43.3,46.2 42.2,43.6 C41.2,41 40.7,37.4 40.7,32.7 C40.7,27.9 41.2,24.1 42.1,21.5 C43.1,18.9 44.7,17.1 46.9,16 C49.1,14.9 52.2,14.4 56.3,14.4 C59.9,14.4 62.7,14.8 64.8,15.5 C66.9,16.2 68.4,17.4 69.3,19.2 C70.2,21 70.7,23.4 70.7,26.6 C70.7,30 69.7,32.5 67.8,33.9 C65.8,35.3 63,36.1 59.3,36.1 L50.4,36.1 C50.5,38 50.8,39.4 51.3,40.5 C51.8,41.5 52.6,42.3 53.9,42.7 C55.1,43.2 56.9,43.4 59.3,43.4 L69.5,43.4 L69.5,49.1 C67.2,49.6 65.1,50 63.2,50.2 C61.3,50.5 59.1,50.6 56.6,50.6 C52.6,50.7 49.5,50.1 47.2,49.1 Z M58.3,30.3 C59.7,30.3 60.6,30 61.2,29.5 C61.8,29 62.1,28 62.1,26.7 C62.1,24.8 61.7,23.4 60.8,22.6 C59.9,21.8 58.4,21.4 56.3,21.4 C54.8,21.4 53.6,21.7 52.7,22.2 C51.8,22.7 51.2,23.6 50.8,24.9 C50.4,26.2 50.2,28 50.2,30.3 L58.3,30.3 L58.3,30.3 Z" id="Shape"></path>
                <path d="M81,50.3 C78.3,50 76.3,49.6 74.9,49.1 L74.9,43.4 L90.6,43.4 C92,43.4 93.1,43.2 93.7,42.8 C94.3,42.4 94.6,41.6 94.6,40.5 L94.6,39.4 C94.6,38.5 94.3,37.8 93.7,37.3 C93.1,36.8 92.1,36.6 90.6,36.6 L85.1,36.6 C81.8,36.6 79.2,35.8 77.3,34.3 C75.4,32.8 74.4,30.3 74.4,27 L74.4,25 C74.4,21.5 75.5,18.9 77.6,17.2 C79.7,15.5 83.4,14.7 88.6,14.7 C90.8,14.7 93.1,14.9 95.6,15.2 C98.1,15.5 100.1,15.9 101.4,16.4 L101.4,22 L86.6,22 C85.2,22 84.3,22.2 83.6,22.7 C83,23.1 82.7,23.9 82.7,25 L82.7,26 C82.7,27.1 83,27.8 83.7,28.2 C84.4,28.6 85.5,28.8 87,28.8 L92.7,28.8 C96.2,28.8 98.8,29.6 100.5,31.2 C102.2,32.8 103,35.1 103,38.1 L103,41.3 C103,44.8 101.8,47.2 99.4,48.6 C97,50 93.4,50.7 88.6,50.7 C86.2,50.7 83.7,50.6 81,50.3 Z" id="Path"></path>
                <polygon id="Path" points="106.4 0.1 116.1 0.1 116.1 27.2 120.3 27.2 128.1 14.9 138 14.9 127.6 31.6 139.1 50.3 129.2 50.3 120.2 35.9 116.2 35.9 116.2 50.3 106.5 50.3 106.5 0.1"></polygon>
            </g>
        </g>
    </g>
</svg>