<?xml version="1.0" encoding="UTF-8"?>
<svg width="146px" height="51px" viewBox="0 0 146 51" version="1.1" xmlns="http://www.w3.org/2000/svg" xmlns:xlink="http://www.w3.org/1999/xlink">
    <title>vflow-principale-negativo</title>
    <g id="Page-1" stroke="none" stroke-width="1" fill="none" fill-rule="evenodd">
        <g id="vflow-principale-negativo" fill="#FFFFFF" fill-rule="nonzero">
            <g id="Group">
                <path d="M10.3,8.8 C9.7,9.4 9.4,10.5 9.4,12 L9.4,21.3 L28.5,21.3 L28.5,28.1 L9.4,28.1 L9.4,49.1 L0.6,49.1 L0.6,10.1 C0.6,7.1 1.5,4.8 3.4,3.1 C5.3,1.4 7.8,0.6 11,0.6 C15.7,0.6 19.7,0.6 22.8,0.7 C26,0.8 28.9,0.9 31.6,1.2 L31.1,7.9 L13.6,7.9 C12,7.9 10.9,8.2 10.3,8.8 Z" id="Path"></path>
                <path d="M44.1,38.4 C44.1,41.1 45.5,42.4 48.2,42.4 L51.1,42.4 L52.1,48.7 C51.4,49.1 50.3,49.4 48.8,49.6 C47.3,49.8 46,49.9 44.8,49.9 C41.9,49.9 39.7,49.1 38,47.4 C36.3,45.8 35.5,43.4 35.5,40.5 L35.5,0.1 L44.1,0.1 C44.1,0.1 44.1,38.4 44.1,38.4 Z" id="Path"></path>
                <path d="M81.6,15.6 C84.1,16.8 85.8,18.7 86.9,21.4 C88,24 88.5,27.6 88.5,32 C88.5,36.4 88,40 86.9,42.6 C85.8,45.2 84,47.1 81.6,48.3 C79.1,49.5 75.8,50.1 71.7,50.1 C67.5,50.1 64.2,49.5 61.7,48.3 C59.2,47.1 57.5,45.2 56.3,42.6 C55.2,40 54.6,36.5 54.6,32 C54.6,27.6 55.2,24 56.3,21.4 C57.4,18.8 59.2,16.8 61.7,15.6 C64.2,14.4 67.5,13.8 71.7,13.8 C75.8,13.8 79.1,14.4 81.6,15.6 Z M66.7,21.6 C65.6,22.3 64.7,23.4 64.2,25 C63.7,26.6 63.5,28.9 63.5,32 C63.5,35 63.7,37.3 64.2,38.9 C64.7,40.5 65.5,41.6 66.7,42.3 C67.8,43 69.5,43.3 71.6,43.3 C73.7,43.3 75.3,43 76.5,42.3 C77.6,41.6 78.5,40.5 79,38.9 C79.5,37.3 79.7,35 79.7,32 C79.7,29 79.5,26.6 79,25 C78.5,23.4 77.7,22.3 76.5,21.6 C75.4,20.9 73.7,20.6 71.6,20.6 C69.5,20.6 67.9,20.9 66.7,21.6 Z" id="Shape"></path>
                <path d="M136.8,46.8 C136.6,47.5 136.2,48.1 135.7,48.5 C135.2,48.9 134.5,49.1 133.8,49.1 L126.6,49.1 C125.8,49.1 125.1,48.9 124.5,48.4 C123.9,47.9 123.6,47.3 123.4,46.5 L119.3,25.4 C119.1,24.4 119,23.6 118.9,23 C118.8,22.4 118.6,21.4 118.3,19.8 L117.5,19.8 L116.5,25.4 L112.5,46.5 C112.4,47.3 112,47.9 111.4,48.4 C110.8,48.9 110.1,49.1 109.3,49.1 L102.2,49.1 C101.4,49.1 100.7,48.9 100.2,48.5 C99.6,48.1 99.3,47.5 99.1,46.8 L90,14.8 L98.7,14.8 L104.4,38.4 C104.9,40.6 105.2,42.4 105.3,43.9 L106.2,43.9 L106.6,42.1 C106.7,41.4 107,40.2 107.3,38.5 L111.5,17.4 C111.6,16.6 112,16 112.5,15.5 C113,15.1 113.7,14.8 114.5,14.8 L121.4,14.8 C122.2,14.8 122.9,15 123.4,15.5 C124,16 124.3,16.6 124.5,17.4 L128.6,38.4 C128.7,39.1 128.8,39.7 128.9,40.3 C129,40.9 129.1,41.3 129.2,41.7 L129.6,43.9 L130.5,43.9 C130.9,41 131.2,39.2 131.4,38.4 L137.1,14.8 L145.8,14.8 L136.8,46.8 Z" id="Path"></path>
            </g>
        </g>
    </g>
</svg>