<?xml version="1.0" encoding="UTF-8"?>
<svg width="154px" height="50px" viewBox="0 0 154 50" version="1.1" xmlns="http://www.w3.org/2000/svg" xmlns:xlink="http://www.w3.org/1999/xlink">
    <title>vmeet-negativo</title>
    <g id="Page-1" stroke="none" stroke-width="1" fill="none" fill-rule="evenodd">
        <g id="vmeet-negativo" fill="#FFFFFF" fill-rule="nonzero">
            <path d="M52.7,3.5 L54.7,49 L46,49 L44.4,7.2 L43,7.2 L34.6,39.8 C34.1,41.8 32.8,42.8 30.9,42.8 L24,42.8 C22,42.8 20.8,41.8 20.2,39.8 L11.6,7.2 L10.4,7.2 L8.8,49 L0.1,49 L1.9,3.5 C2,1.2 3.2,0 5.4,0 L14.6,0 C16.5,0 17.7,1 18.2,3 L25.2,29.6 C25.7,31.3 26,32.8 26.3,34.2 L26.7,36.3 L27.8,36.3 C28.3,33.6 28.8,31.3 29.3,29.6 L36.3,3.1 C36.8,1.1 38.1,0.1 40,0.1 L49.2,0.1 C51.4,0.1 52.6,1.2 52.7,3.5 Z" id="Path"></path>
            <path d="M89.5,42 L90.3,47.5 C88.6,48.3 86.4,48.9 83.8,49.3 C81.1,49.7 78.5,49.9 76,49.9 C71.7,49.9 68.4,49.3 65.8,48.1 C63.3,46.9 61.5,44.9 60.3,42.3 C59.1,39.6 58.6,36.1 58.6,31.6 C58.6,27 59.2,23.4 60.3,20.7 C61.5,18 63.3,16.1 65.7,15 C68.1,13.8 71.4,13.3 75.4,13.3 C80.9,13.3 85,14.3 87.5,16.3 C90,18.3 91.3,21.3 91.3,25.4 C91.3,32 88.2,35.3 82,35.3 L67.8,35.3 C68,37.4 68.5,39 69.2,40.1 C69.9,41.2 70.8,41.9 72.1,42.3 C73.3,42.7 75,42.9 77.1,42.9 C80.6,42.9 84.8,42.6 89.5,42 Z M70.9,20.9 C69.8,21.4 68.9,22.3 68.4,23.6 C67.9,24.9 67.6,26.8 67.5,29.2 L79.5,29.2 C80.7,29.2 81.6,28.8 82,28.1 C82.4,27.3 82.6,26.4 82.6,25.2 C82.6,23.3 82.1,22 81.1,21.2 C80.1,20.4 78.3,20.1 75.7,20.1 C73.7,20.1 72.1,20.3 70.9,20.9 Z" id="Shape"></path>
            <path d="M125.6,42 L126.4,47.5 C124.7,48.3 122.5,48.9 119.9,49.3 C117.2,49.7 114.6,49.9 112.1,49.9 C107.8,49.9 104.5,49.3 101.9,48.1 C99.4,46.9 97.6,44.9 96.4,42.3 C95.2,39.6 94.7,36.1 94.7,31.6 C94.7,27 95.3,23.4 96.4,20.7 C97.6,18 99.4,16.1 101.8,15 C104.2,13.8 107.5,13.3 111.5,13.3 C117,13.3 121.1,14.3 123.6,16.3 C126.1,18.3 127.4,21.3 127.4,25.4 C127.4,32 124.3,35.3 118.1,35.3 L103.9,35.3 C104.1,37.4 104.6,39 105.3,40.1 C106,41.2 106.9,41.9 108.2,42.3 C109.4,42.7 111.1,42.9 113.2,42.9 C116.7,42.9 120.8,42.6 125.6,42 Z M107,20.9 C105.9,21.4 105,22.3 104.5,23.6 C104,24.9 103.7,26.8 103.6,29.2 L115.6,29.2 C116.8,29.2 117.7,28.8 118.1,28.1 C118.5,27.3 118.7,26.4 118.7,25.2 C118.7,23.3 118.2,22 117.2,21.2 C116.2,20.4 114.4,20.1 111.8,20.1 C109.8,20.1 108.1,20.3 107,20.9 Z" id="Shape"></path>
            <path d="M143.9,20.5 L143.9,38.2 C143.9,39.7 144.2,40.8 144.8,41.4 C145.4,42 146.5,42.3 148.1,42.3 L152.9,42.3 L153.8,48.7 C152.7,49.1 151.2,49.4 149.4,49.6 C147.6,49.8 146.1,49.9 144.9,49.9 C141.9,49.9 139.5,49 137.9,47.3 C136.3,45.5 135.5,43 135.5,39.8 L135.4,20.6 L129,20.6 L129,14.7 L135.2,14.3 L135.2,4.3 L143.8,4.3 L143.8,14.3 L154,14.3 L154,20.5 C154,20.5 143.9,20.5 143.9,20.5 Z" id="Path"></path>
        </g>
    </g>
</svg>