<?xml version="1.0" encoding="UTF-8"?>
<svg width="171px" height="51px" viewBox="0 0 171 51" version="1.1" xmlns="http://www.w3.org/2000/svg" xmlns:xlink="http://www.w3.org/1999/xlink">
    <title>vshare-principale-negativo</title>
    <g id="Page-1" stroke="none" stroke-width="1" fill="none" fill-rule="evenodd">
        <g id="vshare-principale-negativo" fill="#FFFFFF" fill-rule="nonzero">
            <g id="Group">
                <path d="M32.5,2.5 L31.9,8.7 C26.6,8.5 21.8,8.4 17.5,8.4 C15.3,8.4 13.7,8.5 12.6,8.7 C11.5,8.9 10.7,9.4 10.2,10.2 C9.7,11 9.4,12.2 9.4,13.9 C9.4,15.3 9.6,16.4 10,17.2 C10.4,18 10.9,18.6 11.6,19.1 C12.3,19.5 13.4,20 14.8,20.4 L24.1,23.3 C27.8,24.5 30.4,26.2 31.8,28.4 C33.3,30.7 34,33.6 34,37.3 C34,40.9 33.4,43.7 32.3,45.7 C31.2,47.6 29.4,49 27,49.7 C24.6,50.4 21.2,50.8 16.8,50.8 C11.5,50.8 6.2,50.3 1.1,49.3 L1.7,42.9 C2.5,42.9 3.1,42.9 3.5,43 C11.3,43.1 15.8,43.2 17,43.2 C19.2,43.2 20.9,43 22,42.7 C23.1,42.4 23.9,41.8 24.4,41 C24.9,40.2 25.1,38.9 25.1,37.3 C25.1,35.9 24.9,34.7 24.6,34 C24.2,33.2 23.7,32.6 23,32.2 C22.3,31.8 21.3,31.4 20,30.9 L10.3,27.8 C6.8,26.7 4.3,25 2.8,22.7 C1.3,20.4 0.6,17.5 0.6,13.8 C0.6,10.2 1.2,7.4 2.3,5.6 C3.4,3.8 5.2,2.5 7.5,1.9 C9.8,1.2 13,0.9 17.2,0.9 C23.3,0.9 28.3,1.4 32.5,2.5 Z" id="Path"></path>
                <path d="M68.8,17.2 C70.4,18.8 71.3,21.2 71.3,24.3 L71.3,50.1 L62.8,50.1 L62.8,26.9 C62.8,25 62.5,23.7 62,23 C61.5,22.3 60.5,22 59.1,22 C57.5,22 55.9,22.3 54.3,22.9 C52.7,23.5 50.5,24.6 47.9,26.1 L47.9,50 L39.4,50 L39.4,1 L47.9,1 L48,13.6 C48,16.1 47.8,18.4 47.4,20.5 C52.6,16.7 57.4,14.8 61.9,14.8 C64.8,14.8 67.2,15.6 68.8,17.2 Z" id="Path"></path>
                <path d="M104.5,17.4 C106.6,19.2 107.6,22.3 107.6,26.7 L107.6,50 L100.9,50 L100,44.8 C98.5,46.4 96.6,47.8 94.4,49 C92.2,50.2 89.7,50.7 86.9,50.7 C83.7,50.7 81.1,49.8 79.1,48.1 C77.1,46.3 76.1,43.9 76.1,40.8 L76.1,37.3 C76.1,34.5 77,32.4 78.8,30.9 C80.6,29.4 83.1,28.7 86.3,28.7 L99.2,28.7 L99.2,26.6 C99.2,25.2 99,24.2 98.6,23.6 C98.2,22.9 97.6,22.4 96.7,22.2 C95.8,21.9 94.5,21.8 92.8,21.8 C89.2,21.8 84.4,22 78.4,22.5 L77.6,16.5 C80.1,16 83,15.6 86.4,15.3 C89.8,15 92.6,14.8 94.8,14.8 C99.2,14.8 102.4,15.6 104.5,17.4 Z M85.6,42.9 C86.3,43.6 87.5,43.9 89,43.9 C90.4,43.9 92.1,43.6 93.9,42.9 C95.7,42.2 97.4,41.2 99.1,39.9 L99.1,34.6 L88.2,34.6 C86.8,34.6 85.9,35 85.4,35.7 C84.9,36.4 84.6,37.3 84.6,38.5 L84.6,39.8 C84.5,41.2 84.9,42.3 85.6,42.9 Z" id="Shape"></path>
                <path d="M137.3,14.8 L136.4,22.8 L133.9,22.8 C132.4,22.8 130.8,23 129.2,23.5 C127.6,24 125.3,24.7 122.5,25.8 L122.5,50.1 L114,50.1 L114,15.7 L120.7,15.7 L121.5,20.7 C123.9,18.7 126.3,17.2 128.7,16.2 C131.1,15.2 133.4,14.7 135.7,14.7 L137.3,14.8 L137.3,14.8 Z" id="Path"></path>
                <path d="M168.7,43.1 L169.5,48.6 C167.8,49.4 165.7,50 163.1,50.4 C160.5,50.8 157.9,51 155.4,51 C151.2,51 147.9,50.4 145.4,49.2 C142.9,48 141.1,46.1 140,43.5 C138.9,40.9 138.3,37.4 138.3,33 C138.3,28.5 138.9,24.9 140,22.3 C141.1,19.7 142.9,17.8 145.3,16.7 C147.7,15.6 150.9,15 154.9,15 C160.4,15 164.3,16 166.8,18 C169.3,20 170.5,23 170.5,26.9 C170.5,33.4 167.4,36.7 161.3,36.7 L147.3,36.7 C147.5,38.8 148,40.3 148.7,41.4 C149.4,42.5 150.3,43.2 151.5,43.6 C152.7,44 154.4,44.2 156.5,44.2 C159.8,44 164,43.7 168.7,43.1 Z M150.3,22.3 C149.2,22.8 148.4,23.7 147.8,25 C147.3,26.3 147,28.1 146.9,30.6 L158.7,30.6 C159.9,30.6 160.7,30.2 161.2,29.5 C161.6,28.8 161.8,27.8 161.8,26.6 C161.8,24.7 161.3,23.4 160.3,22.7 C159.3,22 157.5,21.6 155,21.6 C153,21.5 151.4,21.7 150.3,22.3 Z" id="Shape"></path>
            </g>
        </g>
    </g>
</svg>