<svg xmlns="http://www.w3.org/2000/svg" width="180" height="45" viewBox="0 0 180 45">
    <defs>
        <linearGradient id="keigr5knga" x1="-.094%" x2="99.876%" y1="49.933%" y2="49.933%">
            <stop offset="0%" stop-color="#0072BF"/>
            <stop offset="100%" stop-color="#00AA9D"/>
        </linearGradient>
    </defs>
    <g fill="none" fill-rule="evenodd">
        <g fill-rule="nonzero">
            <g>
                <g>
                    <g>
                        <path fill="#001B2D" d="M4.5 13.95L13.05 13.95 11.34 8.37 2.7 8.37zM7.29 22.14L15.48 22.14 13.86 16.65 5.4 16.65zM10.53 5.67L8.91.18 0 .18 1.8 5.67z" transform="translate(-1184.000000, -233.000000) translate(1108.000000, 131.000000) translate(76.000000, 102.000000)"/>
                        <path fill="url(#keigr5knga)" d="M29.07 0.18L19.89 31.05 18.99 35.19 18.09 31.05 16.29 24.93 8.19 24.93 14.49 44.19 18.99 44.19 18.99 44.19 23.49 44.19 38.07 0.18z" transform="translate(-1184.000000, -233.000000) translate(1108.000000, 131.000000) translate(76.000000, 102.000000)"/>
                    </g>
                    <path fill="#001B2D" d="M87.03 3.15l1.8 40.95H81L79.56 6.48H78.3l-7.56 29.34c-.45 1.8-1.62 2.7-3.33 2.7H61.2c-1.8 0-2.88-.9-3.42-2.7L50.04 6.48h-1.08L47.52 44.1h-7.83l1.62-40.95C41.4 1.08 42.48 0 44.46 0h8.28c1.71 0 2.79.9 3.24 2.7l6.3 23.94c.45 1.53.72 2.88.99 4.14l.36 1.89h.99c.45-2.43.9-4.5 1.35-6.03l6.3-23.85c.45-1.8 1.62-2.7 3.33-2.7h8.28c1.98 0 3.06.99 3.15 3.06zM120.15 37.8l.72 4.95c-1.53.72-3.51 1.26-5.85 1.62-2.43.36-4.77.54-7.02.54-3.87 0-6.84-.54-9.18-1.62-2.25-1.08-3.87-2.88-4.95-5.22-1.08-2.43-1.53-5.58-1.53-9.63 0-4.14.54-7.38 1.53-9.81 1.08-2.43 2.7-4.14 4.86-5.13 2.16-1.08 5.13-1.53 8.73-1.53 4.95 0 8.64.9 10.89 2.7 2.25 1.8 3.42 4.5 3.42 8.19 0 5.94-2.79 8.91-8.37 8.91h-12.78c.18 1.89.63 3.33 1.26 4.32.63.99 1.44 1.62 2.61 1.98 1.08.36 2.61.54 4.5.54 3.15 0 6.93-.27 11.16-.81zm-16.74-18.99c-.99.45-1.8 1.26-2.25 2.43-.45 1.17-.72 2.88-.81 5.04h10.8c1.08 0 1.89-.36 2.25-.99.36-.72.54-1.53.54-2.61 0-1.71-.45-2.88-1.35-3.6-.9-.72-2.52-.99-4.86-.99-1.8 0-3.24.18-4.32.72zM152.64 37.8l.72 4.95c-1.53.72-3.51 1.26-5.85 1.62-2.43.36-4.77.54-7.02.54-3.87 0-6.84-.54-9.18-1.62-2.25-1.08-3.87-2.88-4.95-5.22-1.08-2.43-1.53-5.58-1.53-9.63 0-4.14.54-7.38 1.53-9.81 1.08-2.43 2.7-4.14 4.86-5.13 2.16-1.08 5.13-1.53 8.73-1.53 4.95 0 8.64.9 10.89 2.7 2.25 1.8 3.42 4.5 3.42 8.19 0 5.94-2.79 8.91-8.37 8.91h-12.78c.18 1.89.63 3.33 1.26 4.32.63.99 1.44 1.62 2.61 1.98 1.08.36 2.61.54 4.5.54 3.15 0 6.84-.27 11.16-.81zM135.9 18.81c-.99.45-1.8 1.26-2.25 2.43-.45 1.17-.72 2.88-.81 5.04h10.8c1.08 0 1.89-.36 2.25-.99.36-.72.54-1.53.54-2.61 0-1.71-.45-2.88-1.35-3.6-.9-.72-2.52-.99-4.86-.99-1.8 0-3.33.18-4.32.72zM169.11 18.45v15.93c0 1.35.27 2.34.81 2.88s1.53.81 2.97.81h4.32l.81 5.76c-.99.36-2.34.63-3.96.81-1.62.18-2.97.27-4.05.27-2.7 0-4.86-.81-6.3-2.34-1.44-1.62-2.16-3.87-2.16-6.75l-.09-17.28h-5.76v-5.31l5.58-.36v-9h7.74v9h9.18v5.58h-9.09z" transform="translate(-1184.000000, -233.000000) translate(1108.000000, 131.000000) translate(76.000000, 102.000000)"/>
                </g>
            </g>
        </g>
    </g>
</svg>
