<?xml version="1.0" encoding="utf-8"?>
<!-- Generator: Adobe Illustrator 23.0.3, SVG Export Plug-In . SVG Version: 6.00 Build 0)  -->
<svg version="1.1" id="Livello_1" xmlns="http://www.w3.org/2000/svg" xmlns:xlink="http://www.w3.org/1999/xlink" x="0px" y="0px"
	 viewBox="0 0 300 55" style="enable-background:new 0 0 300 55;" xml:space="preserve">
<style type="text/css">
	.st0{fill:#001B2D;}
	.st1{fill:url(#SVGID_1_);}
</style>
<g>
	<g>
		<path class="st0" d="M93,2.6c2,0.2,4,0.6,6.2,1.2l-0.8,6.7c-4.1-0.3-8.4-0.5-13-0.5c-2.7,0-4.8,0.5-6.3,1.6
			c-1.5,1.1-2.6,2.8-3.2,5.3c-0.6,2.5-0.9,6-0.9,10.4c0,4.5,0.3,8,0.9,10.4c0.6,2.5,1.7,4.2,3.2,5.3c1.5,1.1,3.6,1.6,6.3,1.6
			c3.2,0,5.9,0,7.9-0.1c2.1-0.1,4.1-0.3,6.1-0.6l0.8,6.6c-2.1,0.7-4.3,1.1-6.5,1.4c-2.2,0.3-5,0.4-8.3,0.4c-4.9,0-8.8-0.8-11.6-2.4
			c-2.8-1.6-4.9-4.2-6.2-7.8c-1.3-3.6-1.9-8.5-1.9-14.7c0-6.2,0.6-11.1,1.9-14.7c1.3-3.6,3.3-6.2,6.2-7.8c2.8-1.6,6.7-2.4,11.6-2.4
			C88.4,2.3,91,2.4,93,2.6z"/>
		<path class="st0" d="M131.1,18.8c2.1,1.8,3.1,4.9,3.1,9.3v23.3h-6.7l-0.9-5.2c-1.5,1.6-3.4,3-5.6,4.2c-2.2,1.2-4.7,1.7-7.5,1.7
			c-3.2,0-5.8-0.9-7.8-2.6c-2-1.8-3-4.2-3-7.3v-3.5c0-2.8,0.9-4.9,2.7-6.4c1.8-1.5,4.3-2.2,7.5-2.2h12.9V28c0-1.4-0.2-2.4-0.6-3
			c-0.4-0.7-1-1.2-1.9-1.4c-0.9-0.3-2.2-0.4-3.9-0.4c-3.6,0-8.4,0.2-14.4,0.7l-0.8-6c2.5-0.5,5.4-0.9,8.8-1.2
			c3.4-0.3,6.2-0.5,8.4-0.5C125.7,16.1,129,17,131.1,18.8z M112.2,44.3c0.7,0.7,1.9,1,3.4,1c1.4,0,3.1-0.3,4.9-1
			c1.8-0.7,3.5-1.7,5.2-3v-5.3h-10.9c-1.4,0-2.3,0.4-2.8,1.1c-0.5,0.7-0.8,1.6-0.8,2.8v1.3C111.1,42.6,111.4,43.6,112.2,44.3z"/>
		<path class="st0" d="M170.2,18.6c1.6,1.6,2.5,4,2.5,7.1v25.8h-8.5V28.2c0-1.9-0.3-3.2-0.8-3.9c-0.5-0.7-1.5-1-2.9-1
			c-1.6,0-3.2,0.3-4.8,0.9c-1.6,0.6-3.8,1.7-6.5,3.3l0.1,23.9h-8.5V17.1h7.1l0.6,5.1c5.3-4.1,10.2-6.1,14.8-6.1
			C166.2,16.1,168.6,16.9,170.2,18.6z"/>
		<path class="st0" d="M198.7,49.4c-0.5,1.4-1.5,2-2.9,2h-7.4c-0.7,0-1.2-0.2-1.7-0.6c-0.5-0.4-0.9-0.9-1.1-1.5l-11.8-32.3h9
			l7.1,22.6c0,0.2,0.1,0.5,0.2,0.8c0.1,0.3,0.2,0.6,0.3,0.9c0.6,1.9,1,3.3,1.2,4.2h0.9l1.8-6l7.1-22.6h9L198.7,49.4z"/>
		<path class="st0" d="M240.8,18.8c2.1,1.8,3.1,4.9,3.1,9.3v23.3h-6.7l-0.9-5.2c-1.5,1.6-3.4,3-5.6,4.2c-2.2,1.2-4.7,1.7-7.5,1.7
			c-3.2,0-5.8-0.9-7.8-2.6c-2-1.8-3-4.2-3-7.3v-3.5c0-2.8,0.9-4.9,2.7-6.4c1.8-1.5,4.3-2.2,7.5-2.2h12.9V28c0-1.4-0.2-2.4-0.6-3
			c-0.4-0.7-1-1.2-1.9-1.4c-0.9-0.3-2.2-0.4-3.9-0.4c-3.6,0-8.4,0.2-14.4,0.7l-0.8-6c2.5-0.5,5.4-0.9,8.8-1.2
			c3.4-0.3,6.2-0.5,8.4-0.5C235.5,16.1,238.7,17,240.8,18.8z M221.9,44.3c0.7,0.7,1.9,1,3.4,1c1.4,0,3.1-0.3,4.9-1
			c1.8-0.7,3.5-1.7,5.2-3v-5.3h-10.9c-1.4,0-2.3,0.4-2.8,1.1c-0.5,0.7-0.8,1.6-0.8,2.8v1.3C220.8,42.6,221.2,43.6,221.9,44.3z"/>
		<path class="st0" d="M270.5,16.5c2.8,0.2,5.3,0.5,7.4,0.8l-0.6,5.9c-5.8-0.2-10.2-0.3-13.1-0.3c-2.2,0-3.8,0-4.7,0.1
			c-0.9,0.1-1.6,0.4-2,0.8c-0.4,0.4-0.6,1.1-0.6,2c0,1.1,0.3,1.9,0.8,2.3c0.5,0.4,1.2,0.7,2.1,0.9c0.9,0.2,1.5,0.4,1.8,0.5l9.2,2.5
			c2.9,0.8,5,2,6.3,3.4c1.3,1.4,1.9,3.6,1.9,6.5c0,2.8-0.5,4.9-1.6,6.3c-1.1,1.5-2.7,2.5-4.8,3c-2.2,0.5-5.1,0.8-8.9,0.8
			c-5.1,0-9.9-0.4-14.4-1.1l0.6-6c2.4,0.2,6.3,0.3,11.7,0.3c2.5,0,4.4-0.1,5.7-0.2c1.3-0.2,2.2-0.5,2.7-0.9c0.5-0.5,0.8-1.2,0.8-2.1
			c0-0.8-0.2-1.5-0.6-1.9c-0.4-0.4-0.8-0.7-1.3-0.9c-0.5-0.2-1.5-0.5-3.2-0.9l-9-2.5c-3-0.8-5.1-2-6.3-3.6c-1.2-1.5-1.8-3.7-1.8-6.5
			c0-2.5,0.5-4.5,1.4-5.9c0.9-1.4,2.4-2.4,4.4-3c2-0.6,4.7-0.9,8.2-0.9C265,16.2,267.6,16.3,270.5,16.5z"/>
	</g>
	<g>
		<polygon class="st0" points="26.5,17.8 36,17.8 34.1,11.7 24.5,11.7 		"/>
		<polygon class="st0" points="29.6,27 38.7,27 36.9,20.9 27.5,20.9 		"/>
		<polygon class="st0" points="33.2,8.7 31.4,2.6 21.5,2.6 23.5,8.7 		"/>
		<linearGradient id="SVGID_1_" gradientUnits="userSpaceOnUse" x1="30.5634" y1="26.9856" x2="63.7535" y2="26.9856">
			<stop  offset="0" style="stop-color:#0072BF"/>
			<stop  offset="1" style="stop-color:#00AA9D"/>
		</linearGradient>
		<polygon class="st1" points="53.8,2.6 43.6,36.9 42.6,41.5 41.6,36.9 39.6,30 30.6,30 37.6,51.4 42.6,51.4 42.6,51.4 47.6,51.4 
			63.8,2.6 		"/>
	</g>
</g>
</svg>
