<?xml version="1.0" encoding="utf-8"?>
<!-- Generator: Adobe Illustrator 23.0.3, SVG Export Plug-In . SVG Version: 6.00 Build 0)  -->
<svg version="1.1" id="Livello_1" xmlns="http://www.w3.org/2000/svg" xmlns:xlink="http://www.w3.org/1999/xlink" x="0px" y="0px"
	 viewBox="0 0 300 55" style="enable-background:new 0 0 300 55;" xml:space="preserve">
<style type="text/css">
	.st0{fill:#001B2D;}
	.st1{fill:url(#SVGID_1_);}
</style>
<g>
	<g>
		<path class="st0" d="M76.9,3.3c2,0.2,4,0.6,6.2,1.2l-0.8,6.6c-4.1-0.3-8.4-0.5-13-0.5c-2.7,0-4.8,0.5-6.3,1.6
			c-1.5,1-2.6,2.8-3.2,5.3c-0.6,2.5-0.9,5.9-0.9,10.4c0,4.5,0.3,8,0.9,10.4c0.6,2.5,1.7,4.2,3.2,5.3c1.5,1,3.6,1.6,6.3,1.6
			c3.2,0,5.9,0,7.9-0.1c2.1-0.1,4.1-0.3,6.1-0.6l0.8,6.6c-2.1,0.7-4.3,1.1-6.5,1.4c-2.2,0.3-5,0.4-8.3,0.4c-4.9,0-8.8-0.8-11.6-2.4
			c-2.8-1.6-4.9-4.2-6.2-7.8c-1.3-3.6-1.9-8.5-1.9-14.7c0-6.2,0.6-11.1,1.9-14.7c1.3-3.6,3.3-6.2,6.2-7.8c2.8-1.6,6.7-2.4,11.6-2.4
			C72.3,2.9,74.9,3.1,76.9,3.3z"/>
		<path class="st0" d="M113.6,18.6c2.4,1.2,4.2,3.1,5.3,5.7c1.1,2.6,1.6,6.2,1.6,10.6c0,4.4-0.5,7.9-1.6,10.6
			c-1.1,2.6-2.9,4.5-5.3,5.7c-2.4,1.2-5.7,1.8-9.9,1.8c-4.2,0-7.5-0.6-10-1.8c-2.4-1.2-4.2-3.1-5.4-5.7c-1.1-2.6-1.7-6.1-1.7-10.6
			c0-4.4,0.6-8,1.7-10.6c1.1-2.6,2.9-4.5,5.4-5.7c2.5-1.2,5.8-1.8,9.9-1.8C107.8,16.8,111.1,17.4,113.6,18.6z M98.8,24.5
			c-1.1,0.7-2,1.8-2.4,3.4c-0.5,1.6-0.7,3.9-0.7,7c0,3,0.2,5.3,0.7,6.9c0.5,1.6,1.3,2.7,2.4,3.4c1.1,0.7,2.8,1,4.9,1
			c2.1,0,3.7-0.3,4.9-1c1.1-0.7,2-1.8,2.4-3.4c0.5-1.6,0.7-3.9,0.7-6.9c0-3-0.2-5.4-0.7-7c-0.5-1.6-1.3-2.7-2.4-3.4
			c-1.1-0.7-2.8-1-4.9-1C101.6,23.6,99.9,23.9,98.8,24.5z"/>
		<path class="st0" d="M155.2,19.2c1.6,1.6,2.4,4,2.4,7.1V52h-8.5V28.9c0-1.9-0.3-3.2-0.8-3.9c-0.5-0.7-1.5-1-2.9-1
			c-1.6,0-3.2,0.3-4.8,0.9c-1.6,0.6-3.8,1.7-6.5,3.3l0.1,23.8h-8.5V17.8h7.1l0.6,5.1c5.3-4.1,10.2-6.1,14.8-6.1
			C151.3,16.8,153.6,17.6,155.2,19.2z"/>
		<path class="st0" d="M193.7,19.2c1.6,1.6,2.4,4,2.4,7.1V52h-8.5V28.9c0-1.9-0.3-3.2-0.8-3.9c-0.5-0.7-1.5-1-2.9-1
			c-1.6,0-3.2,0.3-4.8,0.9c-1.6,0.6-3.8,1.7-6.5,3.3l0.1,23.8h-8.5V17.8h7.1l0.6,5.1c5.3-4.1,10.2-6.1,14.8-6.1
			C189.7,16.8,192.1,17.6,193.7,19.2z"/>
		<path class="st0" d="M231.6,45.1l0.8,5.5c-1.7,0.8-3.8,1.4-6.4,1.7c-2.6,0.4-5.2,0.6-7.7,0.6c-4.2,0-7.5-0.6-10-1.8
			c-2.5-1.2-4.3-3.1-5.4-5.7c-1.1-2.6-1.7-6.1-1.7-10.5c0-4.5,0.6-8.1,1.7-10.7c1.1-2.6,2.9-4.5,5.3-5.6c2.4-1.1,5.6-1.7,9.5-1.7
			c5.5,0,9.4,1,11.9,3c2.5,2,3.7,5,3.7,8.9c0,6.5-3.1,9.8-9.2,9.8h-14c0.2,2.1,0.7,3.6,1.4,4.7c0.7,1.1,1.6,1.8,2.8,2.2
			c1.2,0.4,2.9,0.6,5,0.6C222.8,45.9,226.9,45.7,231.6,45.1z M213.3,24.3c-1.1,0.5-1.9,1.4-2.4,2.7c-0.5,1.3-0.8,3.1-0.9,5.6h11.8
			c1.2,0,2-0.4,2.4-1.1c0.4-0.7,0.6-1.7,0.6-2.9c0-1.9-0.5-3.2-1.5-3.9c-1-0.7-2.8-1.1-5.3-1.1C216,23.5,214.4,23.8,213.3,24.3z"/>
		<path class="st0" d="M259.6,17.3c2.2,0.3,4.1,0.8,5.7,1.5l-1,5.3c-2.3-0.1-5.5-0.1-9.5-0.1c-2.4,0-4.2,0.3-5.6,1
			c-1.4,0.7-2.3,1.7-2.9,3.3c-0.6,1.5-0.9,3.8-0.9,6.6c0,2.9,0.3,5.1,0.9,6.7c0.6,1.6,1.5,2.7,2.9,3.4c1.4,0.7,3.2,1,5.6,1
			c3.7,0,7.2-0.2,10.3-0.7l0.8,5.6c-3.4,1.4-7.6,2.1-12.6,2.1c-4.1,0-7.4-0.6-9.8-1.7c-2.4-1.2-4.1-3.1-5.2-5.7
			c-1.1-2.6-1.6-6.2-1.6-10.6c0-4.5,0.5-8,1.6-10.6c1.1-2.6,2.9-4.5,5.3-5.7c2.4-1.2,5.7-1.7,9.9-1.7
			C255.4,16.8,257.5,16.9,259.6,17.3z"/>
		<path class="st0" d="M283,23.9v17.4c0,1.5,0.3,2.5,0.9,3.1c0.6,0.6,1.7,0.9,3.2,0.9h4.7l0.9,6.3c-1.1,0.4-2.6,0.7-4.3,0.9
			c-1.8,0.2-3.3,0.3-4.5,0.3c-3,0-5.3-0.9-6.9-2.6c-1.6-1.7-2.4-4.2-2.4-7.4l-0.1-18.9h-6.2v-5.8l6.2-0.3V7.9h8.5v9.9h10.1v6.2H283z
			"/>
	</g>
	<g>
		<polygon class="st0" points="11.7,18.5 21.1,18.5 19.3,12.4 9.7,12.4 		"/>
		<polygon class="st0" points="14.7,27.6 23.8,27.6 22,21.5 12.7,21.5 		"/>
		<polygon class="st0" points="18.4,9.3 16.6,3.2 6.7,3.2 8.7,9.3 		"/>
		<linearGradient id="SVGID_1_" gradientUnits="userSpaceOnUse" x1="15.7115" y1="27.6298" x2="48.8551" y2="27.6298">
			<stop  offset="0" style="stop-color:#0072BF"/>
			<stop  offset="1" style="stop-color:#00AA9D"/>
		</linearGradient>
		<polygon class="st1" points="38.9,3.2 28.8,37.5 27.8,42.1 26.7,37.5 24.7,30.7 15.7,30.7 22.8,52 27.8,52 27.8,52 32.8,52 
			48.9,3.2 		"/>
	</g>
</g>
</svg>
