<?xml version="1.0" encoding="utf-8"?>
<!-- Generator: Adobe Illustrator 23.0.3, SVG Export Plug-In . SVG Version: 6.00 Build 0)  -->
<svg version="1.1" id="Livello_1" xmlns="http://www.w3.org/2000/svg" xmlns:xlink="http://www.w3.org/1999/xlink" x="0px" y="0px"
	 viewBox="0 0 300 55" style="enable-background:new 0 0 300 55;" xml:space="preserve">
<style type="text/css">
	.st0{fill:#001B2D;}
	.st1{fill:url(#SVGID_1_);}
</style>
<g>
	<g>
		<path class="st0" d="M109.4,10.8c-0.6,0.6-0.9,1.7-0.9,3.2v9.3h19.1v6.8h-19.1v21h-8.8v-39c0-3,0.9-5.3,2.8-7
			c1.9-1.7,4.4-2.5,7.6-2.5c4.7,0,8.7,0,11.8,0.1c3.2,0.1,6.1,0.2,8.8,0.5l-0.5,6.7h-17.5C111.1,9.9,110,10.2,109.4,10.8z"/>
		<path class="st0" d="M143.2,40.4c0,2.7,1.4,4,4.1,4h2.9l1,6.3c-0.7,0.4-1.8,0.7-3.3,0.9c-1.5,0.2-2.8,0.3-4,0.3
			c-2.9,0-5.1-0.8-6.8-2.5c-1.7-1.6-2.5-4-2.5-6.9V2.1h8.6L143.2,40.4z"/>
		<path class="st0" d="M180.7,17.6c2.5,1.2,4.2,3.1,5.3,5.8c1.1,2.6,1.6,6.2,1.6,10.6c0,4.4-0.5,8-1.6,10.6
			c-1.1,2.6-2.9,4.5-5.3,5.7c-2.5,1.2-5.8,1.8-9.9,1.8c-4.2,0-7.5-0.6-10-1.8c-2.5-1.2-4.2-3.1-5.4-5.7c-1.1-2.6-1.7-6.1-1.7-10.6
			c0-4.4,0.6-8,1.7-10.6c1.1-2.6,2.9-4.6,5.4-5.8c2.5-1.2,5.8-1.8,10-1.8C174.9,15.8,178.2,16.4,180.7,17.6z M165.8,23.6
			c-1.1,0.7-2,1.8-2.5,3.4c-0.5,1.6-0.7,3.9-0.7,7c0,3,0.2,5.3,0.7,6.9c0.5,1.6,1.3,2.7,2.5,3.4c1.1,0.7,2.8,1,4.9,1
			c2.1,0,3.7-0.3,4.9-1c1.1-0.7,2-1.8,2.5-3.4c0.5-1.6,0.7-3.9,0.7-6.9c0-3-0.2-5.4-0.7-7c-0.5-1.6-1.3-2.7-2.5-3.4
			c-1.1-0.7-2.8-1-4.9-1C168.6,22.6,167,22.9,165.8,23.6z"/>
		<path class="st0" d="M235.9,48.8c-0.2,0.7-0.6,1.3-1.1,1.7c-0.5,0.4-1.2,0.6-1.9,0.6h-7.2c-0.8,0-1.5-0.2-2.1-0.7
			c-0.6-0.5-0.9-1.1-1.1-1.9l-4.1-21.1c-0.2-1-0.3-1.8-0.4-2.4c-0.1-0.6-0.3-1.6-0.6-3.2h-0.8l-1,5.6l-4,21.1
			c-0.1,0.8-0.5,1.4-1.1,1.9c-0.6,0.5-1.3,0.7-2.1,0.7h-7.1c-0.8,0-1.5-0.2-2-0.6c-0.6-0.4-0.9-1-1.1-1.7l-9.1-32h8.7l5.7,23.6
			c0.5,2.2,0.8,4,0.9,5.5h0.9l0.4-1.8c0.1-0.7,0.4-1.9,0.7-3.6l4.2-21.1c0.1-0.8,0.5-1.4,1-1.9c0.5-0.4,1.2-0.7,2-0.7h6.9
			c0.8,0,1.5,0.2,2,0.7c0.6,0.5,0.9,1.1,1.1,1.9l4.1,21c0.1,0.7,0.2,1.3,0.3,1.9c0.1,0.6,0.2,1,0.3,1.4l0.4,2.2h0.9
			c0.4-2.9,0.7-4.7,0.9-5.5l5.7-23.6h8.7L235.9,48.8z"/>
	</g>
	<g>
		<polygon class="st0" points="60.1,17.5 69.6,17.5 67.7,11.4 58.1,11.4 		"/>
		<polygon class="st0" points="63.1,26.7 72.3,26.7 70.5,20.6 61.1,20.6 		"/>
		<polygon class="st0" points="66.8,8.3 65,2.2 55.1,2.2 57.1,8.3 		"/>
		<linearGradient id="SVGID_1_" gradientUnits="userSpaceOnUse" x1="64.1538" y1="26.6868" x2="97.3908" y2="26.6868">
			<stop  offset="0" style="stop-color:#0072BF"/>
			<stop  offset="1" style="stop-color:#00AA9D"/>
		</linearGradient>
		<polygon class="st1" points="87.5,2.2 77.2,36.6 76.2,41.2 75.2,36.6 73.2,29.7 64.2,29.7 71.2,51.2 76.2,51.2 76.2,51.2 
			81.2,51.2 97.4,2.2 		"/>
	</g>
</g>
</svg>
