<?xml version="1.0" encoding="utf-8"?>
<!-- Generator: Adobe Illustrator 23.0.3, SVG Export Plug-In . SVG Version: 6.00 Build 0)  -->
<svg version="1.1" id="Livello_1" xmlns="http://www.w3.org/2000/svg" xmlns:xlink="http://www.w3.org/1999/xlink" x="0px" y="0px"
	 viewBox="0 0 300 55" style="enable-background:new 0 0 300 55;" xml:space="preserve">
<style type="text/css">
	.st0{fill:#00396A;}
	.st1{fill:url(#SVGID_1_);}
</style>
<g>
	<g>
		<polygon class="st0" points="5,18.5 14.5,18.5 12.6,12.3 3,12.3 		"/>
		<polygon class="st0" points="8.1,27.6 17.2,27.6 15.4,21.5 6,21.5 		"/>
		<polygon class="st0" points="11.7,9.3 9.9,3.2 0,3.2 2,9.3 		"/>
		<linearGradient id="SVGID_1_" gradientUnits="userSpaceOnUse" x1="9.0687" y1="27.6173" x2="42.2589" y2="27.6173">
			<stop  offset="0" style="stop-color:#0072BF"/>
			<stop  offset="1" style="stop-color:#00AA9D"/>
		</linearGradient>
		<polygon class="st1" points="32.3,3.2 22.1,37.5 21.1,42.1 20.1,37.5 18.1,30.7 9.1,30.7 16.1,52.1 21.1,52.1 21.1,52.1 
			26.1,52.1 42.3,3.2 		"/>
	</g>
	<path class="st0" d="M96.7,6.5l2,45.5H90l-1.6-41.8H87l-8.4,32.6c-0.5,2-1.8,3-3.7,3H68c-2,0-3.2-1-3.8-3l-8.6-32.6h-1.2l-1.6,41.8
		h-8.7l1.8-45.5c0.1-2.3,1.3-3.5,3.5-3.5h9.2c1.9,0,3.1,1,3.6,3l7,26.6c0.5,1.7,0.8,3.2,1.1,4.6l0.4,2.1h1.1c0.5-2.7,1-5,1.5-6.7
		l7-26.5c0.5-2,1.8-3,3.7-3h9.2C95.4,3.1,96.6,4.2,96.7,6.5z"/>
	<path class="st0" d="M133.5,45l0.8,5.5c-1.7,0.8-3.9,1.4-6.5,1.8c-2.7,0.4-5.3,0.6-7.8,0.6c-4.3,0-7.6-0.6-10.2-1.8
		c-2.5-1.2-4.3-3.2-5.5-5.8c-1.2-2.7-1.7-6.2-1.7-10.7c0-4.6,0.6-8.2,1.7-10.9c1.2-2.7,3-4.6,5.4-5.7c2.4-1.2,5.7-1.7,9.7-1.7
		c5.5,0,9.6,1,12.1,3c2.5,2,3.8,5,3.8,9.1c0,6.6-3.1,9.9-9.3,9.9h-14.2c0.2,2.1,0.7,3.7,1.4,4.8c0.7,1.1,1.6,1.8,2.9,2.2
		c1.2,0.4,2.9,0.6,5,0.6C124.6,45.9,128.8,45.6,133.5,45z M114.9,23.9c-1.1,0.5-2,1.4-2.5,2.7c-0.5,1.3-0.8,3.2-0.9,5.6h12
		c1.2,0,2.1-0.4,2.5-1.1c0.4-0.8,0.6-1.7,0.6-2.9c0-1.9-0.5-3.2-1.5-4c-1-0.8-2.8-1.1-5.4-1.1C117.7,23.1,116.1,23.3,114.9,23.9z"/>
	<path class="st0" d="M169.6,45l0.8,5.5c-1.7,0.8-3.9,1.4-6.5,1.8c-2.7,0.4-5.3,0.6-7.8,0.6c-4.3,0-7.6-0.6-10.2-1.8
		c-2.5-1.2-4.3-3.2-5.5-5.8c-1.2-2.7-1.7-6.2-1.7-10.7c0-4.6,0.6-8.2,1.7-10.9c1.2-2.7,3-4.6,5.4-5.7c2.4-1.2,5.7-1.7,9.7-1.7
		c5.5,0,9.6,1,12.1,3c2.5,2,3.8,5,3.8,9.1c0,6.6-3.1,9.9-9.3,9.9h-14.2c0.2,2.1,0.7,3.7,1.4,4.8c0.7,1.1,1.6,1.8,2.9,2.2
		c1.2,0.4,2.9,0.6,5,0.6C160.7,45.9,164.8,45.6,169.6,45z M151,23.9c-1.1,0.5-2,1.4-2.5,2.7c-0.5,1.3-0.8,3.2-0.9,5.6h12
		c1.2,0,2.1-0.4,2.5-1.1c0.4-0.8,0.6-1.7,0.6-2.9c0-1.9-0.5-3.2-1.5-4c-1-0.8-2.8-1.1-5.4-1.1C153.8,23.1,152.1,23.3,151,23.9z"/>
	<path class="st0" d="M187.9,23.5v17.7c0,1.5,0.3,2.6,0.9,3.2c0.6,0.6,1.7,0.9,3.3,0.9h4.8l0.9,6.4c-1.1,0.4-2.6,0.7-4.4,0.9
		c-1.8,0.2-3.3,0.3-4.5,0.3c-3,0-5.4-0.9-7-2.6c-1.6-1.8-2.4-4.3-2.4-7.5l-0.1-19.2H173v-5.9l6.2-0.4v-10h8.6v10h10.2v6.2H187.9z"/>
</g>
</svg>
