<?xml version="1.0" encoding="utf-8"?>
<!-- Generator: Adobe Illustrator 23.0.3, SVG Export Plug-In . SVG Version: 6.00 Build 0)  -->
<svg version="1.1" id="Livello_1" xmlns="http://www.w3.org/2000/svg" xmlns:xlink="http://www.w3.org/1999/xlink" x="0px" y="0px"
	 viewBox="0 0 300 55" style="enable-background:new 0 0 300 55;" xml:space="preserve">
<style type="text/css">
	.st0{fill:#001B2D;}
	.st1{fill:url(#SVGID_1_);}
</style>
<g>
	<g>
		<path class="st0" d="M146,4.5c2.4,0.9,4,2.5,5.1,4.7c1,2.2,1.5,5.4,1.5,9.5c0,4.1-0.5,7.3-1.5,9.5c-1,2.2-2.6,3.8-4.8,4.7
			c-2.2,0.9-5.3,1.4-9.2,1.4c-3.5,0-6.7-0.2-9.9-0.6v18.4h-8.8V3.8c2.7-0.3,5.1-0.5,7.5-0.5c2.3-0.1,5.7-0.1,10-0.1
			C140.3,3.1,143.6,3.6,146,4.5z M140.6,26.3c1.1-0.5,1.9-1.3,2.4-2.5c0.5-1.2,0.7-2.9,0.7-5.1s-0.2-4-0.7-5.1s-1.3-2-2.4-2.5
			c-1.1-0.5-2.7-0.7-4.8-0.7c-4.1,0-6.9,0-8.5,0.1v16.7h8.5C137.9,27,139.5,26.8,140.6,26.3z"/>
		<path class="st0" d="M188.6,45l0.4,6.7c-2.8,0.2-5.8,0.4-9.1,0.5c-3.3,0.1-7.3,0.1-12.2,0.1c-3.2,0-5.7-0.8-7.5-2.5
			c-1.8-1.6-2.8-3.9-2.8-6.7V12.8c0-2.8,1-5.1,2.8-6.7c1.8-1.6,4.4-2.5,7.5-2.5c4.9,0,8.9,0,12.2,0.1c3.3,0.1,6.3,0.2,9.1,0.5
			l-0.4,6.7h-18.9c-1.3,0-2.2,0.3-2.7,0.9c-0.5,0.6-0.8,1.7-0.8,3.2v8.5H186v6.7h-19.8V41c0,1.5,0.3,2.5,0.8,3.2
			c0.5,0.6,1.4,0.9,2.7,0.9H188.6z"/>
		<path class="st0" d="M220,3.3c2,0.2,4,0.6,6.2,1.2l-0.8,6.7c-4.1-0.3-8.4-0.5-13-0.5c-2.7,0-4.8,0.5-6.3,1.6
			c-1.5,1.1-2.6,2.8-3.2,5.3c-0.6,2.5-0.9,6-0.9,10.4s0.3,8,0.9,10.4c0.6,2.5,1.7,4.2,3.2,5.3c1.5,1.1,3.6,1.6,6.3,1.6
			c3.2,0,5.9,0,7.9-0.1c2.1-0.1,4.1-0.3,6.1-0.6l0.8,6.6c-2.1,0.7-4.3,1.1-6.5,1.4c-2.2,0.3-5,0.4-8.3,0.4c-4.9,0-8.8-0.8-11.6-2.4
			c-2.8-1.6-4.9-4.2-6.2-7.8c-1.3-3.6-1.9-8.5-1.9-14.7c0-6.2,0.6-11.1,1.9-14.7c1.3-3.6,3.3-6.2,6.2-7.8c2.8-1.6,6.7-2.4,11.6-2.4
			C215.4,2.9,218,3,220,3.3z"/>
	</g>
	<g>
		<polygon class="st0" points="77.7,18.5 87.1,18.5 85.3,12.4 75.7,12.4 		"/>
		<polygon class="st0" points="80.7,27.7 89.8,27.7 88,21.5 78.7,21.5 		"/>
		<polygon class="st0" points="84.4,9.3 82.6,3.2 72.6,3.2 74.7,9.3 		"/>
		<linearGradient id="SVGID_1_" gradientUnits="userSpaceOnUse" x1="81.7153" y1="27.6511" x2="114.9047" y2="27.6511">
			<stop  offset="0" style="stop-color:#0072BF"/>
			<stop  offset="1" style="stop-color:#00AA9D"/>
		</linearGradient>
		<polygon class="st1" points="105,3.2 94.8,37.5 93.8,42.1 92.8,37.5 90.7,30.7 81.7,30.7 88.8,52.1 93.8,52.1 93.8,52.1 
			98.8,52.1 114.9,3.2 		"/>
	</g>
</g>
</svg>
