<?xml version="1.0" encoding="utf-8"?>
<!-- Generator: Adobe Illustrator 23.0.3, SVG Export Plug-In . SVG Version: 6.00 Build 0)  -->
<svg version="1.1" id="Livello_1" xmlns="http://www.w3.org/2000/svg" xmlns:xlink="http://www.w3.org/1999/xlink" x="0px" y="0px"
	 viewBox="0 0 383 383" style="enable-background:new 0 0 383 383;" xml:space="preserve">
<style type="text/css">
	.st0{fill:url(#SVGID_1_);}
	.st1{fill:#00396A;}
	.st2{fill:url(#SVGID_2_);}
</style>
<g>
	<g>
		<linearGradient id="SVGID_1_" gradientUnits="userSpaceOnUse" x1="191.5" y1="498.8657" x2="191.5" y2="49.8058">
			<stop  offset="0" style="stop-color:#C8C8C8"/>
			<stop  offset="1" style="stop-color:#FFFFFF"/>
		</linearGradient>
		<path class="st0" d="M319.4,343.5H63.6c-13.3,0-24-10.8-24-24V63.6c0-13.3,10.8-24,24-24h255.9c13.3,0,24,10.8,24,24v255.9
			C343.5,332.7,332.7,343.5,319.4,343.5z"/>
	</g>
	<path class="st1" d="M91.6,214.2h45.7v-45.7H91.6V214.2z M91.6,157.2h45.7v-45.7h-25.5c-11.1,0-20.1,9-20.1,20.1V157.2z
		 M148.7,214.2h142.5v-45.7H148.7V214.2z M91.6,251.2c0,11.1,9,20.1,20.1,20.1h25.5v-45.7H91.6V251.2z M148.7,111.5v45.7h142.5V131
		c0-10.8-8.8-19.5-19.5-19.5H148.7z M271.6,271.5c10.8,0,19.5-8.8,19.5-19.5v-26.1H148.7v45.7H271.6z"/>
	<linearGradient id="SVGID_2_" gradientUnits="userSpaceOnUse" x1="192.4865" y1="191.5" x2="343.0216" y2="191.5">
		<stop  offset="0" style="stop-color:#0072BF"/>
		<stop  offset="1" style="stop-color:#00AA9D"/>
	</linearGradient>
	<path class="st2" d="M319.4,39.5h-2.3l-63.3,213.6l-6.3,28.5l0,0l-2.3-10.2h-52.6l23.8,72.2h31.1h0h0h5h26.1l64.8-196.3V63.6
		C343.5,50.3,332.7,39.5,319.4,39.5z"/>
</g>
</svg>
