<?xml version="1.0" encoding="utf-8"?>
<!-- Generator: Adobe Illustrator 23.0.3, SVG Export Plug-In . SVG Version: 6.00 Build 0)  -->
<svg version="1.1" id="Livello_1" xmlns="http://www.w3.org/2000/svg" xmlns:xlink="http://www.w3.org/1999/xlink" x="0px" y="0px"
	 viewBox="0 0 383 383" style="enable-background:new 0 0 383 383;" xml:space="preserve">
<style type="text/css">
	.st0{fill:url(#SVGID_1_);}
	.st1{fill:#00396A;}
	.st2{fill:url(#SVGID_2_);}
</style>
<g>
	<linearGradient id="SVGID_1_" gradientUnits="userSpaceOnUse" x1="191.5" y1="498.8657" x2="191.5" y2="49.8058">
		<stop  offset="0" style="stop-color:#C8C8C8"/>
		<stop  offset="1" style="stop-color:#FFFFFF"/>
	</linearGradient>
	<path class="st0" d="M319.4,343.5H63.6c-13.3,0-24-10.8-24-24V63.6c0-13.3,10.8-24,24-24h255.9c13.3,0,24,10.8,24,24v255.9
		C343.5,332.7,332.7,343.5,319.4,343.5z"/>
	<path class="st1" d="M173.1,230.6v30l-40-40l40-40v30h119.1v-79.1c0-11-9-20-20-20H112.3c-11,0-19.9,9-19.9,20l0,20.8h119v-30
		l40,40l-40,40v-30h-119l-0.1,79.1c0,11,9,20,20,20h159.8c11,0,20-9,20-20v-20.8H173.1z"/>
	<linearGradient id="SVGID_2_" gradientUnits="userSpaceOnUse" x1="192.4865" y1="191.5" x2="343.0216" y2="191.5">
		<stop  offset="0" style="stop-color:#0072BF"/>
		<stop  offset="1" style="stop-color:#00AA9D"/>
	</linearGradient>
	<path class="st2" d="M319.4,39.5h-2.3l-63.3,213.6l-6.3,28.5l0,0l-2.3-10.2h-52.6l23.8,72.2h31.1h0h0h5h26.1l64.8-196.3V63.6
		C343.5,50.3,332.7,39.5,319.4,39.5z"/>
</g>
</svg>
