<?xml version="1.0" encoding="utf-8"?>
<!-- Generator: Adobe Illustrator 23.0.3, SVG Export Plug-In . SVG Version: 6.00 Build 0)  -->
<svg version="1.1" id="Livello_1" xmlns="http://www.w3.org/2000/svg" xmlns:xlink="http://www.w3.org/1999/xlink" x="0px" y="0px"
	 viewBox="0 0 383 383" style="enable-background:new 0 0 383 383;" xml:space="preserve">
<style type="text/css">
	.st0{fill:url(#SVGID_1_);}
	.st1{fill:#00396A;}
	.st2{fill:url(#SVGID_2_);}
</style>
<g>
	<g>
		<linearGradient id="SVGID_1_" gradientUnits="userSpaceOnUse" x1="191.5" y1="498.8657" x2="191.5" y2="49.8058">
			<stop  offset="0" style="stop-color:#C8C8C8"/>
			<stop  offset="1" style="stop-color:#FFFFFF"/>
		</linearGradient>
		<path class="st0" d="M319.4,343.5H63.6c-13.3,0-24-10.8-24-24V63.6c0-13.3,10.8-24,24-24h255.9c13.3,0,24,10.8,24,24v255.9
			C343.5,332.7,332.7,343.5,319.4,343.5z"/>
		<path class="st1" d="M268,111.5H115.1c-12.9,0-23.4,10.5-23.4,23.4v12.6h-6.3c-3.3,0-6,2.7-6,6s2.7,6,6,6h6.3h5.7c3.3,0,6,2.7,6,6
			c0,3.3-2.7,6-6,6h-5.7v51.9h-6.3c-3.3,0-6,2.7-6,6c0,3.3,2.7,6,6,6h6.3h5.7c3.3,0,6,2.7,6,6c0,3.3-2.7,6-6,6h-5.7v0.6
			c0,12.9,10.5,23.4,23.4,23.4H268c12.9,0,23.4-10.5,23.4-23.4V134.9C291.4,122,280.9,111.5,268,111.5z M193.3,146.4
			c12.3,0,22.2,10,22.2,22.2c0,12.3-10,22.2-22.2,22.2c-12.3,0-22.2-10-22.2-22.2C171.1,156.3,181.1,146.4,193.3,146.4z
			 M237.8,235.3h-89v-16.7c0-14.8,29.6-22.2,44.5-22.2c14.8,0,44.5,7.5,44.5,22.2V235.3z"/>
	</g>
	<linearGradient id="SVGID_2_" gradientUnits="userSpaceOnUse" x1="192.4675" y1="191.5" x2="343.0026" y2="191.5">
		<stop  offset="0" style="stop-color:#0072BF"/>
		<stop  offset="1" style="stop-color:#00AA9D"/>
	</linearGradient>
	<path class="st2" d="M319.4,39.5h-2.3l-63.3,213.6l-6.3,28.5l0,0l-2.3-10.2h-52.6l23.8,72.2h31.1h0h0h5h26.1l64.8-196.3V63.6
		C343.4,50.3,332.7,39.5,319.4,39.5z"/>
</g>
</svg>
