<?xml version="1.0" encoding="utf-8"?>
<!-- Generator: Adobe Illustrator 23.0.3, SVG Export Plug-In . SVG Version: 6.00 Build 0)  -->
<svg version="1.1" id="Livello_1" xmlns="http://www.w3.org/2000/svg" xmlns:xlink="http://www.w3.org/1999/xlink" x="0px" y="0px"
	 viewBox="0 0 383 383" style="enable-background:new 0 0 383 383;" xml:space="preserve">
<style type="text/css">
	.st0{fill:url(#SVGID_1_);}
	.st1{fill:#00396A;}
	.st2{fill:url(#SVGID_2_);}
</style>
<g>
	<linearGradient id="SVGID_1_" gradientUnits="userSpaceOnUse" x1="190.5061" y1="498.0553" x2="190.5061" y2="48.9953">
		<stop  offset="0" style="stop-color:#C8C8C8"/>
		<stop  offset="1" style="stop-color:#FFFFFF"/>
	</linearGradient>
	<path class="st0" d="M318.5,342.7H62.6c-13.3,0-24-10.8-24-24V62.7c0-13.3,10.8-24,24-24h255.9c13.3,0,24,10.8,24,24v255.9
		C342.5,331.9,331.7,342.7,318.5,342.7z"/>
	<g>
		<polygon class="st1" points="138,160.8 168.7,160.8 162.8,140.8 131.4,140.8 		"/>
		<polygon class="st1" points="147.8,190.7 177.6,190.7 171.7,170.7 141.2,170.7 		"/>
		<polygon class="st1" points="159.8,130.8 153.9,110.9 121.5,110.9 128.1,130.8 		"/>
		<linearGradient id="SVGID_2_" gradientUnits="userSpaceOnUse" x1="151.1176" y1="190.6896" x2="259.5117" y2="190.6896">
			<stop  offset="0" style="stop-color:#0072BF"/>
			<stop  offset="1" style="stop-color:#00AA9D"/>
		</linearGradient>
		<polygon class="st2" points="227.1,110.9 193.8,223 190.5,237.9 187.2,223 180.6,200.7 151.1,200.7 174.2,270.5 190.5,270.5 
			190.5,270.5 206.9,270.5 259.5,110.9 		"/>
	</g>
</g>
</svg>
