<?xml version="1.0" encoding="utf-8"?>
<!-- Generator: Adobe Illustrator 23.0.3, SVG Export Plug-In . SVG Version: 6.00 Build 0)  -->
<svg version="1.1" id="Livello_1" xmlns="http://www.w3.org/2000/svg" xmlns:xlink="http://www.w3.org/1999/xlink" x="0px" y="0px"
	 viewBox="0 0 383 383" style="enable-background:new 0 0 383 383;" xml:space="preserve">
<style type="text/css">
	.st0{fill:url(#SVGID_1_);}
	.st1{fill:#00396A;}
	.st2{fill:url(#SVGID_2_);}
</style>
<linearGradient id="SVGID_1_" gradientUnits="userSpaceOnUse" x1="191.8392" y1="497.9099" x2="191.8392" y2="48.8499">
	<stop  offset="0" style="stop-color:#C8C8C8"/>
	<stop  offset="1" style="stop-color:#FFFFFF"/>
</linearGradient>
<path class="st0" d="M319.8,342.5H63.9c-13.3,0-24-10.8-24-24V62.6c0-13.3,10.8-24,24-24h255.9c13.3,0,24,10.8,24,24v255.9
	C343.8,331.8,333,342.5,319.8,342.5z"/>
<path class="st1" d="M283.5,257.5h-55.8v-12.9h44.4c9.8,0,17.7-8,17.7-17.8l0.1-98.7c0-9.9-8-17.8-17.8-17.8h-160
	c-9.9,0-17.8,7.9-17.8,17.8v98.7c0,9.8,7.9,17.8,17.8,17.8h44.4v12.9h-55.8c-3.6,0-6.4,2.9-6.4,6.4c0,3.6,2.9,6.4,6.4,6.4h55.8h71.1
	h55.8c3.6,0,6.4-2.9,6.4-6.4C290,260.3,287.1,257.5,283.5,257.5z M272.2,216.6v10.2h-43.6v-10.2c0-10.8-5.9-19-14.3-25.1
	c2.5-0.2,4.9-0.4,7.1-0.4C238.2,191.1,272.2,199.7,272.2,216.6z M221.3,134c12.1,0,21.7,9.7,21.7,21.8c0,12.1-9.7,21.8-21.7,21.8
	c-12.1,0-21.8-9.7-21.8-21.8C199.4,143.7,209.2,134,221.3,134z M163.1,134c12.1,0,21.7,9.7,21.7,21.8c0,12.1-9.7,21.8-21.7,21.8
	c-12.1,0-21.8-9.7-21.8-21.8C141.3,143.7,151,134,163.1,134z M112.2,226.8v-10.2c0-16.9,34-25.5,50.9-25.5
	c16.9,0,50.9,8.5,50.9,25.5v10.2H112.2z"/>
<linearGradient id="SVGID_2_" gradientUnits="userSpaceOnUse" x1="192.8256" y1="190.5441" x2="343.3606" y2="190.5441">
	<stop  offset="0" style="stop-color:#0072BF"/>
	<stop  offset="1" style="stop-color:#00AA9D"/>
</linearGradient>
<path class="st2" d="M319.8,38.6h-2.3l-63.3,213.6l-6.3,28.5l0,0l-2.3-10.2H193l23.8,72.2h31.1h0h0h5H279l64.8-196.3V62.6
	C343.8,49.3,333,38.6,319.8,38.6z"/>
</svg>
