<?xml version="1.0" encoding="UTF-8"?>
<svg width="200px" height="179px" viewBox="0 0 200 179" version="1.1" xmlns="http://www.w3.org/2000/svg" xmlns:xlink="http://www.w3.org/1999/xlink">
    <title>Shape</title>
    <g id="Page-1" stroke="none" stroke-width="1" fill="none" fill-rule="evenodd">
        <path d="M182.1,18.1 L152.9,18.1 L152.9,9.2 C152.9,4.3 148.9,0.3 144,0.3 C139.1,0.3 135.1,4.3 135.1,9.2 L135.1,18.1 L63.8,18.1 L63.8,9.2 C63.8,4.3 59.8,0.3 54.9,0.3 C50,0.3 46,4.3 46,9.2 L46,18.1 L18.3,18.1 C8.4,18.1 0.6,26.1 0.6,35.9 L0.5,160.6 C0.5,170.4 8.4,178.4 18.3,178.4 L182.1,178.4 C191.9,178.4 199.9,170.4 199.9,160.6 L199.9,35.9 C199.9,26.1 191.9,18.1 182.1,18.1 Z M91,142.8 L46.5,142.8 L46.5,98.3 L91,98.3 L91,142.8 Z M182.1,62.6 L18.2,62.6 L18.2,35.8 L182,35.8 L182,62.6 L182.1,62.6 Z" id="Shape" fill="#00396A" fill-rule="nonzero"></path>
    </g>
</svg>