<?xml version="1.0" encoding="UTF-8"?>
<svg width="201px" height="161px" viewBox="0 0 201 161" version="1.1" xmlns="http://www.w3.org/2000/svg" xmlns:xlink="http://www.w3.org/1999/xlink">
    <title>Shape</title>
    <g id="Page-1" stroke="none" stroke-width="1" fill="none" fill-rule="evenodd">
        <path d="M180.5,0.4 L20.9,0.4 C9.8,0.4 0.9,9.4 0.9,20.4 L0.9,140.4 C0.9,151.4 9.8,160.4 20.9,160.4 L180.4,160.4 C191.4,160.4 200.400825,151.4 200.400825,140.4 L200.400825,20.4 C200.5,9.4 191.5,0.4 180.5,0.4 Z M131.8,136.5 L74,136.5 C59.2,136.5 47.3,124.6 47.3,109.8 C47.3,96 57.7,84.7 71.1,83.3 L72.5,83.3 C77.5,72.7 88.1,65.3 100.6,65.3 C116.2,65.3 129.1,76.9 131.3,92 L131.7,92 C144,92 153.900751,102 153.900751,114.2 C154,126.6 144.1,136.5 131.8,136.5 Z M180.5,47.2 L20.9,47.2 L20.9,20.4 L180.4,20.4 L180.4,47.2 L180.5,47.2 Z" id="Shape" fill="#00396A" fill-rule="nonzero"></path>
    </g>
</svg>