<?xml version="1.0" encoding="utf-8"?>
<!-- Generator: Adobe Illustrator 23.0.3, SVG Export Plug-In . SVG Version: 6.00 Build 0)  -->
<svg version="1.1" id="Livello_1" xmlns="http://www.w3.org/2000/svg" xmlns:xlink="http://www.w3.org/1999/xlink" x="0px" y="0px"
	 viewBox="0 0 300 55" style="enable-background:new 0 0 300 55;" xml:space="preserve">
<style type="text/css">
	.st0{fill:#FFFFFF;}
	.st1{fill:url(#SVGID_1_);}
</style>
<g>
	<g>
		<path class="st0" d="M153.4,3.3c2,0.2,4,0.6,6.2,1.2l-0.8,6.7c-4.1-0.3-8.4-0.5-13-0.5c-2.7,0-4.8,0.5-6.3,1.6s-2.6,2.8-3.2,5.3
			c-0.6,2.5-0.9,6-0.9,10.4c0,4.5,0.3,8,0.9,10.4c0.6,2.5,1.7,4.2,3.2,5.3s3.6,1.6,6.3,1.6c3.2,0,5.9,0,7.9-0.1
			c2.1-0.1,4.1-0.3,6.1-0.6l0.8,6.6c-2.1,0.7-4.3,1.1-6.5,1.4c-2.2,0.3-5,0.4-8.3,0.4c-4.9,0-8.8-0.8-11.6-2.4
			c-2.8-1.6-4.9-4.2-6.2-7.8s-1.9-8.5-1.9-14.7s0.6-11.1,1.9-14.7s3.3-6.2,6.2-7.8c2.8-1.6,6.7-2.4,11.6-2.4
			C148.8,2.9,151.4,3.1,153.4,3.3z"/>
		<path class="st0" d="M191.4,19.5c2.1,1.8,3.1,4.9,3.1,9.3v23.3h-6.7l-0.9-5.2c-1.5,1.6-3.4,3-5.6,4.2c-2.2,1.2-4.7,1.7-7.5,1.7
			c-3.2,0-5.8-0.9-7.8-2.6c-2-1.8-3-4.2-3-7.3v-3.5c0-2.8,0.9-4.9,2.7-6.4s4.3-2.2,7.5-2.2H186v-2.1c0-1.4-0.2-2.4-0.6-3
			c-0.4-0.7-1-1.2-1.9-1.4c-0.9-0.3-2.2-0.4-3.9-0.4c-3.6,0-8.4,0.2-14.4,0.7l-0.8-6c2.5-0.5,5.4-0.9,8.8-1.2
			c3.4-0.3,6.2-0.5,8.4-0.5C186.1,16.8,189.4,17.7,191.4,19.5z M172.5,45c0.7,0.7,1.9,1,3.4,1c1.4,0,3.1-0.3,4.9-1
			c1.8-0.7,3.5-1.7,5.2-3v-5.3h-10.9c-1.4,0-2.3,0.4-2.8,1.1c-0.5,0.7-0.8,1.6-0.8,2.8v1.3C171.5,43.3,171.8,44.3,172.5,45z"/>
		<path class="st0" d="M209.6,41.4c0,2.7,1.4,4,4.1,4h2.9l1,6.3c-0.7,0.4-1.8,0.7-3.3,0.9s-2.8,0.3-4,0.3c-2.8,0-5.1-0.8-6.8-2.5
			c-1.7-1.6-2.5-3.9-2.5-6.9V3.1h8.5L209.6,41.4z"/>
	</g>
	<g>
		<polygon class="st0" points="88.1,18.5 97.5,18.5 95.7,12.4 86.1,12.4 		"/>
		<polygon class="st0" points="91.1,27.7 100.2,27.7 98.4,21.6 89.1,21.6 		"/>
		<polygon class="st0" points="94.8,9.3 93,3.2 83,3.2 85,9.3 		"/>
		
			<linearGradient id="SVGID_1_" gradientUnits="userSpaceOnUse" x1="92.1" y1="28.35" x2="125.3" y2="28.35" gradientTransform="matrix(1 0 0 -1 0 56)">
			<stop  offset="0" style="stop-color:#0072BF"/>
			<stop  offset="1" style="stop-color:#00AA9D"/>
		</linearGradient>
		<polygon class="st1" points="115.4,3.2 105.2,37.6 104.2,42.1 103.1,37.6 101.1,30.7 92.1,30.7 99.2,52.1 104.2,52.1 104.2,52.1 
			109.2,52.1 125.3,3.2 		"/>
	</g>
</g>
</svg>
